<ttFont>
    <TTGlyph name=".notdef" xMin="90" yMin="-500" xMax="510" yMax="1050">
      <contour>
        <pt x="510" y="-500" on="1"/>
        <pt x="90" y="-500" on="1"/>
        <pt x="90" y="1050" on="1"/>
        <pt x="510" y="1050" on="1"/>
      </contour>
      <contour>
        <pt x="145" y="998" on="1"/>
        <pt x="145" y="-448" on="1"/>
        <pt x="456" y="-448" on="1"/>
        <pt x="456" y="998" on="1"/>
      </contour>
      <contour>
        <pt x="307" y="162" on="0"/>
        <pt x="292" y="149" on="0"/>
        <pt x="282" y="149" on="1"/>
        <pt x="272" y="149" on="0"/>
        <pt x="257" y="162" on="0"/>
        <pt x="257" y="173" on="1"/>
        <pt x="257" y="257" on="1"/>
        <pt x="310" y="260" on="0"/>
        <pt x="348" y="293" on="0"/>
        <pt x="348" y="334" on="1"/>
        <pt x="348" y="367" on="0"/>
        <pt x="322" y="403" on="0"/>
        <pt x="287" y="403" on="1"/>
        <pt x="258" y="403" on="0"/>
        <pt x="235" y="392" on="1"/>
        <pt x="228" y="389" on="0"/>
        <pt x="222" y="389" on="1"/>
        <pt x="211" y="389" on="0"/>
        <pt x="198" y="402" on="0"/>
        <pt x="198" y="412" on="1"/>
        <pt x="198" y="431" on="0"/>
        <pt x="257" y="451" on="0"/>
        <pt x="291" y="451" on="1"/>
        <pt x="351" y="451" on="0"/>
        <pt x="402" y="387" on="0"/>
        <pt x="402" y="336" on="1"/>
        <pt x="402" y="283" on="0"/>
        <pt x="357" y="225" on="0"/>
        <pt x="307" y="218" on="1"/>
        <pt x="307" y="173" on="1"/>
      </contour>
      <contour>
        <pt x="247" y="100" on="0"/>
        <pt x="267" y="120" on="0"/>
        <pt x="282" y="120" on="1"/>
        <pt x="297" y="120" on="0"/>
        <pt x="317" y="100" on="0"/>
        <pt x="317" y="85" on="1"/>
        <pt x="317" y="69" on="0"/>
        <pt x="297" y="48" on="0"/>
        <pt x="282" y="48" on="1"/>
        <pt x="267" y="48" on="0"/>
        <pt x="247" y="69" on="0"/>
        <pt x="247" y="85" on="1"/>
      </contour>
    </TTGlyph>
    <TTGlyph name="A" xMin="21" yMin="0" xMax="579" yMax="688">
      <contour>
        <pt x="105" y="0" on="1"/>
        <pt x="21" y="0" on="1"/>
        <pt x="245" y="688" on="1"/>
        <pt x="355" y="688" on="1"/>
        <pt x="579" y="0" on="1"/>
        <pt x="489" y="0" on="1"/>
        <pt x="434" y="176" on="1"/>
        <pt x="161" y="176" on="1"/>
      </contour>
      <contour>
        <pt x="298" y="616" on="1"/>
        <pt x="183" y="247" on="1"/>
        <pt x="412" y="247" on="1"/>
      </contour>
    </TTGlyph>
    <TTGlyph name="AE" xMin="-12" yMin="0" xMax="608" yMax="688">
      <contour>
        <pt x="76" y="0" on="1"/>
        <pt x="-12" y="0" on="1"/>
        <pt x="190" y="688" on="1"/>
        <pt x="566" y="688" on="1"/>
        <pt x="556" y="618" on="1"/>
        <pt x="319" y="618" on="1"/>
        <pt x="371" y="384" on="1"/>
        <pt x="557" y="384" on="1"/>
        <pt x="557" y="314" on="1"/>
        <pt x="384" y="314" on="1"/>
        <pt x="436" y="70" on="1"/>
        <pt x="608" y="70" on="1"/>
        <pt x="608" y="0" on="1"/>
        <pt x="366" y="0" on="1"/>
        <pt x="330" y="176" on="1"/>
        <pt x="125" y="176" on="1"/>
      </contour>
      <contour>
        <pt x="240" y="621" on="1"/>
        <pt x="148" y="248" on="1"/>
        <pt x="314" y="248" on="1"/>
      </contour>
    </TTGlyph>
    <TTGlyph name="AEacute" xMin="-12" yMin="0" xMax="608" yMax="905">
      <component glyphName="AE" x="0" y="0" flags="0x0"/>
      <component glyphName="acute.case" x="64" y="0" flags="0x0"/>
    </TTGlyph>
    <TTGlyph name="Aacute" xMin="21" yMin="0" xMax="579" yMax="905">
      <component glyphName="A" x="0" y="0" flags="0x0"/>
      <component glyphName="acute.case" x="3" y="0" flags="0x0"/>
    </TTGlyph>
    <TTGlyph name="Abreve" xMin="21" yMin="0" xMax="579" yMax="890">
      <component glyphName="A" x="0" y="0" flags="0x0"/>
      <component glyphName="breve.case" x="-1" y="0" flags="0x0"/>
    </TTGlyph>
    <TTGlyph name="Acircumflex" xMin="21" yMin="0" xMax="579" yMax="910">
      <component glyphName="A" x="0" y="0" flags="0x0"/>
      <component glyphName="circumflex.case" x="0" y="0" flags="0x0"/>
    </TTGlyph>
    <TTGlyph name="Adieresis" xMin="21" yMin="0" xMax="579" yMax="874">
      <component glyphName="A" x="0" y="0" flags="0x0"/>
      <component glyphName="dieresis.case" x="1" y="0" flags="0x0"/>
    </TTGlyph>
    <TTGlyph name="Agrave" xMin="21" yMin="0" xMax="579" yMax="909">
      <component glyphName="A" x="0" y="0" flags="0x0"/>
      <component glyphName="grave.case" x="1" y="0" flags="0x0"/>
    </TTGlyph>
    <TTGlyph name="Alpha" xMin="21" yMin="0" xMax="579" yMax="688">
      <contour>
        <pt x="105" y="0" on="1"/>
        <pt x="21" y="0" on="1"/>
        <pt x="245" y="688" on="1"/>
        <pt x="355" y="688" on="1"/>
        <pt x="579" y="0" on="1"/>
        <pt x="489" y="0" on="1"/>
        <pt x="434" y="176" on="1"/>
        <pt x="161" y="176" on="1"/>
      </contour>
      <contour>
        <pt x="298" y="616" on="1"/>
        <pt x="183" y="247" on="1"/>
        <pt x="412" y="247" on="1"/>
      </contour>
    </TTGlyph>
    <TTGlyph name="Alphatonos" xMin="21" yMin="0" xMax="579" yMax="703">
      <component glyphName="A" x="0" y="0" flags="0x0"/>
      <component glyphName="tonos.case" x="-181" y="0" flags="0x0"/>
    </TTGlyph>
    <TTGlyph name="Amacron" xMin="21" yMin="0" xMax="579" yMax="859">
      <component glyphName="A" x="0" y="0" flags="0x0"/>
      <component glyphName="macron.case" x="1" y="0" flags="0x0"/>
    </TTGlyph>
    <TTGlyph name="Aogonek" xMin="21" yMin="-229" xMax="579" yMax="688">
      <contour>
        <pt x="467" y="-32" on="0"/>
        <pt x="415" y="-85" on="0"/>
        <pt x="415" y="-115" on="1"/>
        <pt x="415" y="-138" on="0"/>
        <pt x="441" y="-162" on="0"/>
        <pt x="470" y="-162" on="1"/>
        <pt x="503" y="-162" on="0"/>
        <pt x="532" y="-155" on="1"/>
        <pt x="524" y="-222" on="1"/>
        <pt x="489" y="-229" on="0"/>
        <pt x="460" y="-229" on="1"/>
        <pt x="404" y="-229" on="0"/>
        <pt x="339" y="-173" on="0"/>
        <pt x="339" y="-131" on="1"/>
        <pt x="339" y="-84" on="0"/>
        <pt x="409" y="-10" on="0"/>
        <pt x="484" y="17" on="1"/>
        <pt x="434" y="176" on="1"/>
        <pt x="161" y="176" on="1"/>
        <pt x="105" y="0" on="1"/>
        <pt x="21" y="0" on="1"/>
        <pt x="245" y="688" on="1"/>
        <pt x="355" y="688" on="1"/>
        <pt x="579" y="0" on="1"/>
        <pt x="539" y="0" on="1"/>
      </contour>
      <contour>
        <pt x="298" y="616" on="1"/>
        <pt x="183" y="247" on="1"/>
        <pt x="412" y="247" on="1"/>
      </contour>
    </TTGlyph>
    <TTGlyph name="Aring" xMin="21" yMin="0" xMax="579" yMax="942">
      <component glyphName="A" x="0" y="0" flags="0x0"/>
      <component glyphName="ring.case" x="1" y="0" flags="0x0"/>
    </TTGlyph>
    <TTGlyph name="Atilde" xMin="21" yMin="0" xMax="579" yMax="884">
      <component glyphName="A" x="0" y="0" flags="0x0"/>
      <component glyphName="tilde.case" x="1" y="0" flags="0x0"/>
    </TTGlyph>
    <TTGlyph name="B" xMin="97" yMin="0" xMax="539" yMax="688">
      <contour>
        <pt x="539" y="92" on="0"/>
        <pt x="391" y="0" on="0"/>
        <pt x="281" y="0" on="1"/>
        <pt x="97" y="0" on="1"/>
        <pt x="97" y="688" on="1"/>
        <pt x="266" y="688" on="1"/>
        <pt x="370" y="688" on="0"/>
        <pt x="509" y="608" on="0"/>
        <pt x="509" y="515" on="1"/>
        <pt x="509" y="453" on="0"/>
        <pt x="436" y="377" on="0"/>
        <pt x="381" y="365" on="1"/>
        <pt x="539" y="338" on="0"/>
        <pt x="539" y="196" on="1"/>
      </contour>
      <contour>
        <pt x="421" y="619" on="0"/>
        <pt x="286" y="619" on="1"/>
        <pt x="182" y="619" on="1"/>
        <pt x="182" y="395" on="1"/>
        <pt x="294" y="395" on="1"/>
        <pt x="421" y="395" on="0"/>
        <pt x="421" y="510" on="1"/>
      </contour>
      <contour>
        <pt x="449" y="266" on="0"/>
        <pt x="369" y="324" on="0"/>
        <pt x="301" y="324" on="1"/>
        <pt x="182" y="324" on="1"/>
        <pt x="182" y="71" on="1"/>
        <pt x="297" y="71" on="1"/>
        <pt x="360" y="71" on="0"/>
        <pt x="449" y="124" on="0"/>
        <pt x="449" y="193" on="1"/>
      </contour>
    </TTGlyph>
    <TTGlyph name="Beta" xMin="97" yMin="0" xMax="539" yMax="688">
      <component glyphName="B" x="0" y="0" flags="0x0"/>
    </TTGlyph>
    <TTGlyph name="C" xMin="64" yMin="-11" xMax="567" yMax="700">
      <contour>
        <pt x="423" y="700" on="0"/>
        <pt x="514" y="667" on="0"/>
        <pt x="557" y="633" on="1"/>
        <pt x="509" y="577" on="1"/>
        <pt x="447" y="628" on="0"/>
        <pt x="364" y="628" on="1"/>
        <pt x="270" y="628" on="0"/>
        <pt x="153" y="493" on="0"/>
        <pt x="153" y="345" on="1"/>
        <pt x="153" y="199" on="0"/>
        <pt x="268" y="62" on="0"/>
        <pt x="363" y="62" on="1"/>
        <pt x="415" y="62" on="0"/>
        <pt x="490" y="93" on="0"/>
        <pt x="523" y="120" on="1"/>
        <pt x="567" y="63" on="1"/>
        <pt x="533" y="30" on="0"/>
        <pt x="431" y="-11" on="0"/>
        <pt x="362" y="-11" on="1"/>
        <pt x="277" y="-11" on="0"/>
        <pt x="142" y="72" on="0"/>
        <pt x="64" y="232" on="0"/>
        <pt x="64" y="345" on="1"/>
        <pt x="64" y="457" on="0"/>
        <pt x="143" y="618" on="0"/>
        <pt x="277" y="700" on="0"/>
        <pt x="358" y="700" on="1"/>
      </contour>
    </TTGlyph>
    <TTGlyph name="Cacute" xMin="64" yMin="-11" xMax="567" yMax="905">
      <component glyphName="C" x="0" y="0" flags="0x0"/>
      <component glyphName="acute.case" x="68" y="0" flags="0x0"/>
    </TTGlyph>
    <TTGlyph name="Cacute.loclPLK" xMin="64" yMin="-11" xMax="567" yMax="914">
      <component glyphName="C" x="0" y="0" flags="0x0"/>
      <component glyphName="acute.case.loclPLK" x="100" y="0" flags="0x0"/>
    </TTGlyph>
    <TTGlyph name="Ccaron" xMin="64" yMin="-11" xMax="567" yMax="904">
      <component glyphName="C" x="0" y="0" flags="0x0"/>
      <component glyphName="caron.case" x="66" y="0" flags="0x0"/>
    </TTGlyph>
    <TTGlyph name="Ccedilla" xMin="64" yMin="-238" xMax="567" yMax="700">
      <contour>
        <pt x="416" y="-61" on="0"/>
        <pt x="462" y="-108" on="0"/>
        <pt x="462" y="-140" on="1"/>
        <pt x="462" y="-187" on="0"/>
        <pt x="392" y="-238" on="0"/>
        <pt x="341" y="-238" on="1"/>
        <pt x="311" y="-238" on="0"/>
        <pt x="256" y="-225" on="0"/>
        <pt x="236" y="-214" on="1"/>
        <pt x="263" y="-166" on="1"/>
        <pt x="277" y="-173" on="0"/>
        <pt x="314" y="-182" on="0"/>
        <pt x="331" y="-182" on="1"/>
        <pt x="359" y="-182" on="0"/>
        <pt x="391" y="-162" on="0"/>
        <pt x="391" y="-140" on="1"/>
        <pt x="391" y="-115" on="0"/>
        <pt x="348" y="-97" on="0"/>
        <pt x="304" y="-97" on="1"/>
        <pt x="311" y="-7" on="1"/>
        <pt x="238" y="5" on="0"/>
        <pt x="127" y="93" on="0"/>
        <pt x="64" y="244" on="0"/>
        <pt x="64" y="345" on="1"/>
        <pt x="64" y="457" on="0"/>
        <pt x="143" y="618" on="0"/>
        <pt x="277" y="700" on="0"/>
        <pt x="358" y="700" on="1"/>
        <pt x="423" y="700" on="0"/>
        <pt x="514" y="667" on="0"/>
        <pt x="557" y="633" on="1"/>
        <pt x="509" y="577" on="1"/>
        <pt x="447" y="628" on="0"/>
        <pt x="364" y="628" on="1"/>
        <pt x="270" y="628" on="0"/>
        <pt x="153" y="493" on="0"/>
        <pt x="153" y="345" on="1"/>
        <pt x="153" y="199" on="0"/>
        <pt x="268" y="62" on="0"/>
        <pt x="363" y="62" on="1"/>
        <pt x="415" y="62" on="0"/>
        <pt x="490" y="93" on="0"/>
        <pt x="523" y="120" on="1"/>
        <pt x="567" y="63" on="1"/>
        <pt x="494" y="-8" on="0"/>
        <pt x="370" y="-11" on="1"/>
        <pt x="370" y="-57" on="1"/>
      </contour>
    </TTGlyph>
    <TTGlyph name="Ccircumflex" xMin="64" yMin="-11" xMax="567" yMax="910">
      <component glyphName="C" x="0" y="0" flags="0x0"/>
      <component glyphName="circumflex.case" x="66" y="0" flags="0x0"/>
    </TTGlyph>
    <TTGlyph name="Cdotaccent" xMin="64" yMin="-11" xMax="567" yMax="892">
      <component glyphName="C" x="0" y="0" flags="0x0"/>
      <component glyphName="dotaccent.case" x="66" y="0" flags="0x0"/>
    </TTGlyph>
    <TTGlyph name="Chi" xMin="31" yMin="0" xMax="569" yMax="688">
      <component glyphName="X" x="0" y="0" flags="0x0"/>
    </TTGlyph>
    <TTGlyph name="D" xMin="84" yMin="0" xMax="552" yMax="688">
      <contour>
        <pt x="552" y="152" on="0"/>
        <pt x="373" y="0" on="0"/>
        <pt x="241" y="0" on="1"/>
        <pt x="84" y="0" on="1"/>
        <pt x="84" y="688" on="1"/>
        <pt x="230" y="688" on="1"/>
        <pt x="374" y="688" on="0"/>
        <pt x="552" y="543" on="0"/>
        <pt x="552" y="348" on="1"/>
      </contour>
      <contour>
        <pt x="461" y="460" on="0"/>
        <pt x="400" y="579" on="0"/>
        <pt x="309" y="618" on="0"/>
        <pt x="251" y="618" on="1"/>
        <pt x="169" y="618" on="1"/>
        <pt x="169" y="69" on="1"/>
        <pt x="252" y="69" on="1"/>
        <pt x="342" y="69" on="0"/>
        <pt x="461" y="192" on="0"/>
        <pt x="461" y="348" on="1"/>
      </contour>
    </TTGlyph>
    <TTGlyph name="Dcaron" xMin="84" yMin="0" xMax="552" yMax="904">
      <component glyphName="D" x="0" y="0" flags="0x0"/>
      <component glyphName="caron.case" x="-16" y="0" flags="0x0"/>
    </TTGlyph>
    <TTGlyph name="Dcroat" xMin="20" yMin="0" xMax="562" yMax="688">
      <component glyphName="Eth" x="0" y="0" flags="0x0"/>
    </TTGlyph>
    <TTGlyph name="Delta" xMin="21" yMin="0" xMax="579" yMax="688">
      <contour>
        <pt x="21" y="0" on="1"/>
        <pt x="245" y="688" on="1"/>
        <pt x="355" y="688" on="1"/>
        <pt x="579" y="0" on="1"/>
      </contour>
      <contour>
        <pt x="466" y="70" on="1"/>
        <pt x="298" y="614" on="1"/>
        <pt x="128" y="70" on="1"/>
      </contour>
    </TTGlyph>
    <TTGlyph name="E" xMin="126" yMin="0" xMax="525" yMax="688">
      <contour>
        <pt x="467" y="385" on="1"/>
        <pt x="467" y="314" on="1"/>
        <pt x="212" y="314" on="1"/>
        <pt x="212" y="69" on="1"/>
        <pt x="525" y="69" on="1"/>
        <pt x="525" y="0" on="1"/>
        <pt x="126" y="0" on="1"/>
        <pt x="126" y="688" on="1"/>
        <pt x="516" y="688" on="1"/>
        <pt x="506" y="618" on="1"/>
        <pt x="212" y="618" on="1"/>
        <pt x="212" y="385" on="1"/>
      </contour>
    </TTGlyph>
    <TTGlyph name="Eacute" xMin="126" yMin="0" xMax="525" yMax="905">
      <component glyphName="E" x="0" y="0" flags="0x0"/>
      <component glyphName="acute.case" x="24" y="0" flags="0x0"/>
    </TTGlyph>
    <TTGlyph name="Ebreve" xMin="126" yMin="0" xMax="525" yMax="890">
      <component glyphName="E" x="0" y="0" flags="0x0"/>
      <component glyphName="breve.case" x="19" y="0" flags="0x0"/>
    </TTGlyph>
    <TTGlyph name="Ecaron" xMin="126" yMin="0" xMax="525" yMax="904">
      <component glyphName="E" x="0" y="0" flags="0x0"/>
      <component glyphName="caron.case" x="21" y="0" flags="0x0"/>
    </TTGlyph>
    <TTGlyph name="Ecircumflex" xMin="126" yMin="0" xMax="525" yMax="910">
      <component glyphName="E" x="0" y="0" flags="0x0"/>
      <component glyphName="circumflex.case" x="21" y="0" flags="0x0"/>
    </TTGlyph>
    <TTGlyph name="Edieresis" xMin="126" yMin="0" xMax="525" yMax="874">
      <component glyphName="E" x="0" y="0" flags="0x0"/>
      <component glyphName="dieresis.case" x="22" y="0" flags="0x0"/>
    </TTGlyph>
    <TTGlyph name="Edotaccent" xMin="126" yMin="0" xMax="525" yMax="892">
      <component glyphName="E" x="0" y="0" flags="0x0"/>
      <component glyphName="dotaccent.case" x="22" y="0" flags="0x0"/>
    </TTGlyph>
    <TTGlyph name="Egrave" xMin="126" yMin="0" xMax="525" yMax="909">
      <component glyphName="E" x="0" y="0" flags="0x0"/>
      <component glyphName="grave.case" x="22" y="0" flags="0x0"/>
    </TTGlyph>
    <TTGlyph name="Emacron" xMin="126" yMin="0" xMax="525" yMax="859">
      <component glyphName="E" x="0" y="0" flags="0x0"/>
      <component glyphName="macron.case" x="22" y="0" flags="0x0"/>
    </TTGlyph>
    <TTGlyph name="Eng" xMin="84" yMin="-212" xMax="516" yMax="688">
      <contour>
        <pt x="516" y="-83" on="0"/>
        <pt x="428" y="-182" on="0"/>
        <pt x="343" y="-212" on="1"/>
        <pt x="320" y="-144" on="1"/>
        <pt x="386" y="-119" on="0"/>
        <pt x="432" y="-55" on="0"/>
        <pt x="431" y="0" on="1"/>
        <pt x="396" y="0" on="1"/>
        <pt x="156" y="589" on="1"/>
        <pt x="152" y="589" on="1"/>
        <pt x="164" y="433" on="0"/>
        <pt x="164" y="346" on="1"/>
        <pt x="164" y="0" on="1"/>
        <pt x="84" y="0" on="1"/>
        <pt x="84" y="688" on="1"/>
        <pt x="200" y="688" on="1"/>
        <pt x="444" y="96" on="1"/>
        <pt x="448" y="96" on="1"/>
        <pt x="436" y="240" on="0"/>
        <pt x="436" y="343" on="1"/>
        <pt x="436" y="688" on="1"/>
        <pt x="516" y="688" on="1"/>
        <pt x="516" y="-6" on="1"/>
      </contour>
    </TTGlyph>
    <TTGlyph name="Eogonek" xMin="126" yMin="-229" xMax="525" yMax="688">
      <contour>
        <pt x="525" y="0" on="1"/>
        <pt x="468" y="0" on="1"/>
        <pt x="396" y="-32" on="0"/>
        <pt x="344" y="-85" on="0"/>
        <pt x="344" y="-115" on="1"/>
        <pt x="344" y="-138" on="0"/>
        <pt x="370" y="-162" on="0"/>
        <pt x="399" y="-162" on="1"/>
        <pt x="432" y="-162" on="0"/>
        <pt x="461" y="-155" on="1"/>
        <pt x="453" y="-222" on="1"/>
        <pt x="418" y="-229" on="0"/>
        <pt x="389" y="-229" on="1"/>
        <pt x="333" y="-229" on="0"/>
        <pt x="268" y="-173" on="0"/>
        <pt x="268" y="-131" on="1"/>
        <pt x="268" y="-49" on="0"/>
        <pt x="373" y="0" on="1"/>
        <pt x="126" y="0" on="1"/>
        <pt x="126" y="688" on="1"/>
        <pt x="516" y="688" on="1"/>
        <pt x="506" y="618" on="1"/>
        <pt x="212" y="618" on="1"/>
        <pt x="212" y="385" on="1"/>
        <pt x="467" y="385" on="1"/>
        <pt x="467" y="314" on="1"/>
        <pt x="212" y="314" on="1"/>
        <pt x="212" y="69" on="1"/>
        <pt x="525" y="69" on="1"/>
      </contour>
    </TTGlyph>
    <TTGlyph name="Epsilon" xMin="126" yMin="0" xMax="525" yMax="688">
      <contour>
        <pt x="467" y="385" on="1"/>
        <pt x="467" y="314" on="1"/>
        <pt x="212" y="314" on="1"/>
        <pt x="212" y="69" on="1"/>
        <pt x="525" y="69" on="1"/>
        <pt x="525" y="0" on="1"/>
        <pt x="126" y="0" on="1"/>
        <pt x="126" y="688" on="1"/>
        <pt x="516" y="688" on="1"/>
        <pt x="506" y="618" on="1"/>
        <pt x="212" y="618" on="1"/>
        <pt x="212" y="385" on="1"/>
      </contour>
    </TTGlyph>
    <TTGlyph name="Epsilontonos" xMin="-31" yMin="0" xMax="525" yMax="703">
      <component glyphName="E" x="0" y="0" flags="0x0"/>
      <component glyphName="tonos.case" x="-262" y="0" flags="0x0"/>
    </TTGlyph>
    <TTGlyph name="Eta" xMin="84" yMin="0" xMax="516" yMax="688">
      <contour>
        <pt x="169" y="328" on="1"/>
        <pt x="169" y="0" on="1"/>
        <pt x="84" y="0" on="1"/>
        <pt x="84" y="688" on="1"/>
        <pt x="169" y="688" on="1"/>
        <pt x="169" y="397" on="1"/>
        <pt x="431" y="397" on="1"/>
        <pt x="431" y="688" on="1"/>
        <pt x="516" y="688" on="1"/>
        <pt x="516" y="0" on="1"/>
        <pt x="431" y="0" on="1"/>
        <pt x="431" y="328" on="1"/>
      </contour>
    </TTGlyph>
    <TTGlyph name="Etatonos" xMin="-86" yMin="0" xMax="516" yMax="703">
      <component glyphName="H" x="0" y="0" flags="0x0"/>
      <component glyphName="tonos.case" x="-317" y="0" flags="0x0"/>
    </TTGlyph>
    <TTGlyph name="Eth" xMin="20" yMin="0" xMax="562" yMax="688">
      <contour>
        <pt x="384" y="688" on="0"/>
        <pt x="562" y="543" on="0"/>
        <pt x="562" y="348" on="1"/>
        <pt x="562" y="152" on="0"/>
        <pt x="382" y="0" on="0"/>
        <pt x="251" y="0" on="1"/>
        <pt x="93" y="0" on="1"/>
        <pt x="93" y="320" on="1"/>
        <pt x="20" y="320" on="1"/>
        <pt x="20" y="386" on="1"/>
        <pt x="93" y="386" on="1"/>
        <pt x="93" y="688" on="1"/>
        <pt x="240" y="688" on="1"/>
      </contour>
      <contour>
        <pt x="351" y="69" on="0"/>
        <pt x="470" y="192" on="0"/>
        <pt x="470" y="348" on="1"/>
        <pt x="470" y="460" on="0"/>
        <pt x="409" y="579" on="0"/>
        <pt x="319" y="618" on="0"/>
        <pt x="261" y="618" on="1"/>
        <pt x="179" y="618" on="1"/>
        <pt x="179" y="386" on="1"/>
        <pt x="338" y="386" on="1"/>
        <pt x="338" y="320" on="1"/>
        <pt x="179" y="320" on="1"/>
        <pt x="179" y="69" on="1"/>
        <pt x="262" y="69" on="1"/>
      </contour>
    </TTGlyph>
    <TTGlyph name="Euro" xMin="35" yMin="-11" xMax="540" yMax="700">
      <contour>
        <pt x="430" y="700" on="0"/>
        <pt x="505" y="677" on="0"/>
        <pt x="540" y="654" on="1"/>
        <pt x="498" y="594" on="1"/>
        <pt x="446" y="628" on="0"/>
        <pt x="384" y="628" on="1"/>
        <pt x="316" y="628" on="0"/>
        <pt x="232" y="544" on="0"/>
        <pt x="218" y="452" on="1"/>
        <pt x="464" y="452" on="1"/>
        <pt x="450" y="394" on="1"/>
        <pt x="212" y="394" on="1"/>
        <pt x="212" y="302" on="1"/>
        <pt x="430" y="302" on="1"/>
        <pt x="416" y="243" on="1"/>
        <pt x="215" y="243" on="1"/>
        <pt x="227" y="148" on="0"/>
        <pt x="306" y="60" on="0"/>
        <pt x="379" y="60" on="1"/>
        <pt x="422" y="60" on="0"/>
        <pt x="495" y="89" on="0"/>
        <pt x="520" y="111" on="1"/>
        <pt x="520" y="25" on="1"/>
        <pt x="461" y="-11" on="0"/>
        <pt x="376" y="-11" on="1"/>
        <pt x="272" y="-11" on="0"/>
        <pt x="146" y="119" on="0"/>
        <pt x="129" y="243" on="1"/>
        <pt x="35" y="243" on="1"/>
        <pt x="50" y="302" on="1"/>
        <pt x="122" y="302" on="1"/>
        <pt x="123" y="394" on="1"/>
        <pt x="35" y="394" on="1"/>
        <pt x="49" y="452" on="1"/>
        <pt x="131" y="452" on="1"/>
        <pt x="152" y="570" on="0"/>
        <pt x="287" y="700" on="0"/>
        <pt x="381" y="700" on="1"/>
      </contour>
    </TTGlyph>
    <TTGlyph name="Euro.tosf" xMin="35" yMin="-11" xMax="540" yMax="700">
      <component glyphName="Euro" x="0" y="0" flags="0x0"/>
    </TTGlyph>
    <TTGlyph name="F" xMin="139" yMin="0" xMax="544" yMax="688">
      <contour>
        <pt x="494" y="376" on="1"/>
        <pt x="494" y="307" on="1"/>
        <pt x="224" y="307" on="1"/>
        <pt x="224" y="0" on="1"/>
        <pt x="139" y="0" on="1"/>
        <pt x="139" y="688" on="1"/>
        <pt x="544" y="688" on="1"/>
        <pt x="533" y="618" on="1"/>
        <pt x="224" y="618" on="1"/>
        <pt x="224" y="376" on="1"/>
      </contour>
    </TTGlyph>
    <TTGlyph name="G" xMin="46" yMin="-11" xMax="538" yMax="700">
      <contour>
        <pt x="189" y="-11" on="0"/>
        <pt x="46" y="170" on="0"/>
        <pt x="46" y="345" on="1"/>
        <pt x="46" y="459" on="0"/>
        <pt x="126" y="619" on="0"/>
        <pt x="258" y="700" on="0"/>
        <pt x="334" y="700" on="1"/>
        <pt x="398" y="700" on="0"/>
        <pt x="487" y="663" on="0"/>
        <pt x="530" y="624" on="1"/>
        <pt x="478" y="570" on="1"/>
        <pt x="446" y="599" on="0"/>
        <pt x="377" y="627" on="0"/>
        <pt x="334" y="627" on="1"/>
        <pt x="249" y="627" on="0"/>
        <pt x="137" y="492" on="0"/>
        <pt x="137" y="345" on="1"/>
        <pt x="137" y="197" on="0"/>
        <pt x="229" y="61" on="0"/>
        <pt x="321" y="61" on="1"/>
        <pt x="393" y="61" on="0"/>
        <pt x="453" y="94" on="1"/>
        <pt x="453" y="305" on="1"/>
        <pt x="317" y="305" on="1"/>
        <pt x="307" y="376" on="1"/>
        <pt x="538" y="376" on="1"/>
        <pt x="538" y="48" on="1"/>
        <pt x="484" y="19" on="0"/>
        <pt x="381" y="-11" on="0"/>
        <pt x="314" y="-11" on="1"/>
      </contour>
    </TTGlyph>
    <TTGlyph name="Gamma" xMin="137" yMin="0" xMax="544" yMax="688">
      <component glyphName="uni0413" x="0" y="0" flags="0x0"/>
    </TTGlyph>
    <TTGlyph name="Gbreve" xMin="46" yMin="-11" xMax="538" yMax="890">
      <component glyphName="G" x="0" y="0" flags="0x0"/>
      <component glyphName="breve.case" x="29" y="0" flags="0x0"/>
    </TTGlyph>
    <TTGlyph name="Gcircumflex" xMin="46" yMin="-11" xMax="538" yMax="910">
      <component glyphName="G" x="0" y="0" flags="0x0"/>
      <component glyphName="circumflex.case" x="30" y="0" flags="0x0"/>
    </TTGlyph>
    <TTGlyph name="Gcommaaccent" xMin="46" yMin="-286" xMax="538" yMax="700">
      <component glyphName="G" x="0" y="0" flags="0x0"/>
      <component glyphName="uni0326" x="31" y="0" flags="0x0"/>
    </TTGlyph>
    <TTGlyph name="Gdotaccent" xMin="46" yMin="-11" xMax="538" yMax="892">
      <component glyphName="G" x="0" y="0" flags="0x0"/>
      <component glyphName="dotaccent.case" x="31" y="0" flags="0x0"/>
    </TTGlyph>
    <TTGlyph name="H" xMin="84" yMin="0" xMax="516" yMax="688">
      <contour>
        <pt x="169" y="328" on="1"/>
        <pt x="169" y="0" on="1"/>
        <pt x="84" y="0" on="1"/>
        <pt x="84" y="688" on="1"/>
        <pt x="169" y="688" on="1"/>
        <pt x="169" y="397" on="1"/>
        <pt x="431" y="397" on="1"/>
        <pt x="431" y="688" on="1"/>
        <pt x="516" y="688" on="1"/>
        <pt x="516" y="0" on="1"/>
        <pt x="431" y="0" on="1"/>
        <pt x="431" y="328" on="1"/>
      </contour>
    </TTGlyph>
    <TTGlyph name="H18543" xMin="142" yMin="0" xMax="427" yMax="270">
      <contour>
        <pt x="142" y="0" on="1"/>
        <pt x="142" y="270" on="1"/>
        <pt x="427" y="270" on="1"/>
        <pt x="427" y="0" on="1"/>
      </contour>
    </TTGlyph>
    <TTGlyph name="H18551" xMin="142" yMin="0" xMax="427" yMax="270">
      <contour>
        <pt x="142" y="0" on="1"/>
        <pt x="142" y="270" on="1"/>
        <pt x="427" y="270" on="1"/>
        <pt x="427" y="0" on="1"/>
      </contour>
      <contour>
        <pt x="222" y="80" on="1"/>
        <pt x="347" y="80" on="1"/>
        <pt x="347" y="190" on="1"/>
        <pt x="222" y="190" on="1"/>
      </contour>
    </TTGlyph>
    <TTGlyph name="H22073" xMin="30" yMin="0" xMax="570" yMax="540">
      <contour>
        <pt x="30" y="0" on="1"/>
        <pt x="30" y="540" on="1"/>
        <pt x="570" y="540" on="1"/>
        <pt x="570" y="0" on="1"/>
      </contour>
      <contour>
        <pt x="110" y="80" on="1"/>
        <pt x="490" y="80" on="1"/>
        <pt x="490" y="460" on="1"/>
        <pt x="110" y="460" on="1"/>
      </contour>
    </TTGlyph>
    <TTGlyph name="Hbar" xMin="2" yMin="0" xMax="598" yMax="688">
      <contour>
        <pt x="517" y="509" on="1"/>
        <pt x="517" y="0" on="1"/>
        <pt x="431" y="0" on="1"/>
        <pt x="431" y="327" on="1"/>
        <pt x="169" y="327" on="1"/>
        <pt x="169" y="0" on="1"/>
        <pt x="83" y="0" on="1"/>
        <pt x="83" y="509" on="1"/>
        <pt x="2" y="509" on="1"/>
        <pt x="2" y="575" on="1"/>
        <pt x="83" y="575" on="1"/>
        <pt x="83" y="688" on="1"/>
        <pt x="169" y="688" on="1"/>
        <pt x="169" y="575" on="1"/>
        <pt x="431" y="575" on="1"/>
        <pt x="431" y="688" on="1"/>
        <pt x="517" y="688" on="1"/>
        <pt x="517" y="575" on="1"/>
        <pt x="598" y="575" on="1"/>
        <pt x="598" y="509" on="1"/>
      </contour>
      <contour>
        <pt x="169" y="509" on="1"/>
        <pt x="169" y="398" on="1"/>
        <pt x="431" y="398" on="1"/>
        <pt x="431" y="509" on="1"/>
      </contour>
    </TTGlyph>
    <TTGlyph name="Hcircumflex" xMin="84" yMin="0" xMax="516" yMax="910">
      <component glyphName="H" x="0" y="0" flags="0x0"/>
      <component glyphName="circumflex.case" x="0" y="0" flags="0x0"/>
    </TTGlyph>
    <TTGlyph name="I" xMin="103" yMin="0" xMax="497" yMax="688">
      <contour>
        <pt x="343" y="620" on="1"/>
        <pt x="343" y="69" on="1"/>
        <pt x="497" y="69" on="1"/>
        <pt x="497" y="0" on="1"/>
        <pt x="103" y="0" on="1"/>
        <pt x="103" y="69" on="1"/>
        <pt x="257" y="69" on="1"/>
        <pt x="257" y="620" on="1"/>
        <pt x="103" y="620" on="1"/>
        <pt x="103" y="688" on="1"/>
        <pt x="497" y="688" on="1"/>
        <pt x="497" y="620" on="1"/>
      </contour>
    </TTGlyph>
    <TTGlyph name="IJ" xMin="11" yMin="-135" xMax="532" yMax="688">
      <contour>
        <pt x="293" y="-61" on="0"/>
        <pt x="403" y="6" on="0"/>
        <pt x="446" y="114" on="0"/>
        <pt x="446" y="194" on="1"/>
        <pt x="446" y="617" on="1"/>
        <pt x="200" y="617" on="1"/>
        <pt x="200" y="71" on="1"/>
        <pt x="280" y="71" on="1"/>
        <pt x="280" y="0" on="1"/>
        <pt x="11" y="0" on="1"/>
        <pt x="11" y="71" on="1"/>
        <pt x="112" y="71" on="1"/>
        <pt x="112" y="617" on="1"/>
        <pt x="11" y="617" on="1"/>
        <pt x="11" y="688" on="1"/>
        <pt x="532" y="688" on="1"/>
        <pt x="532" y="188" on="1"/>
        <pt x="532" y="54" on="0"/>
        <pt x="389" y="-119" on="0"/>
        <pt x="205" y="-135" on="1"/>
        <pt x="195" y="-71" on="1"/>
      </contour>
    </TTGlyph>
    <TTGlyph name="Iacute" xMin="103" yMin="0" xMax="497" yMax="905">
      <component glyphName="I" x="0" y="0" flags="0x0"/>
      <component glyphName="acute.case" x="3" y="0" flags="0x0"/>
    </TTGlyph>
    <TTGlyph name="Ibreve" xMin="103" yMin="0" xMax="497" yMax="890">
      <component glyphName="I" x="0" y="0" flags="0x0"/>
      <component glyphName="breve.case" x="-1" y="0" flags="0x0"/>
    </TTGlyph>
    <TTGlyph name="Icircumflex" xMin="103" yMin="0" xMax="497" yMax="910">
      <component glyphName="I" x="0" y="0" flags="0x0"/>
      <component glyphName="circumflex.case" x="0" y="0" flags="0x0"/>
    </TTGlyph>
    <TTGlyph name="Idieresis" xMin="103" yMin="0" xMax="497" yMax="874">
      <component glyphName="I" x="0" y="0" flags="0x0"/>
      <component glyphName="dieresis.case" x="1" y="0" flags="0x0"/>
    </TTGlyph>
    <TTGlyph name="Idotaccent" xMin="103" yMin="0" xMax="497" yMax="892">
      <component glyphName="I" x="0" y="0" flags="0x0"/>
      <component glyphName="dotaccent.case" x="1" y="0" flags="0x0"/>
    </TTGlyph>
    <TTGlyph name="Igrave" xMin="103" yMin="0" xMax="497" yMax="909">
      <component glyphName="I" x="0" y="0" flags="0x0"/>
      <component glyphName="grave.case" x="1" y="0" flags="0x0"/>
    </TTGlyph>
    <TTGlyph name="Imacron" xMin="103" yMin="0" xMax="497" yMax="859">
      <component glyphName="I" x="0" y="0" flags="0x0"/>
      <component glyphName="macron.case" x="1" y="0" flags="0x0"/>
    </TTGlyph>
    <TTGlyph name="Iogonek" xMin="103" yMin="-229" xMax="497" yMax="688">
      <contour>
        <pt x="343" y="69" on="1"/>
        <pt x="497" y="69" on="1"/>
        <pt x="497" y="0" on="1"/>
        <pt x="344" y="0" on="1"/>
        <pt x="272" y="-32" on="0"/>
        <pt x="220" y="-85" on="0"/>
        <pt x="220" y="-115" on="1"/>
        <pt x="220" y="-138" on="0"/>
        <pt x="246" y="-162" on="0"/>
        <pt x="275" y="-162" on="1"/>
        <pt x="308" y="-162" on="0"/>
        <pt x="337" y="-155" on="1"/>
        <pt x="329" y="-222" on="1"/>
        <pt x="294" y="-229" on="0"/>
        <pt x="265" y="-229" on="1"/>
        <pt x="209" y="-229" on="0"/>
        <pt x="144" y="-173" on="0"/>
        <pt x="144" y="-131" on="1"/>
        <pt x="144" y="-49" on="0"/>
        <pt x="249" y="0" on="1"/>
        <pt x="103" y="0" on="1"/>
        <pt x="103" y="69" on="1"/>
        <pt x="257" y="69" on="1"/>
        <pt x="257" y="620" on="1"/>
        <pt x="103" y="620" on="1"/>
        <pt x="103" y="688" on="1"/>
        <pt x="497" y="688" on="1"/>
        <pt x="497" y="620" on="1"/>
        <pt x="343" y="620" on="1"/>
      </contour>
    </TTGlyph>
    <TTGlyph name="Iota" xMin="103" yMin="0" xMax="497" yMax="688">
      <contour>
        <pt x="343" y="620" on="1"/>
        <pt x="343" y="69" on="1"/>
        <pt x="497" y="69" on="1"/>
        <pt x="497" y="0" on="1"/>
        <pt x="103" y="0" on="1"/>
        <pt x="103" y="69" on="1"/>
        <pt x="257" y="69" on="1"/>
        <pt x="257" y="620" on="1"/>
        <pt x="103" y="620" on="1"/>
        <pt x="103" y="688" on="1"/>
        <pt x="497" y="688" on="1"/>
        <pt x="497" y="620" on="1"/>
      </contour>
    </TTGlyph>
    <TTGlyph name="Iotadieresis" xMin="103" yMin="0" xMax="497" yMax="874">
      <component glyphName="I" x="0" y="0" flags="0x0"/>
      <component glyphName="dieresis.case" x="1" y="0" flags="0x0"/>
    </TTGlyph>
    <TTGlyph name="Iotatonos" xMin="-57" yMin="0" xMax="497" yMax="703">
      <component glyphName="I" x="0" y="0" flags="0x0"/>
      <component glyphName="tonos.case" x="-288" y="0" flags="0x0"/>
    </TTGlyph>
    <TTGlyph name="Itilde" xMin="103" yMin="0" xMax="497" yMax="884">
      <component glyphName="I" x="0" y="0" flags="0x0"/>
      <component glyphName="tilde.case" x="1" y="0" flags="0x0"/>
    </TTGlyph>
    <TTGlyph name="J" xMin="73" yMin="-12" xMax="496" yMax="688">
      <contour>
        <pt x="496" y="128" on="0"/>
        <pt x="386" y="-12" on="0"/>
        <pt x="262" y="-12" on="1"/>
        <pt x="211" y="-12" on="0"/>
        <pt x="113" y="20" on="0"/>
        <pt x="73" y="51" on="1"/>
        <pt x="111" y="108" on="1"/>
        <pt x="187" y="60" on="0"/>
        <pt x="261" y="60" on="1"/>
        <pt x="332" y="60" on="0"/>
        <pt x="411" y="152" on="0"/>
        <pt x="411" y="233" on="1"/>
        <pt x="411" y="618" on="1"/>
        <pt x="207" y="618" on="1"/>
        <pt x="207" y="688" on="1"/>
        <pt x="496" y="688" on="1"/>
        <pt x="496" y="228" on="1"/>
      </contour>
    </TTGlyph>
    <TTGlyph name="Jcircumflex" xMin="73" yMin="-12" xMax="513" yMax="910">
      <component glyphName="J" x="0" y="0" flags="0x0"/>
      <component glyphName="circumflex.case" x="50" y="0" flags="0x0"/>
    </TTGlyph>
    <TTGlyph name="K" xMin="106" yMin="0" xMax="586" yMax="688">
      <contour>
        <pt x="106" y="688" on="1"/>
        <pt x="191" y="688" on="1"/>
        <pt x="191" y="0" on="1"/>
        <pt x="106" y="0" on="1"/>
      </contour>
      <contour>
        <pt x="567" y="688" on="1"/>
        <pt x="297" y="373" on="1"/>
        <pt x="586" y="0" on="1"/>
        <pt x="479" y="0" on="1"/>
        <pt x="196" y="368" on="1"/>
        <pt x="468" y="688" on="1"/>
      </contour>
    </TTGlyph>
    <TTGlyph name="Kappa" xMin="106" yMin="0" xMax="586" yMax="688">
      <component glyphName="K" x="0" y="0" flags="0x0"/>
    </TTGlyph>
    <TTGlyph name="Kcommaaccent" xMin="106" yMin="-286" xMax="586" yMax="688">
      <component glyphName="K" x="0" y="0" flags="0x0"/>
      <component glyphName="uni0326.case" x="23" y="0" flags="0x0"/>
    </TTGlyph>
    <TTGlyph name="L" xMin="136" yMin="0" xMax="536" yMax="688">
      <contour>
        <pt x="222" y="688" on="1"/>
        <pt x="222" y="77" on="1"/>
        <pt x="536" y="77" on="1"/>
        <pt x="526" y="0" on="1"/>
        <pt x="136" y="0" on="1"/>
        <pt x="136" y="688" on="1"/>
      </contour>
    </TTGlyph>
    <TTGlyph name="Lacute" xMin="64" yMin="0" xMax="536" yMax="905">
      <component glyphName="L" x="0" y="0" flags="0x0"/>
      <component glyphName="acute.case" x="-118" y="0" flags="0x0"/>
    </TTGlyph>
    <TTGlyph name="Lambda" xMin="25" yMin="0" xMax="574" yMax="688">
      <contour>
        <pt x="484" y="0" on="1"/>
        <pt x="298" y="609" on="1"/>
        <pt x="110" y="0" on="1"/>
        <pt x="25" y="0" on="1"/>
        <pt x="245" y="688" on="1"/>
        <pt x="355" y="688" on="1"/>
        <pt x="574" y="0" on="1"/>
      </contour>
    </TTGlyph>
    <TTGlyph name="Lcaron" xMin="136" yMin="0" xMax="536" yMax="696">
      <component glyphName="L" x="0" y="0" flags="0x0"/>
      <component glyphName="caron.alt" x="28" y="-1" flags="0x0"/>
    </TTGlyph>
    <TTGlyph name="Lcommaaccent" xMin="136" yMin="-286" xMax="536" yMax="688">
      <component glyphName="L" x="0" y="0" flags="0x0"/>
      <component glyphName="uni0326.case" x="32" y="0" flags="0x0"/>
    </TTGlyph>
    <TTGlyph name="Ldot" xMin="136" yMin="0" xMax="536" yMax="688">
      <component glyphName="L" x="0" y="0" flags="0x0"/>
      <component glyphName="dotaccent" x="173" y="-336" flags="0x0"/>
    </TTGlyph>
    <TTGlyph name="Lslash" xMin="41" yMin="0" xMax="534" yMax="688">
      <contour>
        <pt x="524" y="0" on="1"/>
        <pt x="134" y="0" on="1"/>
        <pt x="134" y="268" on="1"/>
        <pt x="77" y="233" on="1"/>
        <pt x="41" y="289" on="1"/>
        <pt x="134" y="346" on="1"/>
        <pt x="134" y="688" on="1"/>
        <pt x="220" y="688" on="1"/>
        <pt x="220" y="399" on="1"/>
        <pt x="385" y="502" on="1"/>
        <pt x="422" y="447" on="1"/>
        <pt x="220" y="322" on="1"/>
        <pt x="220" y="77" on="1"/>
        <pt x="534" y="77" on="1"/>
      </contour>
    </TTGlyph>
    <TTGlyph name="M" xMin="31" yMin="0" xMax="569" yMax="688">
      <contour>
        <pt x="487" y="0" on="1"/>
        <pt x="465" y="361" on="1"/>
        <pt x="459" y="475" on="0"/>
        <pt x="459" y="590" on="1"/>
        <pt x="457" y="590" on="1"/>
        <pt x="343" y="124" on="1"/>
        <pt x="256" y="124" on="1"/>
        <pt x="138" y="590" on="1"/>
        <pt x="134" y="590" on="1"/>
        <pt x="134" y="447" on="0"/>
        <pt x="130" y="361" on="1"/>
        <pt x="111" y="0" on="1"/>
        <pt x="31" y="0" on="1"/>
        <pt x="70" y="688" on="1"/>
        <pt x="190" y="688" on="1"/>
        <pt x="302" y="217" on="1"/>
        <pt x="409" y="688" on="1"/>
        <pt x="530" y="688" on="1"/>
        <pt x="569" y="0" on="1"/>
      </contour>
    </TTGlyph>
    <TTGlyph name="Mu" xMin="31" yMin="0" xMax="569" yMax="688">
      <component glyphName="M" x="0" y="0" flags="0x0"/>
    </TTGlyph>
    <TTGlyph name="N" xMin="84" yMin="0" xMax="516" yMax="688">
      <contour>
        <pt x="152" y="589" on="1"/>
        <pt x="164" y="433" on="0"/>
        <pt x="164" y="346" on="1"/>
        <pt x="164" y="0" on="1"/>
        <pt x="84" y="0" on="1"/>
        <pt x="84" y="688" on="1"/>
        <pt x="200" y="688" on="1"/>
        <pt x="444" y="96" on="1"/>
        <pt x="448" y="96" on="1"/>
        <pt x="436" y="240" on="0"/>
        <pt x="436" y="343" on="1"/>
        <pt x="436" y="688" on="1"/>
        <pt x="516" y="688" on="1"/>
        <pt x="516" y="0" on="1"/>
        <pt x="396" y="0" on="1"/>
        <pt x="156" y="589" on="1"/>
      </contour>
    </TTGlyph>
    <TTGlyph name="Nacute" xMin="84" yMin="0" xMax="516" yMax="905">
      <component glyphName="N" x="0" y="0" flags="0x0"/>
      <component glyphName="acute.case" x="2" y="0" flags="0x0"/>
    </TTGlyph>
    <TTGlyph name="Nacute.loclPLK" xMin="84" yMin="0" xMax="516" yMax="914">
      <component glyphName="N" x="0" y="0" flags="0x0"/>
      <component glyphName="acute.case.loclPLK" x="33" y="0" flags="0x0"/>
    </TTGlyph>
    <TTGlyph name="Ncaron" xMin="84" yMin="0" xMax="516" yMax="904">
      <component glyphName="N" x="0" y="0" flags="0x0"/>
      <component glyphName="caron.case" x="-1" y="0" flags="0x0"/>
    </TTGlyph>
    <TTGlyph name="Ncommaaccent" xMin="84" yMin="-286" xMax="516" yMax="688">
      <component glyphName="N" x="0" y="0" flags="0x0"/>
      <component glyphName="uni0326.case" x="0" y="0" flags="0x0"/>
    </TTGlyph>
    <TTGlyph name="Ntilde" xMin="84" yMin="0" xMax="516" yMax="884">
      <component glyphName="N" x="0" y="0" flags="0x0"/>
      <component glyphName="tilde.case" x="-1" y="0" flags="0x0"/>
    </TTGlyph>
    <TTGlyph name="Nu" xMin="84" yMin="0" xMax="516" yMax="688">
      <component glyphName="N" x="0" y="0" flags="0x0"/>
    </TTGlyph>
    <TTGlyph name="O" xMin="47" yMin="-11" xMax="553" yMax="700">
      <contour>
        <pt x="553" y="183" on="0"/>
        <pt x="422" y="-11" on="0"/>
        <pt x="300" y="-11" on="1"/>
        <pt x="177" y="-11" on="0"/>
        <pt x="47" y="179" on="0"/>
        <pt x="47" y="342" on="1"/>
        <pt x="47" y="448" on="0"/>
        <pt x="105" y="609" on="0"/>
        <pt x="218" y="700" on="0"/>
        <pt x="300" y="700" on="1"/>
        <pt x="422" y="700" on="0"/>
        <pt x="553" y="507" on="0"/>
        <pt x="553" y="344" on="1"/>
      </contour>
      <contour>
        <pt x="464" y="485" on="0"/>
        <pt x="386" y="627" on="0"/>
        <pt x="300" y="627" on="1"/>
        <pt x="214" y="627" on="0"/>
        <pt x="136" y="484" on="0"/>
        <pt x="136" y="342" on="1"/>
        <pt x="136" y="203" on="0"/>
        <pt x="216" y="61" on="0"/>
        <pt x="300" y="61" on="1"/>
        <pt x="385" y="61" on="0"/>
        <pt x="464" y="203" on="0"/>
        <pt x="464" y="344" on="1"/>
      </contour>
    </TTGlyph>
    <TTGlyph name="OE" xMin="-1" yMin="-11" xMax="618" yMax="700">
      <contour>
        <pt x="248" y="700" on="0"/>
        <pt x="282" y="688" on="1"/>
        <pt x="608" y="688" on="1"/>
        <pt x="598" y="618" on="1"/>
        <pt x="354" y="618" on="1"/>
        <pt x="412" y="549" on="0"/>
        <pt x="419" y="384" on="1"/>
        <pt x="573" y="384" on="1"/>
        <pt x="573" y="314" on="1"/>
        <pt x="419" y="314" on="1"/>
        <pt x="415" y="144" on="0"/>
        <pt x="350" y="70" on="1"/>
        <pt x="618" y="70" on="1"/>
        <pt x="618" y="0" on="1"/>
        <pt x="280" y="0" on="1"/>
        <pt x="244" y="-11" on="0"/>
        <pt x="211" y="-11" on="1"/>
        <pt x="-1" y="-11" on="0"/>
        <pt x="-1" y="342" on="1"/>
        <pt x="-1" y="517" on="0"/>
        <pt x="106" y="700" on="0"/>
        <pt x="211" y="700" on="1"/>
      </contour>
      <contour>
        <pt x="149" y="629" on="0"/>
        <pt x="91" y="494" on="0"/>
        <pt x="91" y="342" on="1"/>
        <pt x="91" y="192" on="0"/>
        <pt x="150" y="59" on="0"/>
        <pt x="211" y="59" on="1"/>
        <pt x="275" y="59" on="0"/>
        <pt x="334" y="192" on="0"/>
        <pt x="334" y="344" on="1"/>
        <pt x="334" y="496" on="0"/>
        <pt x="276" y="629" on="0"/>
        <pt x="211" y="629" on="1"/>
      </contour>
    </TTGlyph>
    <TTGlyph name="Oacute" xMin="47" yMin="-11" xMax="553" yMax="905">
      <component glyphName="O" x="0" y="0" flags="0x0"/>
      <component glyphName="acute.case" x="3" y="0" flags="0x0"/>
    </TTGlyph>
    <TTGlyph name="Oacute.loclPLK" xMin="47" yMin="-11" xMax="553" yMax="914">
      <component glyphName="O" x="0" y="0" flags="0x0"/>
      <component glyphName="acute.case.loclPLK" x="35" y="0" flags="0x0"/>
    </TTGlyph>
    <TTGlyph name="Obreve" xMin="47" yMin="-11" xMax="553" yMax="890">
      <component glyphName="O" x="0" y="0" flags="0x0"/>
      <component glyphName="breve.case" x="-1" y="0" flags="0x0"/>
    </TTGlyph>
    <TTGlyph name="Ocircumflex" xMin="47" yMin="-11" xMax="553" yMax="910">
      <component glyphName="O" x="0" y="0" flags="0x0"/>
      <component glyphName="circumflex.case" x="0" y="0" flags="0x0"/>
    </TTGlyph>
    <TTGlyph name="Odieresis" xMin="47" yMin="-11" xMax="553" yMax="874">
      <component glyphName="O" x="0" y="0" flags="0x0"/>
      <component glyphName="dieresis.case" x="1" y="0" flags="0x0"/>
    </TTGlyph>
    <TTGlyph name="Ograve" xMin="47" yMin="-11" xMax="553" yMax="909">
      <component glyphName="O" x="0" y="0" flags="0x0"/>
      <component glyphName="grave.case" x="1" y="0" flags="0x0"/>
    </TTGlyph>
    <TTGlyph name="Ohungarumlaut" xMin="47" yMin="-11" xMax="553" yMax="955">
      <component glyphName="O" x="0" y="0" flags="0x0"/>
      <component glyphName="hungarumlaut.case" x="46" y="0" flags="0x0"/>
    </TTGlyph>
    <TTGlyph name="Omacron" xMin="47" yMin="-11" xMax="553" yMax="859">
      <component glyphName="O" x="0" y="0" flags="0x0"/>
      <component glyphName="macron.case" x="1" y="0" flags="0x0"/>
    </TTGlyph>
    <TTGlyph name="Omega" xMin="47" yMin="0" xMax="553" yMax="700">
      <contour>
        <pt x="218" y="628" on="0"/>
        <pt x="136" y="496" on="0"/>
        <pt x="136" y="349" on="1"/>
        <pt x="136" y="233" on="0"/>
        <pt x="202" y="96" on="0"/>
        <pt x="266" y="64" on="1"/>
        <pt x="266" y="0" on="1"/>
        <pt x="58" y="0" on="1"/>
        <pt x="58" y="69" on="1"/>
        <pt x="170" y="69" on="1"/>
        <pt x="170" y="73" on="1"/>
        <pt x="47" y="137" on="0"/>
        <pt x="47" y="349" on="1"/>
        <pt x="47" y="460" on="0"/>
        <pt x="109" y="618" on="0"/>
        <pt x="223" y="700" on="0"/>
        <pt x="300" y="700" on="1"/>
        <pt x="377" y="700" on="0"/>
        <pt x="491" y="618" on="0"/>
        <pt x="553" y="460" on="0"/>
        <pt x="553" y="349" on="1"/>
        <pt x="553" y="141" on="0"/>
        <pt x="428" y="73" on="1"/>
        <pt x="428" y="69" on="1"/>
        <pt x="542" y="69" on="1"/>
        <pt x="542" y="0" on="1"/>
        <pt x="335" y="0" on="1"/>
        <pt x="335" y="64" on="1"/>
        <pt x="399" y="96" on="0"/>
        <pt x="464" y="233" on="0"/>
        <pt x="464" y="349" on="1"/>
        <pt x="464" y="495" on="0"/>
        <pt x="382" y="628" on="0"/>
        <pt x="300" y="628" on="1"/>
      </contour>
    </TTGlyph>
    <TTGlyph name="Omegatonos" xMin="-55" yMin="0" xMax="553" yMax="703">
      <component glyphName="Omega" x="0" y="0" flags="0x0"/>
      <component glyphName="tonos.case" x="-286" y="0" flags="0x0"/>
    </TTGlyph>
    <TTGlyph name="Omicron" xMin="47" yMin="-11" xMax="553" yMax="700">
      <contour>
        <pt x="553" y="183" on="0"/>
        <pt x="422" y="-11" on="0"/>
        <pt x="300" y="-11" on="1"/>
        <pt x="177" y="-11" on="0"/>
        <pt x="47" y="179" on="0"/>
        <pt x="47" y="342" on="1"/>
        <pt x="47" y="448" on="0"/>
        <pt x="105" y="609" on="0"/>
        <pt x="218" y="700" on="0"/>
        <pt x="300" y="700" on="1"/>
        <pt x="422" y="700" on="0"/>
        <pt x="553" y="507" on="0"/>
        <pt x="553" y="344" on="1"/>
      </contour>
      <contour>
        <pt x="464" y="485" on="0"/>
        <pt x="386" y="627" on="0"/>
        <pt x="300" y="627" on="1"/>
        <pt x="214" y="627" on="0"/>
        <pt x="136" y="484" on="0"/>
        <pt x="136" y="342" on="1"/>
        <pt x="136" y="203" on="0"/>
        <pt x="216" y="61" on="0"/>
        <pt x="300" y="61" on="1"/>
        <pt x="385" y="61" on="0"/>
        <pt x="464" y="203" on="0"/>
        <pt x="464" y="344" on="1"/>
      </contour>
    </TTGlyph>
    <TTGlyph name="Omicrontonos" xMin="-54" yMin="-11" xMax="553" yMax="703">
      <component glyphName="O" x="0" y="0" flags="0x0"/>
      <component glyphName="tonos.case" x="-285" y="0" flags="0x0"/>
    </TTGlyph>
    <TTGlyph name="Oslash" xMin="47" yMin="-110" xMax="553" yMax="803">
      <contour>
        <pt x="492" y="618" on="0"/>
        <pt x="553" y="454" on="0"/>
        <pt x="553" y="344" on="1"/>
        <pt x="553" y="183" on="0"/>
        <pt x="422" y="-11" on="0"/>
        <pt x="300" y="-11" on="1"/>
        <pt x="268" y="-11" on="0"/>
        <pt x="236" y="-3" on="1"/>
        <pt x="204" y="-110" on="1"/>
        <pt x="130" y="-91" on="1"/>
        <pt x="167" y="29" on="1"/>
        <pt x="108" y="71" on="0"/>
        <pt x="47" y="232" on="0"/>
        <pt x="47" y="342" on="1"/>
        <pt x="47" y="448" on="0"/>
        <pt x="105" y="609" on="0"/>
        <pt x="218" y="700" on="0"/>
        <pt x="300" y="700" on="1"/>
        <pt x="333" y="700" on="0"/>
        <pt x="365" y="692" on="1"/>
        <pt x="397" y="803" on="1"/>
        <pt x="472" y="784" on="1"/>
        <pt x="433" y="660" on="1"/>
      </contour>
      <contour>
        <pt x="137" y="247" on="0"/>
        <pt x="166" y="128" on="0"/>
        <pt x="197" y="97" on="1"/>
        <pt x="348" y="621" on="1"/>
        <pt x="327" y="627" on="0"/>
        <pt x="300" y="627" on="1"/>
        <pt x="215" y="627" on="0"/>
        <pt x="137" y="484" on="0"/>
        <pt x="137" y="342" on="1"/>
      </contour>
      <contour>
        <pt x="385" y="61" on="0"/>
        <pt x="463" y="203" on="0"/>
        <pt x="463" y="344" on="1"/>
        <pt x="463" y="441" on="0"/>
        <pt x="434" y="562" on="0"/>
        <pt x="402" y="592" on="1"/>
        <pt x="251" y="67" on="1"/>
        <pt x="273" y="61" on="0"/>
        <pt x="300" y="61" on="1"/>
      </contour>
    </TTGlyph>
    <TTGlyph name="Oslashacute" xMin="47" yMin="-110" xMax="553" yMax="905">
      <component glyphName="Oslash" x="0" y="0" flags="0x0"/>
      <component glyphName="acute.case" x="3" y="0" flags="0x0"/>
    </TTGlyph>
    <TTGlyph name="Otilde" xMin="47" yMin="-11" xMax="553" yMax="884">
      <component glyphName="O" x="0" y="0" flags="0x0"/>
      <component glyphName="tilde.case" x="1" y="0" flags="0x0"/>
    </TTGlyph>
    <TTGlyph name="P" xMin="117" yMin="0" xMax="557" yMax="688">
      <contour>
        <pt x="557" y="362" on="0"/>
        <pt x="415" y="256" on="0"/>
        <pt x="291" y="256" on="1"/>
        <pt x="202" y="256" on="1"/>
        <pt x="202" y="0" on="1"/>
        <pt x="117" y="0" on="1"/>
        <pt x="117" y="688" on="1"/>
        <pt x="291" y="688" on="1"/>
        <pt x="417" y="688" on="0"/>
        <pt x="557" y="582" on="0"/>
        <pt x="557" y="477" on="1"/>
      </contour>
      <contour>
        <pt x="465" y="620" on="0"/>
        <pt x="302" y="620" on="1"/>
        <pt x="202" y="620" on="1"/>
        <pt x="202" y="325" on="1"/>
        <pt x="299" y="325" on="1"/>
        <pt x="378" y="325" on="0"/>
        <pt x="465" y="393" on="0"/>
        <pt x="465" y="476" on="1"/>
      </contour>
    </TTGlyph>
    <TTGlyph name="Phi" xMin="11" yMin="0" xMax="589" yMax="688">
      <contour>
        <pt x="468" y="603" on="0"/>
        <pt x="589" y="472" on="0"/>
        <pt x="589" y="347" on="1"/>
        <pt x="589" y="219" on="0"/>
        <pt x="463" y="85" on="0"/>
        <pt x="342" y="81" on="1"/>
        <pt x="342" y="0" on="1"/>
        <pt x="258" y="0" on="1"/>
        <pt x="258" y="81" on="1"/>
        <pt x="138" y="85" on="0"/>
        <pt x="11" y="220" on="0"/>
        <pt x="11" y="347" on="1"/>
        <pt x="11" y="471" on="0"/>
        <pt x="133" y="603" on="0"/>
        <pt x="258" y="609" on="1"/>
        <pt x="258" y="688" on="1"/>
        <pt x="342" y="688" on="1"/>
        <pt x="342" y="609" on="1"/>
      </contour>
      <contour>
        <pt x="175" y="543" on="0"/>
        <pt x="98" y="455" on="0"/>
        <pt x="98" y="347" on="1"/>
        <pt x="98" y="244" on="0"/>
        <pt x="174" y="150" on="0"/>
        <pt x="259" y="145" on="1"/>
        <pt x="259" y="545" on="1"/>
      </contour>
      <contour>
        <pt x="426" y="150" on="0"/>
        <pt x="502" y="244" on="0"/>
        <pt x="502" y="347" on="1"/>
        <pt x="502" y="456" on="0"/>
        <pt x="425" y="544" on="0"/>
        <pt x="341" y="545" on="1"/>
        <pt x="341" y="145" on="1"/>
      </contour>
    </TTGlyph>
    <TTGlyph name="Pi" xMin="84" yMin="0" xMax="516" yMax="688">
      <component glyphName="uni041F" x="0" y="0" flags="0x0"/>
    </TTGlyph>
    <TTGlyph name="Psi" xMin="13" yMin="0" xMax="587" yMax="688">
      <contour>
        <pt x="134" y="201" on="0"/>
        <pt x="13" y="329" on="0"/>
        <pt x="13" y="430" on="1"/>
        <pt x="13" y="688" on="1"/>
        <pt x="101" y="688" on="1"/>
        <pt x="101" y="435" on="1"/>
        <pt x="101" y="357" on="0"/>
        <pt x="172" y="273" on="0"/>
        <pt x="257" y="265" on="1"/>
        <pt x="257" y="688" on="1"/>
        <pt x="344" y="688" on="1"/>
        <pt x="344" y="266" on="1"/>
        <pt x="427" y="274" on="0"/>
        <pt x="499" y="357" on="0"/>
        <pt x="499" y="435" on="1"/>
        <pt x="499" y="688" on="1"/>
        <pt x="587" y="688" on="1"/>
        <pt x="587" y="430" on="1"/>
        <pt x="587" y="330" on="0"/>
        <pt x="465" y="203" on="0"/>
        <pt x="345" y="193" on="1"/>
        <pt x="345" y="0" on="1"/>
        <pt x="256" y="0" on="1"/>
        <pt x="256" y="192" on="1"/>
      </contour>
    </TTGlyph>
    <TTGlyph name="Q" xMin="46" yMin="-173" xMax="592" yMax="700">
      <contour>
        <pt x="553" y="229" on="0"/>
        <pt x="488" y="69" on="0"/>
        <pt x="416" y="26" on="1"/>
        <pt x="485" y="12" on="0"/>
        <pt x="567" y="-63" on="0"/>
        <pt x="592" y="-137" on="1"/>
        <pt x="501" y="-173" on="1"/>
        <pt x="467" y="-88" on="0"/>
        <pt x="375" y="-9" on="0"/>
        <pt x="290" y="-9" on="1"/>
        <pt x="173" y="-9" on="0"/>
        <pt x="46" y="180" on="0"/>
        <pt x="46" y="342" on="1"/>
        <pt x="46" y="448" on="0"/>
        <pt x="104" y="609" on="0"/>
        <pt x="218" y="700" on="0"/>
        <pt x="300" y="700" on="1"/>
        <pt x="422" y="700" on="0"/>
        <pt x="553" y="507" on="0"/>
        <pt x="553" y="344" on="1"/>
      </contour>
      <contour>
        <pt x="464" y="485" on="0"/>
        <pt x="385" y="628" on="0"/>
        <pt x="300" y="628" on="1"/>
        <pt x="214" y="628" on="0"/>
        <pt x="135" y="484" on="0"/>
        <pt x="135" y="342" on="1"/>
        <pt x="135" y="203" on="0"/>
        <pt x="216" y="61" on="0"/>
        <pt x="300" y="61" on="1"/>
        <pt x="385" y="61" on="0"/>
        <pt x="464" y="203" on="0"/>
        <pt x="464" y="344" on="1"/>
      </contour>
    </TTGlyph>
    <TTGlyph name="R" xMin="102" yMin="0" xMax="573" yMax="688">
      <contour>
        <pt x="537" y="421" on="0"/>
        <pt x="444" y="324" on="0"/>
        <pt x="368" y="306" on="1"/>
        <pt x="573" y="0" on="1"/>
        <pt x="470" y="0" on="1"/>
        <pt x="282" y="296" on="1"/>
        <pt x="188" y="296" on="1"/>
        <pt x="188" y="0" on="1"/>
        <pt x="102" y="0" on="1"/>
        <pt x="102" y="688" on="1"/>
        <pt x="278" y="688" on="1"/>
        <pt x="406" y="688" on="0"/>
        <pt x="537" y="591" on="0"/>
        <pt x="537" y="496" on="1"/>
      </contour>
      <contour>
        <pt x="445" y="561" on="0"/>
        <pt x="369" y="620" on="0"/>
        <pt x="288" y="620" on="1"/>
        <pt x="188" y="620" on="1"/>
        <pt x="188" y="363" on="1"/>
        <pt x="289" y="363" on="1"/>
        <pt x="366" y="363" on="0"/>
        <pt x="445" y="426" on="0"/>
        <pt x="445" y="496" on="1"/>
      </contour>
    </TTGlyph>
    <TTGlyph name="Racute" xMin="102" yMin="0" xMax="573" yMax="905">
      <component glyphName="R" x="0" y="0" flags="0x0"/>
      <component glyphName="acute.case" x="3" y="0" flags="0x0"/>
    </TTGlyph>
    <TTGlyph name="Rcaron" xMin="102" yMin="0" xMax="573" yMax="904">
      <component glyphName="R" x="0" y="0" flags="0x0"/>
      <component glyphName="caron.case" x="0" y="0" flags="0x0"/>
    </TTGlyph>
    <TTGlyph name="Rcommaaccent" xMin="102" yMin="-286" xMax="573" yMax="688">
      <component glyphName="R" x="0" y="0" flags="0x0"/>
      <component glyphName="uni0326.case" x="-1" y="0" flags="0x0"/>
    </TTGlyph>
    <TTGlyph name="Rho" xMin="117" yMin="0" xMax="557" yMax="688">
      <component glyphName="P" x="0" y="0" flags="0x0"/>
    </TTGlyph>
    <TTGlyph name="S" xMin="44" yMin="-11" xMax="536" yMax="700">
      <contour>
        <pt x="536" y="131" on="0"/>
        <pt x="477" y="40" on="0"/>
        <pt x="363" y="-11" on="0"/>
        <pt x="285" y="-11" on="1"/>
        <pt x="211" y="-11" on="0"/>
        <pt x="88" y="34" on="0"/>
        <pt x="44" y="76" on="1"/>
        <pt x="95" y="134" on="1"/>
        <pt x="133" y="98" on="0"/>
        <pt x="226" y="61" on="0"/>
        <pt x="287" y="61" on="1"/>
        <pt x="354" y="61" on="0"/>
        <pt x="447" y="127" on="0"/>
        <pt x="447" y="189" on="1"/>
        <pt x="447" y="224" on="0"/>
        <pt x="421" y="270" on="0"/>
        <pt x="356" y="306" on="0"/>
        <pt x="296" y="324" on="1"/>
        <pt x="184" y="357" on="0"/>
        <pt x="74" y="446" on="0"/>
        <pt x="74" y="523" on="1"/>
        <pt x="74" y="574" on="0"/>
        <pt x="130" y="655" on="0"/>
        <pt x="232" y="700" on="0"/>
        <pt x="297" y="700" on="1"/>
        <pt x="365" y="700" on="0"/>
        <pt x="471" y="660" on="0"/>
        <pt x="516" y="621" on="1"/>
        <pt x="465" y="565" on="1"/>
        <pt x="395" y="628" on="0"/>
        <pt x="299" y="628" on="1"/>
        <pt x="239" y="628" on="0"/>
        <pt x="161" y="575" on="0"/>
        <pt x="161" y="525" on="1"/>
        <pt x="161" y="495" on="0"/>
        <pt x="193" y="453" on="0"/>
        <pt x="268" y="417" on="0"/>
        <pt x="335" y="398" on="1"/>
        <pt x="431" y="370" on="0"/>
        <pt x="536" y="280" on="0"/>
        <pt x="536" y="191" on="1"/>
      </contour>
    </TTGlyph>
    <TTGlyph name="Sacute" xMin="44" yMin="-11" xMax="536" yMax="905">
      <component glyphName="S" x="0" y="0" flags="0x0"/>
      <component glyphName="acute.case" x="8" y="0" flags="0x0"/>
    </TTGlyph>
    <TTGlyph name="Sacute.loclPLK" xMin="44" yMin="-11" xMax="536" yMax="914">
      <component glyphName="S" x="0" y="0" flags="0x0"/>
      <component glyphName="acute.case.loclPLK" x="40" y="0" flags="0x0"/>
    </TTGlyph>
    <TTGlyph name="Scaron" xMin="44" yMin="-11" xMax="536" yMax="904">
      <component glyphName="S" x="0" y="0" flags="0x0"/>
      <component glyphName="caron.case" x="5" y="0" flags="0x0"/>
    </TTGlyph>
    <TTGlyph name="Scedilla" xMin="44" yMin="-238" xMax="536" yMax="700">
      <contour>
        <pt x="536" y="107" on="0"/>
        <pt x="421" y="-2" on="0"/>
        <pt x="317" y="-10" on="1"/>
        <pt x="317" y="-57" on="1"/>
        <pt x="363" y="-61" on="0"/>
        <pt x="409" y="-108" on="0"/>
        <pt x="409" y="-140" on="1"/>
        <pt x="409" y="-187" on="0"/>
        <pt x="339" y="-238" on="0"/>
        <pt x="288" y="-238" on="1"/>
        <pt x="258" y="-238" on="0"/>
        <pt x="203" y="-225" on="0"/>
        <pt x="183" y="-214" on="1"/>
        <pt x="210" y="-166" on="1"/>
        <pt x="224" y="-173" on="0"/>
        <pt x="261" y="-182" on="0"/>
        <pt x="278" y="-182" on="1"/>
        <pt x="306" y="-182" on="0"/>
        <pt x="338" y="-162" on="0"/>
        <pt x="338" y="-140" on="1"/>
        <pt x="338" y="-115" on="0"/>
        <pt x="295" y="-97" on="0"/>
        <pt x="251" y="-97" on="1"/>
        <pt x="258" y="-10" on="1"/>
        <pt x="126" y="-2" on="0"/>
        <pt x="44" y="76" on="1"/>
        <pt x="95" y="134" on="1"/>
        <pt x="133" y="98" on="0"/>
        <pt x="226" y="61" on="0"/>
        <pt x="287" y="61" on="1"/>
        <pt x="354" y="61" on="0"/>
        <pt x="447" y="127" on="0"/>
        <pt x="447" y="189" on="1"/>
        <pt x="447" y="224" on="0"/>
        <pt x="421" y="270" on="0"/>
        <pt x="356" y="306" on="0"/>
        <pt x="296" y="324" on="1"/>
        <pt x="184" y="357" on="0"/>
        <pt x="74" y="446" on="0"/>
        <pt x="74" y="523" on="1"/>
        <pt x="74" y="574" on="0"/>
        <pt x="130" y="655" on="0"/>
        <pt x="232" y="700" on="0"/>
        <pt x="297" y="700" on="1"/>
        <pt x="365" y="700" on="0"/>
        <pt x="471" y="660" on="0"/>
        <pt x="516" y="621" on="1"/>
        <pt x="465" y="565" on="1"/>
        <pt x="395" y="628" on="0"/>
        <pt x="299" y="628" on="1"/>
        <pt x="239" y="628" on="0"/>
        <pt x="161" y="575" on="0"/>
        <pt x="161" y="525" on="1"/>
        <pt x="161" y="495" on="0"/>
        <pt x="193" y="453" on="0"/>
        <pt x="268" y="417" on="0"/>
        <pt x="335" y="398" on="1"/>
        <pt x="431" y="370" on="0"/>
        <pt x="536" y="280" on="0"/>
        <pt x="536" y="191" on="1"/>
      </contour>
    </TTGlyph>
    <TTGlyph name="Scircumflex" xMin="44" yMin="-11" xMax="536" yMax="910">
      <component glyphName="S" x="0" y="0" flags="0x0"/>
      <component glyphName="circumflex.case" x="5" y="0" flags="0x0"/>
    </TTGlyph>
    <TTGlyph name="Scommaaccent" xMin="44" yMin="-286" xMax="536" yMax="700">
      <component glyphName="S" x="0" y="0" flags="0x0"/>
      <component glyphName="uni0326.case" x="-3" y="0" flags="0x0"/>
    </TTGlyph>
    <TTGlyph name="Sigma" xMin="73" yMin="0" xMax="527" yMax="688">
      <contour>
        <pt x="527" y="72" on="1"/>
        <pt x="527" y="0" on="1"/>
        <pt x="73" y="0" on="1"/>
        <pt x="73" y="72" on="1"/>
        <pt x="328" y="344" on="1"/>
        <pt x="73" y="615" on="1"/>
        <pt x="73" y="688" on="1"/>
        <pt x="527" y="688" on="1"/>
        <pt x="527" y="616" on="1"/>
        <pt x="172" y="616" on="1"/>
        <pt x="404" y="377" on="1"/>
        <pt x="404" y="316" on="1"/>
        <pt x="174" y="72" on="1"/>
      </contour>
    </TTGlyph>
    <TTGlyph name="T" xMin="40" yMin="0" xMax="559" yMax="688">
      <contour>
        <pt x="256" y="0" on="1"/>
        <pt x="256" y="615" on="1"/>
        <pt x="40" y="615" on="1"/>
        <pt x="40" y="688" on="1"/>
        <pt x="559" y="688" on="1"/>
        <pt x="550" y="615" on="1"/>
        <pt x="341" y="615" on="1"/>
        <pt x="341" y="0" on="1"/>
      </contour>
    </TTGlyph>
    <TTGlyph name="Tau" xMin="40" yMin="0" xMax="559" yMax="688">
      <component glyphName="T" x="0" y="0" flags="0x0"/>
    </TTGlyph>
    <TTGlyph name="Tbar" xMin="40" yMin="0" xMax="559" yMax="688">
      <contour>
        <pt x="341" y="417" on="1"/>
        <pt x="473" y="417" on="1"/>
        <pt x="473" y="350" on="1"/>
        <pt x="341" y="350" on="1"/>
        <pt x="341" y="0" on="1"/>
        <pt x="256" y="0" on="1"/>
        <pt x="256" y="350" on="1"/>
        <pt x="125" y="350" on="1"/>
        <pt x="125" y="417" on="1"/>
        <pt x="256" y="417" on="1"/>
        <pt x="256" y="615" on="1"/>
        <pt x="40" y="615" on="1"/>
        <pt x="40" y="688" on="1"/>
        <pt x="559" y="688" on="1"/>
        <pt x="550" y="615" on="1"/>
        <pt x="341" y="615" on="1"/>
      </contour>
    </TTGlyph>
    <TTGlyph name="Tcaron" xMin="40" yMin="0" xMax="559" yMax="904">
      <component glyphName="T" x="0" y="0" flags="0x0"/>
      <component glyphName="caron.case" x="-1" y="0" flags="0x0"/>
    </TTGlyph>
    <TTGlyph name="Tcedilla" xMin="40" yMin="-238" xMax="559" yMax="688">
      <contour>
        <pt x="328" y="-57" on="1"/>
        <pt x="374" y="-61" on="0"/>
        <pt x="420" y="-108" on="0"/>
        <pt x="420" y="-140" on="1"/>
        <pt x="420" y="-187" on="0"/>
        <pt x="350" y="-238" on="0"/>
        <pt x="299" y="-238" on="1"/>
        <pt x="269" y="-238" on="0"/>
        <pt x="214" y="-225" on="0"/>
        <pt x="194" y="-214" on="1"/>
        <pt x="221" y="-166" on="1"/>
        <pt x="235" y="-173" on="0"/>
        <pt x="272" y="-182" on="0"/>
        <pt x="289" y="-182" on="1"/>
        <pt x="348" y="-182" on="0"/>
        <pt x="348" y="-140" on="1"/>
        <pt x="348" y="-115" on="0"/>
        <pt x="306" y="-97" on="0"/>
        <pt x="262" y="-97" on="1"/>
        <pt x="269" y="0" on="1"/>
        <pt x="256" y="0" on="1"/>
        <pt x="256" y="615" on="1"/>
        <pt x="40" y="615" on="1"/>
        <pt x="40" y="688" on="1"/>
        <pt x="559" y="688" on="1"/>
        <pt x="550" y="615" on="1"/>
        <pt x="341" y="615" on="1"/>
        <pt x="341" y="0" on="1"/>
        <pt x="328" y="0" on="1"/>
      </contour>
    </TTGlyph>
    <TTGlyph name="Theta" xMin="47" yMin="-11" xMax="553" yMax="700">
      <contour>
        <pt x="553" y="183" on="0"/>
        <pt x="422" y="-11" on="0"/>
        <pt x="300" y="-11" on="1"/>
        <pt x="177" y="-11" on="0"/>
        <pt x="47" y="179" on="0"/>
        <pt x="47" y="342" on="1"/>
        <pt x="47" y="448" on="0"/>
        <pt x="105" y="609" on="0"/>
        <pt x="218" y="700" on="0"/>
        <pt x="300" y="700" on="1"/>
        <pt x="422" y="700" on="0"/>
        <pt x="553" y="507" on="0"/>
        <pt x="553" y="344" on="1"/>
      </contour>
      <contour>
        <pt x="463" y="485" on="0"/>
        <pt x="386" y="627" on="0"/>
        <pt x="300" y="627" on="1"/>
        <pt x="214" y="627" on="0"/>
        <pt x="137" y="484" on="0"/>
        <pt x="137" y="342" on="1"/>
        <pt x="137" y="202" on="0"/>
        <pt x="217" y="61" on="0"/>
        <pt x="300" y="61" on="1"/>
        <pt x="385" y="61" on="0"/>
        <pt x="463" y="203" on="0"/>
        <pt x="463" y="344" on="1"/>
      </contour>
      <contour>
        <pt x="197" y="388" on="1"/>
        <pt x="402" y="388" on="1"/>
        <pt x="402" y="316" on="1"/>
        <pt x="197" y="316" on="1"/>
      </contour>
    </TTGlyph>
    <TTGlyph name="Thorn" xMin="108" yMin="0" xMax="555" yMax="688">
      <contour>
        <pt x="293" y="572" on="1"/>
        <pt x="420" y="572" on="0"/>
        <pt x="555" y="464" on="0"/>
        <pt x="555" y="355" on="1"/>
        <pt x="555" y="239" on="0"/>
        <pt x="414" y="128" on="0"/>
        <pt x="292" y="128" on="1"/>
        <pt x="193" y="128" on="1"/>
        <pt x="193" y="0" on="1"/>
        <pt x="108" y="0" on="1"/>
        <pt x="108" y="688" on="1"/>
        <pt x="193" y="688" on="1"/>
        <pt x="193" y="572" on="1"/>
      </contour>
      <contour>
        <pt x="193" y="197" on="1"/>
        <pt x="304" y="197" on="1"/>
        <pt x="381" y="197" on="0"/>
        <pt x="465" y="268" on="0"/>
        <pt x="465" y="353" on="1"/>
        <pt x="465" y="431" on="0"/>
        <pt x="379" y="504" on="0"/>
        <pt x="303" y="504" on="1"/>
        <pt x="193" y="504" on="1"/>
      </contour>
    </TTGlyph>
    <TTGlyph name="U" xMin="73" yMin="-11" xMax="527" yMax="688">
      <contour>
        <pt x="527" y="153" on="0"/>
        <pt x="471" y="47" on="0"/>
        <pt x="368" y="-11" on="0"/>
        <pt x="299" y="-11" on="1"/>
        <pt x="230" y="-11" on="0"/>
        <pt x="127" y="48" on="0"/>
        <pt x="73" y="154" on="0"/>
        <pt x="73" y="223" on="1"/>
        <pt x="73" y="688" on="1"/>
        <pt x="158" y="688" on="1"/>
        <pt x="158" y="219" on="1"/>
        <pt x="158" y="141" on="0"/>
        <pt x="231" y="63" on="0"/>
        <pt x="299" y="63" on="1"/>
        <pt x="368" y="63" on="0"/>
        <pt x="441" y="141" on="0"/>
        <pt x="441" y="219" on="1"/>
        <pt x="441" y="688" on="1"/>
        <pt x="527" y="688" on="1"/>
        <pt x="527" y="223" on="1"/>
      </contour>
    </TTGlyph>
    <TTGlyph name="Uacute" xMin="73" yMin="-11" xMax="527" yMax="905">
      <component glyphName="U" x="0" y="0" flags="0x0"/>
      <component glyphName="acute.case" x="3" y="0" flags="0x0"/>
    </TTGlyph>
    <TTGlyph name="Ubreve" xMin="73" yMin="-11" xMax="527" yMax="890">
      <component glyphName="U" x="0" y="0" flags="0x0"/>
      <component glyphName="breve.case" x="-1" y="0" flags="0x0"/>
    </TTGlyph>
    <TTGlyph name="Ucircumflex" xMin="73" yMin="-11" xMax="527" yMax="910">
      <component glyphName="U" x="0" y="0" flags="0x0"/>
      <component glyphName="circumflex.case" x="0" y="0" flags="0x0"/>
    </TTGlyph>
    <TTGlyph name="Udieresis" xMin="73" yMin="-11" xMax="527" yMax="874">
      <component glyphName="U" x="0" y="0" flags="0x0"/>
      <component glyphName="dieresis.case" x="1" y="0" flags="0x0"/>
    </TTGlyph>
    <TTGlyph name="Ugrave" xMin="73" yMin="-11" xMax="527" yMax="909">
      <component glyphName="U" x="0" y="0" flags="0x0"/>
      <component glyphName="grave.case" x="1" y="0" flags="0x0"/>
    </TTGlyph>
    <TTGlyph name="Uhungarumlaut" xMin="73" yMin="-11" xMax="527" yMax="955">
      <component glyphName="U" x="0" y="0" flags="0x0"/>
      <component glyphName="hungarumlaut.case" x="46" y="0" flags="0x0"/>
    </TTGlyph>
    <TTGlyph name="Umacron" xMin="73" yMin="-11" xMax="527" yMax="859">
      <component glyphName="U" x="0" y="0" flags="0x0"/>
      <component glyphName="macron.case" x="1" y="0" flags="0x0"/>
    </TTGlyph>
    <TTGlyph name="Uogonek" xMin="73" yMin="-229" xMax="527" yMax="688">
      <contour>
        <pt x="527" y="223" on="1"/>
        <pt x="527" y="139" on="0"/>
        <pt x="446" y="21" on="0"/>
        <pt x="375" y="0" on="1"/>
        <pt x="303" y="-32" on="0"/>
        <pt x="252" y="-85" on="0"/>
        <pt x="252" y="-115" on="1"/>
        <pt x="252" y="-138" on="0"/>
        <pt x="278" y="-162" on="0"/>
        <pt x="307" y="-162" on="1"/>
        <pt x="340" y="-162" on="0"/>
        <pt x="369" y="-155" on="1"/>
        <pt x="361" y="-222" on="1"/>
        <pt x="326" y="-229" on="0"/>
        <pt x="297" y="-229" on="1"/>
        <pt x="241" y="-229" on="0"/>
        <pt x="176" y="-173" on="0"/>
        <pt x="176" y="-131" on="1"/>
        <pt x="176" y="-57" on="0"/>
        <pt x="263" y="-9" on="1"/>
        <pt x="174" y="2" on="0"/>
        <pt x="73" y="127" on="0"/>
        <pt x="73" y="223" on="1"/>
        <pt x="73" y="688" on="1"/>
        <pt x="158" y="688" on="1"/>
        <pt x="158" y="219" on="1"/>
        <pt x="158" y="141" on="0"/>
        <pt x="231" y="63" on="0"/>
        <pt x="299" y="63" on="1"/>
        <pt x="368" y="63" on="0"/>
        <pt x="441" y="141" on="0"/>
        <pt x="441" y="219" on="1"/>
        <pt x="441" y="688" on="1"/>
        <pt x="527" y="688" on="1"/>
      </contour>
    </TTGlyph>
    <TTGlyph name="Upsilon" xMin="24" yMin="0" xMax="576" yMax="688">
      <contour>
        <pt x="257" y="0" on="1"/>
        <pt x="257" y="265" on="1"/>
        <pt x="24" y="688" on="1"/>
        <pt x="119" y="688" on="1"/>
        <pt x="302" y="343" on="1"/>
        <pt x="487" y="688" on="1"/>
        <pt x="576" y="688" on="1"/>
        <pt x="343" y="266" on="1"/>
        <pt x="343" y="0" on="1"/>
      </contour>
    </TTGlyph>
    <TTGlyph name="Upsilondieresis" xMin="24" yMin="0" xMax="576" yMax="874">
      <component glyphName="Y" x="0" y="0" flags="0x0"/>
      <component glyphName="dieresis.case" x="4" y="0" flags="0x0"/>
    </TTGlyph>
    <TTGlyph name="Upsilontonos" xMin="-112" yMin="0" xMax="576" yMax="703">
      <contour>
        <pt x="343" y="266" on="1"/>
        <pt x="343" y="0" on="1"/>
        <pt x="257" y="0" on="1"/>
        <pt x="257" y="265" on="1"/>
        <pt x="25" y="686" on="1"/>
        <pt x="-48" y="508" on="1"/>
        <pt x="-112" y="519" on="1"/>
        <pt x="-65" y="703" on="1"/>
        <pt x="26" y="688" on="1"/>
        <pt x="119" y="688" on="1"/>
        <pt x="302" y="343" on="1"/>
        <pt x="487" y="688" on="1"/>
        <pt x="576" y="688" on="1"/>
      </contour>
    </TTGlyph>
    <TTGlyph name="Uring" xMin="73" yMin="-11" xMax="527" yMax="942">
      <component glyphName="U" x="0" y="0" flags="0x0"/>
      <component glyphName="ring.case" x="1" y="0" flags="0x0"/>
    </TTGlyph>
    <TTGlyph name="Utilde" xMin="73" yMin="-11" xMax="527" yMax="884">
      <component glyphName="U" x="0" y="0" flags="0x0"/>
      <component glyphName="tilde.case" x="1" y="0" flags="0x0"/>
    </TTGlyph>
    <TTGlyph name="V" xMin="25" yMin="0" xMax="575" yMax="688">
      <contour>
        <pt x="575" y="688" on="1"/>
        <pt x="344" y="0" on="1"/>
        <pt x="256" y="0" on="1"/>
        <pt x="25" y="688" on="1"/>
        <pt x="117" y="688" on="1"/>
        <pt x="302" y="98" on="1"/>
        <pt x="489" y="688" on="1"/>
      </contour>
    </TTGlyph>
    <TTGlyph name="W" xMin="5" yMin="0" xMax="595" yMax="688">
      <contour>
        <pt x="377" y="0" on="1"/>
        <pt x="300" y="505" on="1"/>
        <pt x="296" y="505" on="1"/>
        <pt x="218" y="0" on="1"/>
        <pt x="102" y="0" on="1"/>
        <pt x="5" y="688" on="1"/>
        <pt x="91" y="688" on="1"/>
        <pt x="162" y="103" on="1"/>
        <pt x="166" y="103" on="1"/>
        <pt x="248" y="608" on="1"/>
        <pt x="354" y="608" on="1"/>
        <pt x="430" y="107" on="1"/>
        <pt x="434" y="107" on="1"/>
        <pt x="516" y="688" on="1"/>
        <pt x="595" y="688" on="1"/>
        <pt x="490" y="0" on="1"/>
      </contour>
    </TTGlyph>
    <TTGlyph name="Wacute" xMin="5" yMin="0" xMax="595" yMax="905">
      <component glyphName="W" x="0" y="0" flags="0x0"/>
      <component glyphName="acute.case" x="3" y="0" flags="0x0"/>
    </TTGlyph>
    <TTGlyph name="Wcircumflex" xMin="5" yMin="0" xMax="595" yMax="910">
      <component glyphName="W" x="0" y="0" flags="0x0"/>
      <component glyphName="circumflex.case" x="0" y="0" flags="0x0"/>
    </TTGlyph>
    <TTGlyph name="Wdieresis" xMin="5" yMin="0" xMax="595" yMax="874">
      <component glyphName="W" x="0" y="0" flags="0x0"/>
      <component glyphName="dieresis.case" x="1" y="0" flags="0x0"/>
    </TTGlyph>
    <TTGlyph name="Wgrave" xMin="5" yMin="0" xMax="595" yMax="909">
      <component glyphName="W" x="0" y="0" flags="0x0"/>
      <component glyphName="grave.case" x="1" y="0" flags="0x0"/>
    </TTGlyph>
    <TTGlyph name="X" xMin="31" yMin="0" xMax="569" yMax="688">
      <contour>
        <pt x="300" y="423" on="1"/>
        <pt x="452" y="688" on="1"/>
        <pt x="545" y="688" on="1"/>
        <pt x="349" y="372" on="1"/>
        <pt x="569" y="0" on="1"/>
        <pt x="470" y="0" on="1"/>
        <pt x="298" y="312" on="1"/>
        <pt x="123" y="0" on="1"/>
        <pt x="31" y="0" on="1"/>
        <pt x="248" y="367" on="1"/>
        <pt x="50" y="688" on="1"/>
        <pt x="148" y="688" on="1"/>
      </contour>
    </TTGlyph>
    <TTGlyph name="Xi" xMin="77" yMin="0" xMax="523" yMax="688">
      <contour>
        <pt x="77" y="610" on="1"/>
        <pt x="77" y="688" on="1"/>
        <pt x="513" y="688" on="1"/>
        <pt x="501" y="610" on="1"/>
      </contour>
      <contour>
        <pt x="127" y="309" on="1"/>
        <pt x="127" y="389" on="1"/>
        <pt x="463" y="389" on="1"/>
        <pt x="463" y="309" on="1"/>
      </contour>
      <contour>
        <pt x="77" y="0" on="1"/>
        <pt x="77" y="80" on="1"/>
        <pt x="523" y="80" on="1"/>
        <pt x="523" y="0" on="1"/>
      </contour>
    </TTGlyph>
    <TTGlyph name="Y" xMin="24" yMin="0" xMax="576" yMax="688">
      <contour>
        <pt x="257" y="0" on="1"/>
        <pt x="257" y="265" on="1"/>
        <pt x="24" y="688" on="1"/>
        <pt x="119" y="688" on="1"/>
        <pt x="302" y="343" on="1"/>
        <pt x="487" y="688" on="1"/>
        <pt x="576" y="688" on="1"/>
        <pt x="343" y="266" on="1"/>
        <pt x="343" y="0" on="1"/>
      </contour>
    </TTGlyph>
    <TTGlyph name="Yacute" xMin="24" yMin="0" xMax="576" yMax="905">
      <component glyphName="Y" x="0" y="0" flags="0x0"/>
      <component glyphName="acute.case" x="6" y="0" flags="0x0"/>
    </TTGlyph>
    <TTGlyph name="Ycircumflex" xMin="24" yMin="0" xMax="576" yMax="910">
      <component glyphName="Y" x="0" y="0" flags="0x0"/>
      <component glyphName="circumflex.case" x="3" y="0" flags="0x0"/>
    </TTGlyph>
    <TTGlyph name="Ydieresis" xMin="24" yMin="0" xMax="576" yMax="874">
      <component glyphName="Y" x="0" y="0" flags="0x0"/>
      <component glyphName="dieresis.case" x="4" y="0" flags="0x0"/>
    </TTGlyph>
    <TTGlyph name="Ygrave" xMin="24" yMin="0" xMax="576" yMax="909">
      <component glyphName="Y" x="0" y="0" flags="0x0"/>
      <component glyphName="grave.case" x="4" y="0" flags="0x0"/>
    </TTGlyph>
    <TTGlyph name="Z" xMin="72" yMin="0" xMax="528" yMax="688">
      <contour>
        <pt x="517" y="0" on="1"/>
        <pt x="72" y="0" on="1"/>
        <pt x="72" y="70" on="1"/>
        <pt x="436" y="615" on="1"/>
        <pt x="108" y="615" on="1"/>
        <pt x="108" y="688" on="1"/>
        <pt x="528" y="688" on="1"/>
        <pt x="528" y="618" on="1"/>
        <pt x="166" y="74" on="1"/>
        <pt x="527" y="74" on="1"/>
      </contour>
    </TTGlyph>
    <TTGlyph name="Zacute" xMin="72" yMin="0" xMax="528" yMax="905">
      <component glyphName="Z" x="0" y="0" flags="0x0"/>
      <component glyphName="acute.case" x="22" y="0" flags="0x0"/>
    </TTGlyph>
    <TTGlyph name="Zacute.loclPLK" xMin="72" yMin="0" xMax="528" yMax="914">
      <component glyphName="Z" x="0" y="0" flags="0x0"/>
      <component glyphName="acute.case.loclPLK" x="53" y="0" flags="0x0"/>
    </TTGlyph>
    <TTGlyph name="Zcaron" xMin="72" yMin="0" xMax="528" yMax="904">
      <component glyphName="Z" x="0" y="0" flags="0x0"/>
      <component glyphName="caron.case" x="19" y="0" flags="0x0"/>
    </TTGlyph>
    <TTGlyph name="Zdotaccent" xMin="72" yMin="0" xMax="528" yMax="892">
      <component glyphName="Z" x="0" y="0" flags="0x0"/>
      <component glyphName="dotaccent.case" x="19" y="0" flags="0x0"/>
    </TTGlyph>
    <TTGlyph name="Zeta" xMin="72" yMin="0" xMax="528" yMax="688">
      <component glyphName="Z" x="0" y="0" flags="0x0"/>
    </TTGlyph>
    <TTGlyph name="a" xMin="69" yMin="-12" xMax="520" yMax="538">
      <contour>
        <pt x="477" y="84" on="0"/>
        <pt x="497" y="54" on="0"/>
        <pt x="520" y="47" on="1"/>
        <pt x="500" y="-12" on="1"/>
        <pt x="425" y="-2" on="0"/>
        <pt x="404" y="63" on="1"/>
        <pt x="376" y="27" on="0"/>
        <pt x="291" y="-11" on="0"/>
        <pt x="239" y="-11" on="1"/>
        <pt x="160" y="-11" on="0"/>
        <pt x="69" y="77" on="0"/>
        <pt x="69" y="151" on="1"/>
        <pt x="69" y="232" on="0"/>
        <pt x="196" y="320" on="0"/>
        <pt x="316" y="320" on="1"/>
        <pt x="393" y="320" on="1"/>
        <pt x="393" y="364" on="1"/>
        <pt x="393" y="419" on="0"/>
        <pt x="329" y="468" on="0"/>
        <pt x="268" y="468" on="1"/>
        <pt x="205" y="468" on="0"/>
        <pt x="131" y="442" on="1"/>
        <pt x="109" y="504" on="1"/>
        <pt x="200" y="538" on="0"/>
        <pt x="280" y="538" on="1"/>
        <pt x="376" y="538" on="0"/>
        <pt x="477" y="448" on="0"/>
        <pt x="477" y="368" on="1"/>
        <pt x="477" y="114" on="1"/>
      </contour>
      <contour>
        <pt x="299" y="52" on="0"/>
        <pt x="370" y="91" on="0"/>
        <pt x="393" y="127" on="1"/>
        <pt x="393" y="263" on="1"/>
        <pt x="317" y="263" on="1"/>
        <pt x="233" y="263" on="0"/>
        <pt x="158" y="206" on="0"/>
        <pt x="158" y="152" on="1"/>
        <pt x="158" y="52" on="0"/>
        <pt x="260" y="52" on="1"/>
      </contour>
    </TTGlyph>
    <TTGlyph name="aacute" xMin="69" yMin="-12" xMax="520" yMax="785">
      <component glyphName="a" x="0" y="0" flags="0x0"/>
      <component glyphName="acute" x="-8" y="0" flags="0x0"/>
    </TTGlyph>
    <TTGlyph name="abreve" xMin="69" yMin="-12" xMax="520" yMax="778">
      <component glyphName="a" x="0" y="0" flags="0x0"/>
      <component glyphName="breve" x="-8" y="0" flags="0x0"/>
    </TTGlyph>
    <TTGlyph name="acircumflex" xMin="69" yMin="-12" xMax="520" yMax="789">
      <component glyphName="a" x="0" y="0" flags="0x0"/>
      <component glyphName="circumflex" x="-8" y="0" flags="0x0"/>
    </TTGlyph>
    <TTGlyph name="acute" xMin="185" yMin="624" xMax="414" yMax="785">
      <contour>
        <pt x="414" y="714" on="1"/>
        <pt x="213" y="624" on="1"/>
        <pt x="185" y="670" on="1"/>
        <pt x="370" y="785" on="1"/>
      </contour>
    </TTGlyph>
    <TTGlyph name="acute.case" xMin="182" yMin="756" xMax="417" yMax="905">
      <contour>
        <pt x="204" y="756" on="1"/>
        <pt x="182" y="800" on="1"/>
        <pt x="380" y="905" on="1"/>
        <pt x="417" y="834" on="1"/>
      </contour>
    </TTGlyph>
    <TTGlyph name="acute.case.loclPLK" xMin="215" yMin="728" xMax="386" yMax="914">
      <contour>
        <pt x="256" y="728" on="1"/>
        <pt x="215" y="753" on="1"/>
        <pt x="321" y="914" on="1"/>
        <pt x="386" y="871" on="1"/>
      </contour>
    </TTGlyph>
    <TTGlyph name="acute.loclPLK" xMin="215" yMin="576" xMax="385" yMax="770">
      <contour>
        <pt x="256" y="576" on="1"/>
        <pt x="215" y="602" on="1"/>
        <pt x="320" y="770" on="1"/>
        <pt x="385" y="728" on="1"/>
      </contour>
    </TTGlyph>
    <TTGlyph name="acutecomb" xMin="182" yMin="618" xMax="418" yMax="768">
      <contour>
        <pt x="205" y="618" on="1"/>
        <pt x="182" y="663" on="1"/>
        <pt x="380" y="768" on="1"/>
        <pt x="418" y="697" on="1"/>
      </contour>
    </TTGlyph>
    <TTGlyph name="adieresis" xMin="69" yMin="-12" xMax="520" yMax="755">
      <component glyphName="a" x="0" y="0" flags="0x0"/>
      <component glyphName="dieresis" x="-8" y="0" flags="0x0"/>
    </TTGlyph>
    <TTGlyph name="ae" xMin="-6" yMin="-11" xMax="607" yMax="538">
      <contour>
        <pt x="522" y="538" on="0"/>
        <pt x="607" y="403" on="0"/>
        <pt x="607" y="279" on="1"/>
        <pt x="607" y="257" on="0"/>
        <pt x="605" y="233" on="1"/>
        <pt x="335" y="233" on="1"/>
        <pt x="342" y="143" on="0"/>
        <pt x="396" y="59" on="0"/>
        <pt x="448" y="59" on="1"/>
        <pt x="476" y="59" on="0"/>
        <pt x="520" y="78" on="0"/>
        <pt x="548" y="98" on="1"/>
        <pt x="586" y="41" on="1"/>
        <pt x="554" y="15" on="0"/>
        <pt x="488" y="-11" on="0"/>
        <pt x="447" y="-11" on="1"/>
        <pt x="396" y="-11" on="0"/>
        <pt x="325" y="34" on="0"/>
        <pt x="299" y="78" on="1"/>
        <pt x="264" y="30" on="0"/>
        <pt x="195" y="-11" on="0"/>
        <pt x="146" y="-11" on="1"/>
        <pt x="76" y="-11" on="0"/>
        <pt x="-6" y="77" on="0"/>
        <pt x="-6" y="151" on="1"/>
        <pt x="-6" y="233" on="0"/>
        <pt x="103" y="320" on="0"/>
        <pt x="208" y="320" on="1"/>
        <pt x="254" y="320" on="1"/>
        <pt x="254" y="364" on="1"/>
        <pt x="254" y="468" on="0"/>
        <pt x="163" y="468" on="1"/>
        <pt x="137" y="468" on="0"/>
        <pt x="93" y="456" on="0"/>
        <pt x="58" y="441" on="1"/>
        <pt x="36" y="504" on="1"/>
        <pt x="107" y="538" on="0"/>
        <pt x="171" y="538" on="1"/>
        <pt x="228" y="538" on="0"/>
        <pt x="292" y="493" on="0"/>
        <pt x="309" y="450" on="1"/>
        <pt x="323" y="491" on="0"/>
        <pt x="388" y="538" on="0"/>
        <pt x="435" y="538" on="1"/>
      </contour>
      <contour>
        <pt x="386" y="468" on="0"/>
        <pt x="342" y="391" on="0"/>
        <pt x="335" y="298" on="1"/>
        <pt x="525" y="298" on="1"/>
        <pt x="523" y="385" on="0"/>
        <pt x="482" y="468" on="0"/>
        <pt x="432" y="468" on="1"/>
      </contour>
      <contour>
        <pt x="143" y="263" on="0"/>
        <pt x="84" y="207" on="0"/>
        <pt x="84" y="156" on="1"/>
        <pt x="84" y="106" on="0"/>
        <pt x="124" y="53" on="0"/>
        <pt x="158" y="53" on="1"/>
        <pt x="190" y="53" on="0"/>
        <pt x="239" y="99" on="0"/>
        <pt x="268" y="150" on="1"/>
        <pt x="254" y="196" on="0"/>
        <pt x="254" y="263" on="1"/>
        <pt x="211" y="263" on="1"/>
      </contour>
    </TTGlyph>
    <TTGlyph name="aeacute" xMin="-6" yMin="-11" xMax="607" yMax="785">
      <component glyphName="ae" x="0" y="0" flags="0x0"/>
      <component glyphName="acute" x="9" y="0" flags="0x0"/>
    </TTGlyph>
    <TTGlyph name="agrave" xMin="69" yMin="-12" xMax="520" yMax="787">
      <component glyphName="a" x="0" y="0" flags="0x0"/>
      <component glyphName="grave" x="-8" y="0" flags="0x0"/>
    </TTGlyph>
    <TTGlyph name="alpha" xMin="59" yMin="-12" xMax="544" yMax="538">
      <contour>
        <pt x="325" y="538" on="0"/>
        <pt x="405" y="463" on="0"/>
        <pt x="421" y="372" on="1"/>
        <pt x="448" y="526" on="1"/>
        <pt x="524" y="526" on="1"/>
        <pt x="473" y="245" on="1"/>
        <pt x="499" y="109" on="1"/>
        <pt x="502" y="90" on="0"/>
        <pt x="522" y="66" on="0"/>
        <pt x="544" y="58" on="1"/>
        <pt x="514" y="-12" on="1"/>
        <pt x="481" y="-7" on="0"/>
        <pt x="428" y="43" on="0"/>
        <pt x="422" y="83" on="1"/>
        <pt x="414" y="139" on="1"/>
        <pt x="362" y="-11" on="0"/>
        <pt x="250" y="-11" on="1"/>
        <pt x="158" y="-11" on="0"/>
        <pt x="59" y="124" on="0"/>
        <pt x="59" y="258" on="1"/>
        <pt x="59" y="384" on="0"/>
        <pt x="160" y="538" on="0"/>
        <pt x="255" y="538" on="1"/>
      </contour>
      <contour>
        <pt x="207" y="471" on="0"/>
        <pt x="148" y="361" on="0"/>
        <pt x="148" y="258" on="1"/>
        <pt x="148" y="155" on="0"/>
        <pt x="202" y="56" on="0"/>
        <pt x="257" y="56" on="1"/>
        <pt x="302" y="56" on="0"/>
        <pt x="376" y="146" on="0"/>
        <pt x="400" y="267" on="1"/>
        <pt x="380" y="383" on="0"/>
        <pt x="314" y="471" on="0"/>
        <pt x="261" y="471" on="1"/>
      </contour>
    </TTGlyph>
    <TTGlyph name="alphatonos" xMin="59" yMin="-12" xMax="544" yMax="806">
      <component glyphName="alpha" x="0" y="0" flags="0x0"/>
      <component glyphName="tonos" x="6" y="0" flags="0x0"/>
    </TTGlyph>
    <TTGlyph name="amacron" xMin="69" yMin="-12" xMax="520" yMax="740">
      <component glyphName="a" x="0" y="0" flags="0x0"/>
      <component glyphName="macron" x="-8" y="0" flags="0x0"/>
    </TTGlyph>
    <TTGlyph name="ampersand" xMin="54" yMin="-11" xMax="573" yMax="699">
      <contour>
        <pt x="327" y="699" on="0"/>
        <pt x="407" y="666" on="0"/>
        <pt x="446" y="624" on="1"/>
        <pt x="396" y="579" on="1"/>
        <pt x="369" y="609" on="0"/>
        <pt x="314" y="636" on="0"/>
        <pt x="278" y="636" on="1"/>
        <pt x="226" y="636" on="0"/>
        <pt x="172" y="581" on="0"/>
        <pt x="172" y="534" on="1"/>
        <pt x="172" y="504" on="0"/>
        <pt x="205" y="451" on="0"/>
        <pt x="261" y="419" on="0"/>
        <pt x="295" y="419" on="1"/>
        <pt x="573" y="419" on="1"/>
        <pt x="573" y="354" on="1"/>
        <pt x="484" y="354" on="1"/>
        <pt x="484" y="81" on="1"/>
        <pt x="454" y="44" on="0"/>
        <pt x="354" y="-11" on="0"/>
        <pt x="276" y="-11" on="1"/>
        <pt x="202" y="-11" on="0"/>
        <pt x="102" y="47" on="0"/>
        <pt x="54" y="141" on="0"/>
        <pt x="54" y="195" on="1"/>
        <pt x="54" y="272" on="0"/>
        <pt x="135" y="371" on="0"/>
        <pt x="211" y="387" on="1"/>
        <pt x="211" y="390" on="1"/>
        <pt x="147" y="405" on="0"/>
        <pt x="90" y="482" on="0"/>
        <pt x="90" y="534" on="1"/>
        <pt x="90" y="578" on="0"/>
        <pt x="136" y="654" on="0"/>
        <pt x="222" y="699" on="0"/>
        <pt x="279" y="699" on="1"/>
      </contour>
      <contour>
        <pt x="234" y="354" on="0"/>
        <pt x="167" y="308" on="0"/>
        <pt x="135" y="236" on="0"/>
        <pt x="135" y="198" on="1"/>
        <pt x="135" y="138" on="0"/>
        <pt x="207" y="56" on="0"/>
        <pt x="279" y="56" on="1"/>
        <pt x="320" y="56" on="0"/>
        <pt x="388" y="84" on="0"/>
        <pt x="408" y="109" on="1"/>
        <pt x="408" y="354" on="1"/>
        <pt x="283" y="354" on="1"/>
      </contour>
    </TTGlyph>
    <TTGlyph name="aogonek" xMin="69" yMin="-241" xMax="520" yMax="538">
      <contour>
        <pt x="428" y="-44" on="0"/>
        <pt x="376" y="-97" on="0"/>
        <pt x="376" y="-127" on="1"/>
        <pt x="376" y="-150" on="0"/>
        <pt x="402" y="-174" on="0"/>
        <pt x="431" y="-174" on="1"/>
        <pt x="464" y="-174" on="0"/>
        <pt x="493" y="-167" on="1"/>
        <pt x="485" y="-234" on="1"/>
        <pt x="450" y="-241" on="0"/>
        <pt x="421" y="-241" on="1"/>
        <pt x="365" y="-241" on="0"/>
        <pt x="300" y="-185" on="0"/>
        <pt x="300" y="-143" on="1"/>
        <pt x="300" y="-95" on="0"/>
        <pt x="372" y="-21" on="0"/>
        <pt x="448" y="6" on="1"/>
        <pt x="415" y="26" on="0"/>
        <pt x="404" y="63" on="1"/>
        <pt x="376" y="27" on="0"/>
        <pt x="291" y="-11" on="0"/>
        <pt x="239" y="-11" on="1"/>
        <pt x="160" y="-11" on="0"/>
        <pt x="69" y="77" on="0"/>
        <pt x="69" y="151" on="1"/>
        <pt x="69" y="232" on="0"/>
        <pt x="196" y="320" on="0"/>
        <pt x="316" y="320" on="1"/>
        <pt x="393" y="320" on="1"/>
        <pt x="393" y="364" on="1"/>
        <pt x="393" y="419" on="0"/>
        <pt x="329" y="468" on="0"/>
        <pt x="268" y="468" on="1"/>
        <pt x="205" y="468" on="0"/>
        <pt x="131" y="442" on="1"/>
        <pt x="109" y="504" on="1"/>
        <pt x="200" y="538" on="0"/>
        <pt x="280" y="538" on="1"/>
        <pt x="376" y="538" on="0"/>
        <pt x="477" y="448" on="0"/>
        <pt x="477" y="368" on="1"/>
        <pt x="477" y="114" on="1"/>
        <pt x="477" y="84" on="0"/>
        <pt x="497" y="54" on="0"/>
        <pt x="520" y="47" on="1"/>
        <pt x="500" y="-12" on="1"/>
      </contour>
      <contour>
        <pt x="317" y="263" on="1"/>
        <pt x="233" y="263" on="0"/>
        <pt x="158" y="206" on="0"/>
        <pt x="158" y="152" on="1"/>
        <pt x="158" y="52" on="0"/>
        <pt x="260" y="52" on="1"/>
        <pt x="299" y="52" on="0"/>
        <pt x="370" y="91" on="0"/>
        <pt x="393" y="127" on="1"/>
        <pt x="393" y="263" on="1"/>
      </contour>
    </TTGlyph>
    <TTGlyph name="approxequal" xMin="95" yMin="159" xMax="505" yMax="470">
      <contour>
        <pt x="256" y="470" on="0"/>
        <pt x="301" y="452" on="0"/>
        <pt x="328" y="435" on="1"/>
        <pt x="346" y="424" on="0"/>
        <pt x="369" y="413" on="0"/>
        <pt x="380" y="413" on="1"/>
        <pt x="403" y="413" on="0"/>
        <pt x="433" y="439" on="0"/>
        <pt x="447" y="464" on="1"/>
        <pt x="505" y="434" on="1"/>
        <pt x="459" y="347" on="0"/>
        <pt x="374" y="347" on="1"/>
        <pt x="344" y="347" on="0"/>
        <pt x="299" y="365" on="0"/>
        <pt x="272" y="382" on="1"/>
        <pt x="252" y="393" on="0"/>
        <pt x="231" y="403" on="0"/>
        <pt x="220" y="403" on="1"/>
        <pt x="197" y="403" on="0"/>
        <pt x="167" y="377" on="0"/>
        <pt x="153" y="352" on="1"/>
        <pt x="95" y="383" on="1"/>
        <pt x="114" y="419" on="0"/>
        <pt x="178" y="470" on="0"/>
        <pt x="226" y="470" on="1"/>
      </contour>
      <contour>
        <pt x="256" y="281" on="0"/>
        <pt x="301" y="263" on="0"/>
        <pt x="328" y="246" on="1"/>
        <pt x="348" y="235" on="0"/>
        <pt x="369" y="225" on="0"/>
        <pt x="380" y="225" on="1"/>
        <pt x="403" y="225" on="0"/>
        <pt x="433" y="251" on="0"/>
        <pt x="447" y="275" on="1"/>
        <pt x="505" y="245" on="1"/>
        <pt x="486" y="209" on="0"/>
        <pt x="423" y="159" on="0"/>
        <pt x="374" y="159" on="1"/>
        <pt x="344" y="159" on="0"/>
        <pt x="299" y="177" on="0"/>
        <pt x="272" y="194" on="1"/>
        <pt x="252" y="205" on="0"/>
        <pt x="231" y="215" on="0"/>
        <pt x="220" y="215" on="1"/>
        <pt x="197" y="215" on="0"/>
        <pt x="167" y="189" on="0"/>
        <pt x="153" y="164" on="1"/>
        <pt x="95" y="194" on="1"/>
        <pt x="114" y="230" on="0"/>
        <pt x="178" y="281" on="0"/>
        <pt x="226" y="281" on="1"/>
      </contour>
    </TTGlyph>
    <TTGlyph name="approxequal.tosf" xMin="95" yMin="159" xMax="505" yMax="470">
      <component glyphName="approxequal" x="0" y="0" flags="0x0"/>
    </TTGlyph>
    <TTGlyph name="aring" xMin="69" yMin="-12" xMax="520" yMax="823">
      <component glyphName="a" x="0" y="0" flags="0x0"/>
      <component glyphName="ring" x="-8" y="0" flags="0x0"/>
    </TTGlyph>
    <TTGlyph name="arrowdown" xMin="-12" yMin="-36" xMax="612" yMax="631">
      <contour>
        <pt x="352" y="101" on="0"/>
        <pt x="380" y="133" on="0"/>
        <pt x="400" y="150" on="1"/>
        <pt x="562" y="299" on="1"/>
        <pt x="612" y="243" on="1"/>
        <pt x="300" y="-36" on="1"/>
        <pt x="-12" y="243" on="1"/>
        <pt x="38" y="299" on="1"/>
        <pt x="200" y="150" on="1"/>
        <pt x="239" y="116" on="0"/>
        <pt x="259" y="80" on="1"/>
        <pt x="259" y="631" on="1"/>
        <pt x="341" y="631" on="1"/>
        <pt x="341" y="80" on="1"/>
      </contour>
    </TTGlyph>
    <TTGlyph name="arrowdownwhite" xMin="0" yMin="-94" xMax="600" yMax="750">
      <contour>
        <pt x="404" y="750" on="0"/>
        <pt x="431" y="723" on="0"/>
        <pt x="431" y="700" on="1"/>
        <pt x="431" y="204" on="1"/>
        <pt x="600" y="204" on="1"/>
        <pt x="300" y="-94" on="1"/>
        <pt x="0" y="204" on="1"/>
        <pt x="169" y="204" on="1"/>
        <pt x="169" y="700" on="1"/>
        <pt x="169" y="723" on="0"/>
        <pt x="197" y="750" on="0"/>
        <pt x="219" y="750" on="1"/>
        <pt x="381" y="750" on="1"/>
      </contour>
      <contour>
        <pt x="216" y="159" on="1"/>
        <pt x="109" y="159" on="1"/>
        <pt x="300" y="-30" on="1"/>
        <pt x="491" y="159" on="1"/>
        <pt x="384" y="159" on="1"/>
        <pt x="384" y="706" on="1"/>
        <pt x="216" y="706" on="1"/>
      </contour>
    </TTGlyph>
    <TTGlyph name="arrowleft" xMin="23" yMin="25" xMax="577" yMax="633">
      <contour>
        <pt x="212" y="423" on="1"/>
        <pt x="191" y="399" on="0"/>
        <pt x="169" y="379" on="0"/>
        <pt x="149" y="366" on="1"/>
        <pt x="577" y="366" on="1"/>
        <pt x="577" y="292" on="1"/>
        <pt x="149" y="292" on="1"/>
        <pt x="179" y="273" on="0"/>
        <pt x="212" y="235" on="1"/>
        <pt x="356" y="77" on="1"/>
        <pt x="294" y="25" on="1"/>
        <pt x="23" y="329" on="1"/>
        <pt x="294" y="633" on="1"/>
        <pt x="356" y="581" on="1"/>
      </contour>
    </TTGlyph>
    <TTGlyph name="arrowleftwhite" xMin="-40" yMin="13" xMax="640" yMax="613">
      <contour>
        <pt x="590" y="437" on="1"/>
        <pt x="613" y="437" on="0"/>
        <pt x="640" y="410" on="0"/>
        <pt x="640" y="387" on="1"/>
        <pt x="640" y="239" on="1"/>
        <pt x="640" y="217" on="0"/>
        <pt x="613" y="189" on="0"/>
        <pt x="590" y="189" on="1"/>
        <pt x="258" y="189" on="1"/>
        <pt x="258" y="13" on="1"/>
        <pt x="-40" y="313" on="1"/>
        <pt x="258" y="613" on="1"/>
        <pt x="258" y="437" on="1"/>
      </contour>
      <contour>
        <pt x="213" y="122" on="1"/>
        <pt x="213" y="233" on="1"/>
        <pt x="596" y="233" on="1"/>
        <pt x="596" y="393" on="1"/>
        <pt x="213" y="393" on="1"/>
        <pt x="213" y="504" on="1"/>
        <pt x="24" y="313" on="1"/>
      </contour>
    </TTGlyph>
    <TTGlyph name="arrowright" xMin="23" yMin="25" xMax="577" yMax="633">
      <contour>
        <pt x="306" y="25" on="1"/>
        <pt x="244" y="77" on="1"/>
        <pt x="388" y="235" on="1"/>
        <pt x="421" y="273" on="0"/>
        <pt x="451" y="292" on="1"/>
        <pt x="23" y="292" on="1"/>
        <pt x="23" y="366" on="1"/>
        <pt x="451" y="366" on="1"/>
        <pt x="431" y="379" on="0"/>
        <pt x="409" y="399" on="0"/>
        <pt x="388" y="423" on="1"/>
        <pt x="244" y="581" on="1"/>
        <pt x="306" y="633" on="1"/>
        <pt x="577" y="329" on="1"/>
      </contour>
    </TTGlyph>
    <TTGlyph name="arrowrightwhite" xMin="-40" yMin="13" xMax="640" yMax="613">
      <contour>
        <pt x="342" y="13" on="1"/>
        <pt x="342" y="189" on="1"/>
        <pt x="10" y="189" on="1"/>
        <pt x="-13" y="189" on="0"/>
        <pt x="-40" y="217" on="0"/>
        <pt x="-40" y="239" on="1"/>
        <pt x="-40" y="387" on="1"/>
        <pt x="-40" y="410" on="0"/>
        <pt x="-13" y="437" on="0"/>
        <pt x="10" y="437" on="1"/>
        <pt x="342" y="437" on="1"/>
        <pt x="342" y="613" on="1"/>
        <pt x="640" y="313" on="1"/>
      </contour>
      <contour>
        <pt x="4" y="393" on="1"/>
        <pt x="4" y="233" on="1"/>
        <pt x="387" y="233" on="1"/>
        <pt x="387" y="122" on="1"/>
        <pt x="576" y="313" on="1"/>
        <pt x="387" y="504" on="1"/>
        <pt x="387" y="393" on="1"/>
      </contour>
    </TTGlyph>
    <TTGlyph name="arrowup" xMin="-12" yMin="0" xMax="612" yMax="667">
      <contour>
        <pt x="562" y="332" on="1"/>
        <pt x="400" y="481" on="1"/>
        <pt x="380" y="498" on="0"/>
        <pt x="352" y="530" on="0"/>
        <pt x="341" y="551" on="1"/>
        <pt x="341" y="0" on="1"/>
        <pt x="259" y="0" on="1"/>
        <pt x="259" y="551" on="1"/>
        <pt x="239" y="515" on="0"/>
        <pt x="200" y="481" on="1"/>
        <pt x="38" y="332" on="1"/>
        <pt x="-12" y="388" on="1"/>
        <pt x="300" y="667" on="1"/>
        <pt x="612" y="388" on="1"/>
      </contour>
    </TTGlyph>
    <TTGlyph name="arrowupdn" xMin="-12" yMin="-185" xMax="612" yMax="865">
      <contour>
        <pt x="562" y="530" on="1"/>
        <pt x="400" y="679" on="1"/>
        <pt x="380" y="696" on="0"/>
        <pt x="352" y="728" on="0"/>
        <pt x="341" y="748" on="1"/>
        <pt x="341" y="-68" on="1"/>
        <pt x="352" y="-48" on="0"/>
        <pt x="380" y="-16" on="0"/>
        <pt x="400" y="1" on="1"/>
        <pt x="562" y="150" on="1"/>
        <pt x="612" y="94" on="1"/>
        <pt x="300" y="-185" on="1"/>
        <pt x="-12" y="94" on="1"/>
        <pt x="38" y="150" on="1"/>
        <pt x="200" y="2" on="1"/>
        <pt x="221" y="-17" on="0"/>
        <pt x="248" y="-47" on="0"/>
        <pt x="259" y="-69" on="1"/>
        <pt x="259" y="749" on="1"/>
        <pt x="248" y="727" on="0"/>
        <pt x="221" y="697" on="0"/>
        <pt x="200" y="678" on="1"/>
        <pt x="38" y="530" on="1"/>
        <pt x="-12" y="586" on="1"/>
        <pt x="300" y="865" on="1"/>
        <pt x="612" y="586" on="1"/>
      </contour>
    </TTGlyph>
    <TTGlyph name="arrowupwhite" xMin="0" yMin="-12" xMax="600" yMax="832">
      <contour>
        <pt x="431" y="534" on="1"/>
        <pt x="431" y="38" on="1"/>
        <pt x="431" y="16" on="0"/>
        <pt x="404" y="-12" on="0"/>
        <pt x="381" y="-12" on="1"/>
        <pt x="219" y="-12" on="1"/>
        <pt x="197" y="-12" on="0"/>
        <pt x="169" y="16" on="0"/>
        <pt x="169" y="38" on="1"/>
        <pt x="169" y="534" on="1"/>
        <pt x="0" y="534" on="1"/>
        <pt x="300" y="832" on="1"/>
        <pt x="600" y="534" on="1"/>
      </contour>
      <contour>
        <pt x="216" y="579" on="1"/>
        <pt x="216" y="32" on="1"/>
        <pt x="384" y="32" on="1"/>
        <pt x="384" y="579" on="1"/>
        <pt x="491" y="579" on="1"/>
        <pt x="300" y="768" on="1"/>
        <pt x="109" y="579" on="1"/>
      </contour>
    </TTGlyph>
    <TTGlyph name="asciicircum" xMin="74" yMin="527" xMax="526" yMax="839">
      <contour>
        <pt x="435" y="527" on="1"/>
        <pt x="299" y="765" on="1"/>
        <pt x="163" y="527" on="1"/>
        <pt x="74" y="527" on="1"/>
        <pt x="263" y="839" on="1"/>
        <pt x="337" y="839" on="1"/>
        <pt x="526" y="527" on="1"/>
      </contour>
    </TTGlyph>
    <TTGlyph name="asciitilde" xMin="44" yMin="228" xMax="556" yMax="400">
      <contour>
        <pt x="243" y="400" on="0"/>
        <pt x="296" y="369" on="0"/>
        <pt x="326" y="341" on="1"/>
        <pt x="349" y="320" on="0"/>
        <pt x="380" y="300" on="0"/>
        <pt x="398" y="300" on="1"/>
        <pt x="450" y="300" on="0"/>
        <pt x="497" y="385" on="1"/>
        <pt x="556" y="354" on="1"/>
        <pt x="527" y="298" on="0"/>
        <pt x="454" y="228" on="0"/>
        <pt x="395" y="228" on="1"/>
        <pt x="361" y="228" on="0"/>
        <pt x="312" y="257" on="0"/>
        <pt x="279" y="285" on="1"/>
        <pt x="256" y="307" on="0"/>
        <pt x="222" y="328" on="0"/>
        <pt x="202" y="328" on="1"/>
        <pt x="172" y="328" on="0"/>
        <pt x="125" y="283" on="0"/>
        <pt x="103" y="243" on="1"/>
        <pt x="44" y="273" on="1"/>
        <pt x="72" y="330" on="0"/>
        <pt x="145" y="400" on="0"/>
        <pt x="205" y="400" on="1"/>
      </contour>
    </TTGlyph>
    <TTGlyph name="asciitilde.tosf" xMin="44" yMin="228" xMax="556" yMax="400">
      <component glyphName="asciitilde" x="0" y="0" flags="0x0"/>
    </TTGlyph>
    <TTGlyph name="asterisk" xMin="96" yMin="135" xMax="504" yMax="526">
      <contour>
        <pt x="479" y="425" on="1"/>
        <pt x="504" y="345" on="1"/>
        <pt x="346" y="309" on="1"/>
        <pt x="456" y="189" on="1"/>
        <pt x="388" y="137" on="1"/>
        <pt x="301" y="278" on="1"/>
        <pt x="220" y="135" on="1"/>
        <pt x="149" y="182" on="1"/>
        <pt x="256" y="309" on="1"/>
        <pt x="96" y="345" on="1"/>
        <pt x="122" y="425" on="1"/>
        <pt x="272" y="362" on="1"/>
        <pt x="258" y="526" on="1"/>
        <pt x="342" y="526" on="1"/>
        <pt x="327" y="362" on="1"/>
      </contour>
    </TTGlyph>
    <TTGlyph name="at" xMin="9" yMin="-91" xMax="585" yMax="700">
      <contour>
        <pt x="459" y="700" on="0"/>
        <pt x="585" y="471" on="0"/>
        <pt x="585" y="285" on="1"/>
        <pt x="585" y="151" on="0"/>
        <pt x="561" y="-10" on="0"/>
        <pt x="498" y="-91" on="0"/>
        <pt x="439" y="-91" on="1"/>
        <pt x="400" y="-91" on="0"/>
        <pt x="346" y="-43" on="0"/>
        <pt x="320" y="24" on="0"/>
        <pt x="321" y="52" on="1"/>
        <pt x="317" y="52" on="1"/>
        <pt x="277" y="-46" on="0"/>
        <pt x="180" y="-46" on="1"/>
        <pt x="103" y="-46" on="0"/>
        <pt x="30" y="78" on="0"/>
        <pt x="30" y="184" on="1"/>
        <pt x="30" y="312" on="0"/>
        <pt x="131" y="441" on="0"/>
        <pt x="226" y="441" on="1"/>
        <pt x="263" y="441" on="0"/>
        <pt x="326" y="425" on="0"/>
        <pt x="366" y="404" on="1"/>
        <pt x="366" y="109" on="1"/>
        <pt x="366" y="34" on="0"/>
        <pt x="404" y="-23" on="0"/>
        <pt x="437" y="-23" on="1"/>
        <pt x="467" y="-23" on="0"/>
        <pt x="494" y="54" on="0"/>
        <pt x="500" y="174" on="0"/>
        <pt x="500" y="284" on="1"/>
        <pt x="500" y="391" on="0"/>
        <pt x="467" y="539" on="0"/>
        <pt x="372" y="627" on="0"/>
        <pt x="285" y="627" on="1"/>
        <pt x="228" y="627" on="0"/>
        <pt x="117" y="587" on="0"/>
        <pt x="58" y="535" on="1"/>
        <pt x="9" y="590" on="1"/>
        <pt x="74" y="646" on="0"/>
        <pt x="214" y="700" on="0"/>
        <pt x="284" y="700" on="1"/>
      </contour>
      <contour>
        <pt x="163" y="380" on="0"/>
        <pt x="110" y="285" on="0"/>
        <pt x="110" y="184" on="1"/>
        <pt x="110" y="105" on="0"/>
        <pt x="147" y="17" on="0"/>
        <pt x="190" y="17" on="1"/>
        <pt x="235" y="17" on="0"/>
        <pt x="278" y="67" on="0"/>
        <pt x="294" y="105" on="1"/>
        <pt x="294" y="365" on="1"/>
        <pt x="265" y="380" on="0"/>
        <pt x="230" y="380" on="1"/>
      </contour>
    </TTGlyph>
    <TTGlyph name="atilde" xMin="69" yMin="-12" xMax="520" yMax="765">
      <component glyphName="a" x="0" y="0" flags="0x0"/>
      <component glyphName="tilde" x="-8" y="0" flags="0x0"/>
    </TTGlyph>
    <TTGlyph name="b" xMin="101" yMin="-11" xMax="532" yMax="749">
      <contour>
        <pt x="213" y="497" on="0"/>
        <pt x="289" y="538" on="0"/>
        <pt x="334" y="538" on="1"/>
        <pt x="436" y="538" on="0"/>
        <pt x="532" y="394" on="0"/>
        <pt x="532" y="264" on="1"/>
        <pt x="532" y="140" on="0"/>
        <pt x="422" y="-11" on="0"/>
        <pt x="323" y="-11" on="1"/>
        <pt x="230" y="-11" on="0"/>
        <pt x="180" y="55" on="1"/>
        <pt x="174" y="0" on="1"/>
        <pt x="101" y="0" on="1"/>
        <pt x="101" y="739" on="1"/>
        <pt x="184" y="749" on="1"/>
        <pt x="184" y="458" on="1"/>
      </contour>
      <contour>
        <pt x="371" y="56" on="0"/>
        <pt x="441" y="160" on="0"/>
        <pt x="441" y="264" on="1"/>
        <pt x="441" y="367" on="0"/>
        <pt x="378" y="471" on="0"/>
        <pt x="316" y="471" on="1"/>
        <pt x="275" y="471" on="0"/>
        <pt x="208" y="423" on="0"/>
        <pt x="184" y="386" on="1"/>
        <pt x="184" y="124" on="1"/>
        <pt x="205" y="92" on="0"/>
        <pt x="268" y="56" on="0"/>
        <pt x="304" y="56" on="1"/>
      </contour>
    </TTGlyph>
    <TTGlyph name="backslash" xMin="53" yMin="-103" xMax="547" yMax="809">
      <contour>
        <pt x="547" y="-73" on="1"/>
        <pt x="480" y="-103" on="1"/>
        <pt x="53" y="777" on="1"/>
        <pt x="119" y="809" on="1"/>
      </contour>
    </TTGlyph>
    <TTGlyph name="bar" xMin="262" yMin="-102" xMax="337" yMax="807">
      <contour>
        <pt x="262" y="-102" on="1"/>
        <pt x="262" y="807" on="1"/>
        <pt x="337" y="807" on="1"/>
        <pt x="337" y="-102" on="1"/>
      </contour>
    </TTGlyph>
    <TTGlyph name="beta" xMin="92" yMin="-212" xMax="547" yMax="748">
      <contour>
        <pt x="547" y="380" on="0"/>
        <pt x="547" y="202" on="1"/>
        <pt x="547" y="138" on="0"/>
        <pt x="485" y="41" on="0"/>
        <pt x="383" y="-11" on="0"/>
        <pt x="325" y="-11" on="1"/>
        <pt x="239" y="-11" on="0"/>
        <pt x="174" y="41" on="1"/>
        <pt x="174" y="-201" on="1"/>
        <pt x="92" y="-212" on="1"/>
        <pt x="92" y="540" on="1"/>
        <pt x="92" y="638" on="0"/>
        <pt x="198" y="748" on="0"/>
        <pt x="292" y="748" on="1"/>
        <pt x="347" y="748" on="0"/>
        <pt x="438" y="706" on="0"/>
        <pt x="492" y="626" on="0"/>
        <pt x="492" y="572" on="1"/>
        <pt x="492" y="497" on="0"/>
        <pt x="407" y="412" on="0"/>
        <pt x="341" y="404" on="1"/>
      </contour>
      <contour>
        <pt x="380" y="57" on="0"/>
        <pt x="462" y="133" on="0"/>
        <pt x="462" y="202" on="1"/>
        <pt x="462" y="283" on="0"/>
        <pt x="369" y="366" on="0"/>
        <pt x="281" y="366" on="1"/>
        <pt x="227" y="366" on="1"/>
        <pt x="237" y="430" on="1"/>
        <pt x="290" y="430" on="1"/>
        <pt x="346" y="430" on="0"/>
        <pt x="416" y="496" on="0"/>
        <pt x="416" y="563" on="1"/>
        <pt x="416" y="623" on="0"/>
        <pt x="349" y="682" on="0"/>
        <pt x="293" y="682" on="1"/>
        <pt x="174" y="682" on="0"/>
        <pt x="174" y="539" on="1"/>
        <pt x="174" y="109" on="1"/>
        <pt x="201" y="82" on="0"/>
        <pt x="270" y="57" on="0"/>
        <pt x="317" y="57" on="1"/>
      </contour>
    </TTGlyph>
    <TTGlyph name="blackDiamond" xMin="30" yMin="0" xMax="570" yMax="540">
      <contour>
        <pt x="300" y="0" on="1"/>
        <pt x="30" y="270" on="1"/>
        <pt x="300" y="540" on="1"/>
        <pt x="570" y="270" on="1"/>
      </contour>
    </TTGlyph>
    <TTGlyph name="blackcircle" xMin="30" yMin="0" xMax="570" yMax="540">
      <contour>
        <pt x="373" y="540" on="0"/>
        <pt x="497" y="467" on="0"/>
        <pt x="570" y="343" on="0"/>
        <pt x="570" y="270" on="1"/>
        <pt x="570" y="196" on="0"/>
        <pt x="497" y="72" on="0"/>
        <pt x="373" y="0" on="0"/>
        <pt x="300" y="0" on="1"/>
        <pt x="226" y="0" on="0"/>
        <pt x="102" y="72" on="0"/>
        <pt x="30" y="196" on="0"/>
        <pt x="30" y="270" on="1"/>
        <pt x="30" y="343" on="0"/>
        <pt x="102" y="467" on="0"/>
        <pt x="226" y="540" on="0"/>
        <pt x="300" y="540" on="1"/>
      </contour>
    </TTGlyph>
    <TTGlyph name="blacklowerlefttriangle" xMin="30" yMin="0" xMax="570" yMax="540">
      <contour>
        <pt x="30" y="0" on="1"/>
        <pt x="30" y="540" on="1"/>
        <pt x="570" y="0" on="1"/>
      </contour>
    </TTGlyph>
    <TTGlyph name="blacklowerrighttriangle" xMin="30" yMin="0" xMax="570" yMax="540">
      <contour>
        <pt x="30" y="0" on="1"/>
        <pt x="570" y="540" on="1"/>
        <pt x="570" y="0" on="1"/>
      </contour>
    </TTGlyph>
    <TTGlyph name="blackupperlefttriangle" xMin="30" yMin="0" xMax="570" yMax="540">
      <contour>
        <pt x="30" y="540" on="1"/>
        <pt x="570" y="540" on="1"/>
        <pt x="30" y="0" on="1"/>
      </contour>
    </TTGlyph>
    <TTGlyph name="blackupperrighttriangle" xMin="30" yMin="0" xMax="570" yMax="540">
      <contour>
        <pt x="30" y="540" on="1"/>
        <pt x="570" y="540" on="1"/>
        <pt x="570" y="0" on="1"/>
      </contour>
    </TTGlyph>
    <TTGlyph name="block" xMin="0" yMin="-500" xMax="600" yMax="1000">
      <contour>
        <pt x="0" y="-500" on="1"/>
        <pt x="0" y="1000" on="1"/>
        <pt x="600" y="1000" on="1"/>
        <pt x="600" y="-500" on="1"/>
      </contour>
    </TTGlyph>
    <TTGlyph name="braceleft" xMin="148" yMin="-135" xMax="451" yMax="835">
      <contour>
        <pt x="392" y="770" on="0"/>
        <pt x="327" y="733" on="0"/>
        <pt x="327" y="690" on="1"/>
        <pt x="327" y="484" on="1"/>
        <pt x="327" y="423" on="0"/>
        <pt x="273" y="360" on="0"/>
        <pt x="220" y="350" on="1"/>
        <pt x="275" y="340" on="0"/>
        <pt x="327" y="279" on="0"/>
        <pt x="327" y="216" on="1"/>
        <pt x="327" y="10" on="1"/>
        <pt x="327" y="-34" on="0"/>
        <pt x="392" y="-70" on="0"/>
        <pt x="451" y="-70" on="1"/>
        <pt x="451" y="-135" on="1"/>
        <pt x="357" y="-135" on="0"/>
        <pt x="249" y="-66" on="0"/>
        <pt x="249" y="20" on="1"/>
        <pt x="249" y="211" on="1"/>
        <pt x="249" y="317" on="0"/>
        <pt x="148" y="317" on="1"/>
        <pt x="148" y="383" on="1"/>
        <pt x="249" y="383" on="0"/>
        <pt x="249" y="488" on="1"/>
        <pt x="249" y="680" on="1"/>
        <pt x="249" y="766" on="0"/>
        <pt x="358" y="835" on="0"/>
        <pt x="451" y="835" on="1"/>
        <pt x="451" y="770" on="1"/>
      </contour>
    </TTGlyph>
    <TTGlyph name="braceleft.case" xMin="148" yMin="-145" xMax="451" yMax="825">
      <component glyphName="braceleft" x="0" y="-9" flags="0x0"/>
    </TTGlyph>
    <TTGlyph name="braceright" xMin="149" yMin="-135" xMax="452" yMax="835">
      <contour>
        <pt x="242" y="835" on="0"/>
        <pt x="351" y="766" on="0"/>
        <pt x="351" y="680" on="1"/>
        <pt x="351" y="488" on="1"/>
        <pt x="351" y="383" on="0"/>
        <pt x="452" y="383" on="1"/>
        <pt x="452" y="317" on="1"/>
        <pt x="351" y="317" on="0"/>
        <pt x="351" y="211" on="1"/>
        <pt x="351" y="20" on="1"/>
        <pt x="351" y="-66" on="0"/>
        <pt x="243" y="-135" on="0"/>
        <pt x="149" y="-135" on="1"/>
        <pt x="149" y="-70" on="1"/>
        <pt x="208" y="-70" on="0"/>
        <pt x="273" y="-34" on="0"/>
        <pt x="273" y="10" on="1"/>
        <pt x="273" y="216" on="1"/>
        <pt x="273" y="280" on="0"/>
        <pt x="325" y="340" on="0"/>
        <pt x="381" y="349" on="1"/>
        <pt x="327" y="360" on="0"/>
        <pt x="273" y="423" on="0"/>
        <pt x="273" y="484" on="1"/>
        <pt x="273" y="690" on="1"/>
        <pt x="273" y="733" on="0"/>
        <pt x="208" y="770" on="0"/>
        <pt x="149" y="770" on="1"/>
        <pt x="149" y="835" on="1"/>
      </contour>
    </TTGlyph>
    <TTGlyph name="braceright.case" xMin="149" yMin="-145" xMax="452" yMax="825">
      <component glyphName="braceright" x="0" y="-9" flags="0x0"/>
    </TTGlyph>
    <TTGlyph name="bracketleft" xMin="184" yMin="-115" xMax="414" yMax="815">
      <contour>
        <pt x="414" y="815" on="1"/>
        <pt x="414" y="744" on="1"/>
        <pt x="263" y="744" on="1"/>
        <pt x="263" y="-45" on="1"/>
        <pt x="414" y="-45" on="1"/>
        <pt x="414" y="-115" on="1"/>
        <pt x="184" y="-115" on="1"/>
        <pt x="184" y="815" on="1"/>
      </contour>
    </TTGlyph>
    <TTGlyph name="bracketleft.case" xMin="184" yMin="-125" xMax="414" yMax="805">
      <component glyphName="bracketleft" x="0" y="-9" flags="0x0"/>
    </TTGlyph>
    <TTGlyph name="bracketright" xMin="186" yMin="-115" xMax="416" yMax="815">
      <contour>
        <pt x="186" y="-115" on="1"/>
        <pt x="186" y="-45" on="1"/>
        <pt x="337" y="-45" on="1"/>
        <pt x="337" y="744" on="1"/>
        <pt x="186" y="744" on="1"/>
        <pt x="186" y="815" on="1"/>
        <pt x="416" y="815" on="1"/>
        <pt x="416" y="-115" on="1"/>
      </contour>
    </TTGlyph>
    <TTGlyph name="bracketright.case" xMin="186" yMin="-125" xMax="416" yMax="805">
      <component glyphName="bracketright" x="0" y="-9" flags="0x0"/>
    </TTGlyph>
    <TTGlyph name="breve" xMin="151" yMin="630" xMax="448" yMax="778">
      <contour>
        <pt x="255" y="630" on="0"/>
        <pt x="192" y="671" on="0"/>
        <pt x="155" y="733" on="0"/>
        <pt x="151" y="765" on="1"/>
        <pt x="208" y="778" on="1"/>
        <pt x="219" y="739" on="0"/>
        <pt x="264" y="694" on="0"/>
        <pt x="298" y="694" on="1"/>
        <pt x="333" y="694" on="0"/>
        <pt x="379" y="739" on="0"/>
        <pt x="391" y="778" on="1"/>
        <pt x="448" y="765" on="1"/>
        <pt x="444" y="733" on="0"/>
        <pt x="406" y="671" on="0"/>
        <pt x="341" y="630" on="0"/>
        <pt x="298" y="630" on="1"/>
      </contour>
    </TTGlyph>
    <TTGlyph name="breve.case" xMin="152" yMin="759" xMax="449" yMax="890">
      <contour>
        <pt x="241" y="759" on="0"/>
        <pt x="158" y="824" on="0"/>
        <pt x="152" y="878" on="1"/>
        <pt x="209" y="890" on="1"/>
        <pt x="220" y="859" on="0"/>
        <pt x="265" y="823" on="0"/>
        <pt x="299" y="823" on="1"/>
        <pt x="333" y="823" on="0"/>
        <pt x="381" y="859" on="0"/>
        <pt x="392" y="890" on="1"/>
        <pt x="449" y="878" on="1"/>
        <pt x="443" y="824" on="0"/>
        <pt x="358" y="759" on="0"/>
        <pt x="299" y="759" on="1"/>
      </contour>
    </TTGlyph>
    <TTGlyph name="brevecy" xMin="152" yMin="647" xMax="449" yMax="772">
      <contour>
        <pt x="240" y="647" on="0"/>
        <pt x="158" y="706" on="0"/>
        <pt x="152" y="759" on="1"/>
        <pt x="209" y="772" on="1"/>
        <pt x="220" y="740" on="0"/>
        <pt x="263" y="712" on="0"/>
        <pt x="299" y="712" on="1"/>
        <pt x="335" y="712" on="0"/>
        <pt x="381" y="740" on="0"/>
        <pt x="392" y="772" on="1"/>
        <pt x="449" y="759" on="1"/>
        <pt x="443" y="706" on="0"/>
        <pt x="359" y="647" on="0"/>
        <pt x="299" y="647" on="1"/>
      </contour>
    </TTGlyph>
    <TTGlyph name="brevecy.case" xMin="151" yMin="773" xMax="448" yMax="898">
      <contour>
        <pt x="239" y="773" on="0"/>
        <pt x="157" y="832" on="0"/>
        <pt x="151" y="885" on="1"/>
        <pt x="208" y="898" on="1"/>
        <pt x="219" y="866" on="0"/>
        <pt x="262" y="838" on="0"/>
        <pt x="298" y="838" on="1"/>
        <pt x="334" y="838" on="0"/>
        <pt x="380" y="866" on="0"/>
        <pt x="391" y="898" on="1"/>
        <pt x="448" y="885" on="1"/>
        <pt x="442" y="832" on="0"/>
        <pt x="358" y="773" on="0"/>
        <pt x="298" y="773" on="1"/>
      </contour>
    </TTGlyph>
    <TTGlyph name="brokenbar" xMin="262" yMin="-102" xMax="337" yMax="807">
      <contour>
        <pt x="262" y="452" on="1"/>
        <pt x="262" y="807" on="1"/>
        <pt x="337" y="807" on="1"/>
        <pt x="337" y="452" on="1"/>
      </contour>
      <contour>
        <pt x="262" y="-102" on="1"/>
        <pt x="262" y="253" on="1"/>
        <pt x="337" y="253" on="1"/>
        <pt x="337" y="-102" on="1"/>
      </contour>
    </TTGlyph>
    <TTGlyph name="bullet" xMin="179" yMin="221" xMax="421" yMax="462">
      <contour>
        <pt x="248" y="221" on="0"/>
        <pt x="179" y="290" on="0"/>
        <pt x="179" y="342" on="1"/>
        <pt x="179" y="394" on="0"/>
        <pt x="247" y="462" on="0"/>
        <pt x="300" y="462" on="1"/>
        <pt x="353" y="462" on="0"/>
        <pt x="421" y="394" on="0"/>
        <pt x="421" y="341" on="1"/>
        <pt x="421" y="289" on="0"/>
        <pt x="353" y="221" on="0"/>
        <pt x="300" y="221" on="1"/>
      </contour>
    </TTGlyph>
    <TTGlyph name="bulletoperator" xMin="212" yMin="254" xMax="387" yMax="429">
      <component glyphName="periodcentered" x="0" y="0" flags="0x0"/>
    </TTGlyph>
    <TTGlyph name="bullseye" xMin="30" yMin="0" xMax="570" yMax="540">
      <contour>
        <pt x="373" y="540" on="0"/>
        <pt x="497" y="467" on="0"/>
        <pt x="570" y="343" on="0"/>
        <pt x="570" y="270" on="1"/>
        <pt x="570" y="196" on="0"/>
        <pt x="497" y="72" on="0"/>
        <pt x="373" y="0" on="0"/>
        <pt x="300" y="0" on="1"/>
        <pt x="226" y="0" on="0"/>
        <pt x="102" y="72" on="0"/>
        <pt x="30" y="196" on="0"/>
        <pt x="30" y="270" on="1"/>
        <pt x="30" y="343" on="0"/>
        <pt x="102" y="467" on="0"/>
        <pt x="226" y="540" on="0"/>
        <pt x="300" y="540" on="1"/>
      </contour>
      <contour>
        <pt x="248" y="460" on="0"/>
        <pt x="161" y="409" on="0"/>
        <pt x="110" y="321" on="0"/>
        <pt x="110" y="270" on="1"/>
        <pt x="110" y="218" on="0"/>
        <pt x="161" y="131" on="0"/>
        <pt x="248" y="80" on="0"/>
        <pt x="300" y="80" on="1"/>
        <pt x="351" y="80" on="0"/>
        <pt x="439" y="131" on="0"/>
        <pt x="490" y="218" on="0"/>
        <pt x="490" y="270" on="1"/>
        <pt x="490" y="321" on="0"/>
        <pt x="438" y="408" on="0"/>
        <pt x="351" y="460" on="0"/>
        <pt x="300" y="460" on="1"/>
      </contour>
      <contour>
        <pt x="345" y="380" on="0"/>
        <pt x="410" y="315" on="0"/>
        <pt x="410" y="270" on="1"/>
        <pt x="410" y="224" on="0"/>
        <pt x="345" y="160" on="0"/>
        <pt x="300" y="160" on="1"/>
        <pt x="254" y="160" on="0"/>
        <pt x="190" y="224" on="0"/>
        <pt x="190" y="270" on="1"/>
        <pt x="190" y="315" on="0"/>
        <pt x="254" y="380" on="0"/>
        <pt x="300" y="380" on="1"/>
      </contour>
      <contour>
        <pt x="287" y="300" on="0"/>
        <pt x="270" y="282" on="0"/>
        <pt x="270" y="270" on="1"/>
        <pt x="270" y="257" on="0"/>
        <pt x="287" y="240" on="0"/>
        <pt x="300" y="240" on="1"/>
        <pt x="312" y="240" on="0"/>
        <pt x="330" y="257" on="0"/>
        <pt x="330" y="270" on="1"/>
        <pt x="330" y="282" on="0"/>
        <pt x="312" y="300" on="0"/>
        <pt x="300" y="300" on="1"/>
      </contour>
    </TTGlyph>
    <TTGlyph name="c" xMin="92" yMin="-11" xMax="516" yMax="538">
      <contour>
        <pt x="413" y="60" on="0"/>
        <pt x="476" y="110" on="1"/>
        <pt x="516" y="52" on="1"/>
        <pt x="482" y="23" on="0"/>
        <pt x="385" y="-11" on="0"/>
        <pt x="338" y="-11" on="1"/>
        <pt x="222" y="-11" on="0"/>
        <pt x="92" y="136" on="0"/>
        <pt x="92" y="261" on="1"/>
        <pt x="92" y="341" on="0"/>
        <pt x="151" y="466" on="0"/>
        <pt x="262" y="538" on="0"/>
        <pt x="339" y="538" on="1"/>
        <pt x="439" y="538" on="0"/>
        <pt x="515" y="476" on="1"/>
        <pt x="473" y="419" on="1"/>
        <pt x="408" y="468" on="0"/>
        <pt x="338" y="468" on="1"/>
        <pt x="267" y="468" on="0"/>
        <pt x="182" y="362" on="0"/>
        <pt x="182" y="261" on="1"/>
        <pt x="182" y="160" on="0"/>
        <pt x="267" y="60" on="0"/>
        <pt x="338" y="60" on="1"/>
      </contour>
    </TTGlyph>
    <TTGlyph name="cacute" xMin="92" yMin="-11" xMax="516" yMax="777">
      <component glyphName="c" x="0" y="0" flags="0x0"/>
      <component glyphName="acute" x="44" y="-8" flags="0x0"/>
    </TTGlyph>
    <TTGlyph name="cacute.loclPLK" xMin="92" yMin="-11" xMax="516" yMax="762">
      <component glyphName="c" x="0" y="0" flags="0x0"/>
      <component glyphName="acute.loclPLK" x="79" y="-8" flags="0x0"/>
    </TTGlyph>
    <TTGlyph name="capslock" xMin="0" yMin="-12" xMax="600" yMax="832">
      <contour>
        <pt x="431" y="534" on="1"/>
        <pt x="431" y="255" on="1"/>
        <pt x="169" y="255" on="1"/>
        <pt x="169" y="534" on="1"/>
        <pt x="0" y="534" on="1"/>
        <pt x="300" y="832" on="1"/>
        <pt x="600" y="534" on="1"/>
      </contour>
      <contour>
        <pt x="216" y="579" on="1"/>
        <pt x="216" y="297" on="1"/>
        <pt x="384" y="297" on="1"/>
        <pt x="384" y="579" on="1"/>
        <pt x="491" y="579" on="1"/>
        <pt x="300" y="768" on="1"/>
        <pt x="109" y="579" on="1"/>
      </contour>
      <contour>
        <pt x="431" y="16" on="0"/>
        <pt x="404" y="-12" on="0"/>
        <pt x="381" y="-12" on="1"/>
        <pt x="219" y="-12" on="1"/>
        <pt x="197" y="-12" on="0"/>
        <pt x="169" y="16" on="0"/>
        <pt x="169" y="38" on="1"/>
        <pt x="169" y="155" on="1"/>
        <pt x="431" y="155" on="1"/>
        <pt x="431" y="38" on="1"/>
      </contour>
      <contour>
        <pt x="216" y="32" on="1"/>
        <pt x="384" y="32" on="1"/>
        <pt x="384" y="113" on="1"/>
        <pt x="216" y="113" on="1"/>
      </contour>
    </TTGlyph>
    <TTGlyph name="caron" xMin="137" yMin="629" xMax="463" yMax="789">
      <contour>
        <pt x="329" y="629" on="1"/>
        <pt x="273" y="629" on="1"/>
        <pt x="137" y="748" on="1"/>
        <pt x="177" y="789" on="1"/>
        <pt x="301" y="698" on="1"/>
        <pt x="425" y="789" on="1"/>
        <pt x="463" y="748" on="1"/>
      </contour>
    </TTGlyph>
    <TTGlyph name="caron.alt" xMin="254" yMin="511" xMax="354" yMax="697">
      <contour>
        <pt x="301" y="511" on="1"/>
        <pt x="254" y="518" on="1"/>
        <pt x="279" y="697" on="1"/>
        <pt x="354" y="688" on="1"/>
      </contour>
    </TTGlyph>
    <TTGlyph name="caron.case" xMin="137" yMin="754" xMax="463" yMax="904">
      <contour>
        <pt x="329" y="754" on="1"/>
        <pt x="273" y="754" on="1"/>
        <pt x="137" y="862" on="1"/>
        <pt x="175" y="904" on="1"/>
        <pt x="300" y="823" on="1"/>
        <pt x="426" y="904" on="1"/>
        <pt x="463" y="862" on="1"/>
      </contour>
    </TTGlyph>
    <TTGlyph name="ccaron" xMin="92" yMin="-11" xMax="516" yMax="781">
      <component glyphName="c" x="0" y="0" flags="0x0"/>
      <component glyphName="caron" x="44" y="-8" flags="0x0"/>
    </TTGlyph>
    <TTGlyph name="ccedilla" xMin="92" yMin="-238" xMax="516" yMax="538">
      <contour>
        <pt x="405" y="-61" on="0"/>
        <pt x="451" y="-108" on="0"/>
        <pt x="451" y="-140" on="1"/>
        <pt x="451" y="-187" on="0"/>
        <pt x="381" y="-238" on="0"/>
        <pt x="330" y="-238" on="1"/>
        <pt x="300" y="-238" on="0"/>
        <pt x="245" y="-225" on="0"/>
        <pt x="225" y="-214" on="1"/>
        <pt x="252" y="-166" on="1"/>
        <pt x="266" y="-173" on="0"/>
        <pt x="303" y="-182" on="0"/>
        <pt x="320" y="-182" on="1"/>
        <pt x="348" y="-182" on="0"/>
        <pt x="380" y="-162" on="0"/>
        <pt x="380" y="-140" on="1"/>
        <pt x="380" y="-115" on="0"/>
        <pt x="337" y="-97" on="0"/>
        <pt x="293" y="-97" on="1"/>
        <pt x="300" y="-9" on="1"/>
        <pt x="201" y="3" on="0"/>
        <pt x="92" y="147" on="0"/>
        <pt x="92" y="261" on="1"/>
        <pt x="92" y="341" on="0"/>
        <pt x="151" y="466" on="0"/>
        <pt x="262" y="538" on="0"/>
        <pt x="339" y="538" on="1"/>
        <pt x="439" y="538" on="0"/>
        <pt x="515" y="476" on="1"/>
        <pt x="473" y="419" on="1"/>
        <pt x="408" y="468" on="0"/>
        <pt x="338" y="468" on="1"/>
        <pt x="267" y="468" on="0"/>
        <pt x="182" y="362" on="0"/>
        <pt x="182" y="261" on="1"/>
        <pt x="182" y="160" on="0"/>
        <pt x="267" y="60" on="0"/>
        <pt x="338" y="60" on="1"/>
        <pt x="413" y="60" on="0"/>
        <pt x="476" y="110" on="1"/>
        <pt x="516" y="52" on="1"/>
        <pt x="486" y="26" on="0"/>
        <pt x="402" y="-6" on="0"/>
        <pt x="359" y="-10" on="1"/>
        <pt x="359" y="-57" on="1"/>
      </contour>
    </TTGlyph>
    <TTGlyph name="ccircumflex" xMin="92" yMin="-11" xMax="516" yMax="781">
      <component glyphName="c" x="0" y="0" flags="0x0"/>
      <component glyphName="circumflex" x="44" y="-8" flags="0x0"/>
    </TTGlyph>
    <TTGlyph name="cdotaccent" xMin="92" yMin="-11" xMax="516" yMax="765">
      <component glyphName="c" x="0" y="0" flags="0x0"/>
      <component glyphName="dotaccent" x="44" y="-8" flags="0x0"/>
    </TTGlyph>
    <TTGlyph name="cedilla" xMin="186" yMin="-238" xMax="412" yMax="16">
      <contour>
        <pt x="341" y="-115" on="0"/>
        <pt x="298" y="-97" on="0"/>
        <pt x="254" y="-97" on="1"/>
        <pt x="263" y="16" on="1"/>
        <pt x="320" y="16" on="1"/>
        <pt x="320" y="-57" on="1"/>
        <pt x="366" y="-61" on="0"/>
        <pt x="412" y="-108" on="0"/>
        <pt x="412" y="-140" on="1"/>
        <pt x="412" y="-187" on="0"/>
        <pt x="342" y="-238" on="0"/>
        <pt x="291" y="-238" on="1"/>
        <pt x="261" y="-238" on="0"/>
        <pt x="206" y="-225" on="0"/>
        <pt x="186" y="-214" on="1"/>
        <pt x="213" y="-166" on="1"/>
        <pt x="227" y="-173" on="0"/>
        <pt x="264" y="-182" on="0"/>
        <pt x="281" y="-182" on="1"/>
        <pt x="309" y="-182" on="0"/>
        <pt x="341" y="-162" on="0"/>
        <pt x="341" y="-140" on="1"/>
      </contour>
    </TTGlyph>
    <TTGlyph name="cedilla.case" xMin="186" yMin="-238" xMax="412" yMax="16">
      <contour>
        <pt x="341" y="-115" on="0"/>
        <pt x="298" y="-97" on="0"/>
        <pt x="254" y="-97" on="1"/>
        <pt x="263" y="16" on="1"/>
        <pt x="320" y="16" on="1"/>
        <pt x="320" y="-57" on="1"/>
        <pt x="366" y="-61" on="0"/>
        <pt x="412" y="-108" on="0"/>
        <pt x="412" y="-140" on="1"/>
        <pt x="412" y="-187" on="0"/>
        <pt x="342" y="-238" on="0"/>
        <pt x="291" y="-238" on="1"/>
        <pt x="261" y="-238" on="0"/>
        <pt x="206" y="-225" on="0"/>
        <pt x="186" y="-214" on="1"/>
        <pt x="213" y="-166" on="1"/>
        <pt x="227" y="-173" on="0"/>
        <pt x="264" y="-182" on="0"/>
        <pt x="281" y="-182" on="1"/>
        <pt x="309" y="-182" on="0"/>
        <pt x="341" y="-162" on="0"/>
        <pt x="341" y="-140" on="1"/>
      </contour>
    </TTGlyph>
    <TTGlyph name="cent" xMin="106" yMin="-153" xMax="494" yMax="683">
      <contour>
        <pt x="441" y="525" on="0"/>
        <pt x="494" y="482" on="1"/>
        <pt x="452" y="427" on="1"/>
        <pt x="420" y="450" on="0"/>
        <pt x="367" y="468" on="0"/>
        <pt x="336" y="468" on="1"/>
        <pt x="269" y="468" on="0"/>
        <pt x="196" y="363" on="0"/>
        <pt x="196" y="261" on="1"/>
        <pt x="196" y="158" on="0"/>
        <pt x="269" y="60" on="0"/>
        <pt x="336" y="60" on="1"/>
        <pt x="367" y="60" on="0"/>
        <pt x="422" y="80" on="0"/>
        <pt x="453" y="105" on="1"/>
        <pt x="494" y="46" on="1"/>
        <pt x="442" y="2" on="0"/>
        <pt x="373" y="-6" on="1"/>
        <pt x="373" y="-153" on="1"/>
        <pt x="298" y="-153" on="1"/>
        <pt x="298" y="-6" on="1"/>
        <pt x="205" y="6" on="0"/>
        <pt x="106" y="146" on="0"/>
        <pt x="106" y="261" on="1"/>
        <pt x="106" y="372" on="0"/>
        <pt x="205" y="519" on="0"/>
        <pt x="299" y="532" on="1"/>
        <pt x="299" y="683" on="1"/>
        <pt x="373" y="683" on="1"/>
        <pt x="373" y="533" on="1"/>
      </contour>
    </TTGlyph>
    <TTGlyph name="cent.tosf" xMin="106" yMin="-153" xMax="494" yMax="683">
      <component glyphName="cent" x="0" y="0" flags="0x0"/>
    </TTGlyph>
    <TTGlyph name="chi" xMin="55" yMin="-210" xMax="552" yMax="537">
      <contour>
        <pt x="466" y="-210" on="1"/>
        <pt x="307" y="124" on="1"/>
        <pt x="145" y="-208" on="1"/>
        <pt x="59" y="-202" on="1"/>
        <pt x="257" y="183" on="1"/>
        <pt x="215" y="277" on="0"/>
        <pt x="152" y="391" on="0"/>
        <pt x="96" y="464" on="0"/>
        <pt x="55" y="506" on="1"/>
        <pt x="136" y="537" on="1"/>
        <pt x="185" y="487" on="0"/>
        <pt x="263" y="354" on="0"/>
        <pt x="308" y="238" on="1"/>
        <pt x="446" y="533" on="1"/>
        <pt x="533" y="529" on="1"/>
        <pt x="357" y="188" on="1"/>
        <pt x="552" y="-203" on="1"/>
      </contour>
    </TTGlyph>
    <TTGlyph name="circle" xMin="30" yMin="0" xMax="570" yMax="540">
      <contour>
        <pt x="373" y="540" on="0"/>
        <pt x="497" y="467" on="0"/>
        <pt x="570" y="343" on="0"/>
        <pt x="570" y="270" on="1"/>
        <pt x="570" y="196" on="0"/>
        <pt x="497" y="72" on="0"/>
        <pt x="373" y="0" on="0"/>
        <pt x="300" y="0" on="1"/>
        <pt x="226" y="0" on="0"/>
        <pt x="102" y="72" on="0"/>
        <pt x="30" y="196" on="0"/>
        <pt x="30" y="270" on="1"/>
        <pt x="30" y="343" on="0"/>
        <pt x="102" y="467" on="0"/>
        <pt x="226" y="540" on="0"/>
        <pt x="300" y="540" on="1"/>
      </contour>
      <contour>
        <pt x="248" y="460" on="0"/>
        <pt x="161" y="409" on="0"/>
        <pt x="110" y="321" on="0"/>
        <pt x="110" y="270" on="1"/>
        <pt x="110" y="218" on="0"/>
        <pt x="161" y="131" on="0"/>
        <pt x="248" y="80" on="0"/>
        <pt x="300" y="80" on="1"/>
        <pt x="351" y="80" on="0"/>
        <pt x="439" y="131" on="0"/>
        <pt x="490" y="218" on="0"/>
        <pt x="490" y="270" on="1"/>
        <pt x="490" y="321" on="0"/>
        <pt x="438" y="408" on="0"/>
        <pt x="351" y="460" on="0"/>
        <pt x="300" y="460" on="1"/>
      </contour>
    </TTGlyph>
    <TTGlyph name="circumflex" xMin="137" yMin="629" xMax="463" yMax="789">
      <contour>
        <pt x="273" y="789" on="1"/>
        <pt x="329" y="789" on="1"/>
        <pt x="463" y="670" on="1"/>
        <pt x="425" y="629" on="1"/>
        <pt x="301" y="720" on="1"/>
        <pt x="177" y="629" on="1"/>
        <pt x="137" y="670" on="1"/>
      </contour>
    </TTGlyph>
    <TTGlyph name="circumflex.case" xMin="137" yMin="760" xMax="463" yMax="910">
      <contour>
        <pt x="426" y="760" on="1"/>
        <pt x="300" y="841" on="1"/>
        <pt x="175" y="760" on="1"/>
        <pt x="137" y="803" on="1"/>
        <pt x="273" y="910" on="1"/>
        <pt x="329" y="910" on="1"/>
        <pt x="463" y="803" on="1"/>
      </contour>
    </TTGlyph>
    <TTGlyph name="clear" xMin="-80" yMin="28" xMax="680" yMax="673">
      <contour>
        <pt x="653" y="673" on="0"/>
        <pt x="680" y="646" on="0"/>
        <pt x="680" y="623" on="1"/>
        <pt x="680" y="78" on="1"/>
        <pt x="680" y="56" on="0"/>
        <pt x="653" y="28" on="0"/>
        <pt x="630" y="28" on="1"/>
        <pt x="-30" y="28" on="1"/>
        <pt x="-53" y="28" on="0"/>
        <pt x="-80" y="56" on="0"/>
        <pt x="-80" y="78" on="1"/>
        <pt x="-80" y="623" on="1"/>
        <pt x="-80" y="646" on="0"/>
        <pt x="-53" y="673" on="0"/>
        <pt x="-30" y="673" on="1"/>
        <pt x="630" y="673" on="1"/>
      </contour>
      <contour>
        <pt x="166" y="557" on="1"/>
        <pt x="99" y="488" on="1"/>
        <pt x="233" y="355" on="1"/>
        <pt x="99" y="221" on="1"/>
        <pt x="166" y="154" on="1"/>
        <pt x="300" y="288" on="1"/>
        <pt x="434" y="154" on="1"/>
        <pt x="501" y="221" on="1"/>
        <pt x="367" y="355" on="1"/>
        <pt x="501" y="488" on="1"/>
        <pt x="434" y="557" on="1"/>
        <pt x="300" y="422" on="1"/>
      </contour>
    </TTGlyph>
    <TTGlyph name="club" xMin="70" yMin="0" xMax="530" yMax="539">
      <contour>
        <pt x="356" y="539" on="0"/>
        <pt x="420" y="491" on="0"/>
        <pt x="420" y="444" on="1"/>
        <pt x="420" y="408" on="0"/>
        <pt x="392" y="363" on="0"/>
        <pt x="366" y="342" on="1"/>
        <pt x="386" y="351" on="0"/>
        <pt x="411" y="356" on="0"/>
        <pt x="433" y="356" on="1"/>
        <pt x="480" y="356" on="0"/>
        <pt x="530" y="295" on="0"/>
        <pt x="530" y="239" on="1"/>
        <pt x="530" y="193" on="0"/>
        <pt x="471" y="134" on="0"/>
        <pt x="426" y="134" on="1"/>
        <pt x="390" y="134" on="0"/>
        <pt x="338" y="166" on="0"/>
        <pt x="318" y="200" on="1"/>
        <pt x="334" y="65" on="1"/>
        <pt x="490" y="65" on="1"/>
        <pt x="530" y="0" on="1"/>
        <pt x="70" y="0" on="1"/>
        <pt x="110" y="65" on="1"/>
        <pt x="266" y="65" on="1"/>
        <pt x="282" y="200" on="1"/>
        <pt x="261" y="166" on="0"/>
        <pt x="209" y="134" on="0"/>
        <pt x="174" y="134" on="1"/>
        <pt x="129" y="134" on="0"/>
        <pt x="70" y="193" on="0"/>
        <pt x="70" y="239" on="1"/>
        <pt x="70" y="295" on="0"/>
        <pt x="120" y="356" on="0"/>
        <pt x="167" y="356" on="1"/>
        <pt x="189" y="356" on="0"/>
        <pt x="214" y="351" on="0"/>
        <pt x="234" y="342" on="1"/>
        <pt x="208" y="363" on="0"/>
        <pt x="180" y="408" on="0"/>
        <pt x="180" y="444" on="1"/>
        <pt x="180" y="491" on="0"/>
        <pt x="244" y="539" on="0"/>
        <pt x="300" y="539" on="1"/>
      </contour>
    </TTGlyph>
    <TTGlyph name="colon" xMin="219" yMin="-11" xMax="380" yMax="511">
      <contour>
        <pt x="219" y="464" on="0"/>
        <pt x="265" y="511" on="0"/>
        <pt x="299" y="511" on="1"/>
        <pt x="333" y="511" on="0"/>
        <pt x="380" y="464" on="0"/>
        <pt x="380" y="431" on="1"/>
        <pt x="380" y="397" on="0"/>
        <pt x="333" y="349" on="0"/>
        <pt x="299" y="349" on="1"/>
        <pt x="265" y="349" on="0"/>
        <pt x="219" y="397" on="0"/>
        <pt x="219" y="431" on="1"/>
      </contour>
      <contour>
        <pt x="219" y="103" on="0"/>
        <pt x="265" y="150" on="0"/>
        <pt x="299" y="150" on="1"/>
        <pt x="333" y="150" on="0"/>
        <pt x="380" y="103" on="0"/>
        <pt x="380" y="70" on="1"/>
        <pt x="380" y="36" on="0"/>
        <pt x="334" y="-11" on="0"/>
        <pt x="299" y="-11" on="1"/>
        <pt x="265" y="-11" on="0"/>
        <pt x="219" y="35" on="0"/>
        <pt x="219" y="70" on="1"/>
      </contour>
    </TTGlyph>
    <TTGlyph name="comma" xMin="205" yMin="-179" xMax="381" yMax="164">
      <contour>
        <pt x="334" y="164" on="0"/>
        <pt x="381" y="117" on="0"/>
        <pt x="381" y="84" on="1"/>
        <pt x="381" y="47" on="0"/>
        <pt x="361" y="7" on="1"/>
        <pt x="280" y="-179" on="1"/>
        <pt x="205" y="-179" on="1"/>
        <pt x="253" y="18" on="1"/>
        <pt x="238" y="29" on="0"/>
        <pt x="220" y="65" on="0"/>
        <pt x="220" y="84" on="1"/>
        <pt x="220" y="117" on="0"/>
        <pt x="266" y="164" on="0"/>
        <pt x="300" y="164" on="1"/>
      </contour>
    </TTGlyph>
    <TTGlyph name="copyright" xMin="30" yMin="125" xMax="570" yMax="747">
      <contour>
        <pt x="384" y="747" on="0"/>
        <pt x="506" y="664" on="0"/>
        <pt x="570" y="522" on="0"/>
        <pt x="570" y="435" on="1"/>
        <pt x="570" y="349" on="0"/>
        <pt x="506" y="207" on="0"/>
        <pt x="384" y="125" on="0"/>
        <pt x="301" y="125" on="1"/>
        <pt x="217" y="125" on="0"/>
        <pt x="95" y="207" on="0"/>
        <pt x="30" y="349" on="0"/>
        <pt x="30" y="435" on="1"/>
        <pt x="30" y="523" on="0"/>
        <pt x="94" y="664" on="0"/>
        <pt x="217" y="747" on="0"/>
        <pt x="301" y="747" on="1"/>
      </contour>
      <contour>
        <pt x="231" y="697" on="0"/>
        <pt x="134" y="628" on="0"/>
        <pt x="85" y="509" on="0"/>
        <pt x="85" y="435" on="1"/>
        <pt x="85" y="361" on="0"/>
        <pt x="134" y="244" on="0"/>
        <pt x="231" y="176" on="0"/>
        <pt x="301" y="176" on="1"/>
        <pt x="371" y="176" on="0"/>
        <pt x="468" y="244" on="0"/>
        <pt x="516" y="361" on="0"/>
        <pt x="516" y="435" on="1"/>
        <pt x="516" y="509" on="0"/>
        <pt x="468" y="628" on="0"/>
        <pt x="371" y="697" on="0"/>
        <pt x="301" y="697" on="1"/>
      </contour>
      <contour>
        <pt x="342" y="625" on="0"/>
        <pt x="394" y="607" on="0"/>
        <pt x="421" y="586" on="1"/>
        <pt x="386" y="539" on="1"/>
        <pt x="349" y="569" on="0"/>
        <pt x="307" y="569" on="1"/>
        <pt x="265" y="569" on="0"/>
        <pt x="213" y="504" on="0"/>
        <pt x="213" y="436" on="1"/>
        <pt x="213" y="372" on="0"/>
        <pt x="264" y="307" on="0"/>
        <pt x="307" y="307" on="1"/>
        <pt x="356" y="307" on="0"/>
        <pt x="394" y="342" on="1"/>
        <pt x="426" y="294" on="1"/>
        <pt x="373" y="247" on="0"/>
        <pt x="305" y="247" on="1"/>
        <pt x="232" y="247" on="0"/>
        <pt x="142" y="347" on="0"/>
        <pt x="142" y="436" on="1"/>
        <pt x="142" y="496" on="0"/>
        <pt x="186" y="581" on="0"/>
        <pt x="260" y="625" on="0"/>
        <pt x="304" y="625" on="1"/>
      </contour>
    </TTGlyph>
    <TTGlyph name="currency" xMin="34" yMin="73" xMax="566" yMax="610">
      <contour>
        <pt x="230" y="553" on="0"/>
        <pt x="301" y="553" on="1"/>
        <pt x="374" y="553" on="0"/>
        <pt x="423" y="520" on="1"/>
        <pt x="512" y="609" on="1"/>
        <pt x="566" y="555" on="1"/>
        <pt x="479" y="467" on="1"/>
        <pt x="515" y="413" on="0"/>
        <pt x="515" y="342" on="1"/>
        <pt x="515" y="272" on="0"/>
        <pt x="478" y="215" on="1"/>
        <pt x="566" y="128" on="1"/>
        <pt x="512" y="74" on="1"/>
        <pt x="421" y="162" on="1"/>
        <pt x="371" y="130" on="0"/>
        <pt x="301" y="130" on="1"/>
        <pt x="229" y="130" on="0"/>
        <pt x="177" y="162" on="1"/>
        <pt x="88" y="73" on="1"/>
        <pt x="34" y="127" on="1"/>
        <pt x="123" y="216" on="1"/>
        <pt x="88" y="270" on="0"/>
        <pt x="88" y="342" on="1"/>
        <pt x="88" y="413" on="0"/>
        <pt x="122" y="466" on="1"/>
        <pt x="34" y="556" on="1"/>
        <pt x="88" y="610" on="1"/>
        <pt x="177" y="520" on="1"/>
      </contour>
      <contour>
        <pt x="239" y="486" on="0"/>
        <pt x="172" y="410" on="0"/>
        <pt x="172" y="342" on="1"/>
        <pt x="172" y="274" on="0"/>
        <pt x="239" y="198" on="0"/>
        <pt x="301" y="198" on="1"/>
        <pt x="363" y="198" on="0"/>
        <pt x="429" y="274" on="0"/>
        <pt x="429" y="342" on="1"/>
        <pt x="429" y="410" on="0"/>
        <pt x="363" y="486" on="0"/>
        <pt x="301" y="486" on="1"/>
      </contour>
    </TTGlyph>
    <TTGlyph name="currency.tosf" xMin="34" yMin="73" xMax="566" yMax="610">
      <component glyphName="currency" x="0" y="0" flags="0x0"/>
    </TTGlyph>
    <TTGlyph name="d" xMin="68" yMin="-11" xMax="499" yMax="749">
      <contour>
        <pt x="499" y="0" on="1"/>
        <pt x="426" y="0" on="1"/>
        <pt x="418" y="69" on="1"/>
        <pt x="361" y="-11" on="0"/>
        <pt x="269" y="-11" on="1"/>
        <pt x="169" y="-11" on="0"/>
        <pt x="68" y="135" on="0"/>
        <pt x="68" y="262" on="1"/>
        <pt x="68" y="342" on="0"/>
        <pt x="118" y="467" on="0"/>
        <pt x="211" y="538" on="0"/>
        <pt x="275" y="538" on="1"/>
        <pt x="362" y="538" on="0"/>
        <pt x="416" y="475" on="1"/>
        <pt x="416" y="749" on="1"/>
        <pt x="499" y="739" on="1"/>
      </contour>
      <contour>
        <pt x="229" y="471" on="0"/>
        <pt x="159" y="366" on="0"/>
        <pt x="159" y="263" on="1"/>
        <pt x="159" y="161" on="0"/>
        <pt x="224" y="56" on="0"/>
        <pt x="286" y="56" on="1"/>
        <pt x="362" y="56" on="0"/>
        <pt x="416" y="139" on="1"/>
        <pt x="416" y="403" on="1"/>
        <pt x="395" y="435" on="0"/>
        <pt x="332" y="471" on="0"/>
        <pt x="296" y="471" on="1"/>
      </contour>
    </TTGlyph>
    <TTGlyph name="dagger" xMin="91" yMin="0" xMax="509" yMax="677">
      <contour>
        <pt x="509" y="520" on="1"/>
        <pt x="509" y="450" on="1"/>
        <pt x="340" y="450" on="1"/>
        <pt x="340" y="0" on="1"/>
        <pt x="260" y="0" on="1"/>
        <pt x="260" y="450" on="1"/>
        <pt x="91" y="450" on="1"/>
        <pt x="91" y="520" on="1"/>
        <pt x="260" y="520" on="1"/>
        <pt x="260" y="677" on="1"/>
        <pt x="340" y="677" on="1"/>
        <pt x="340" y="520" on="1"/>
      </contour>
    </TTGlyph>
    <TTGlyph name="dagger.tosf" xMin="92" yMin="0" xMax="510" yMax="677">
      <component glyphName="dagger" x="0" y="0" flags="0x0"/>
    </TTGlyph>
    <TTGlyph name="daggerdbl" xMin="91" yMin="0" xMax="509" yMax="677">
      <contour>
        <pt x="509" y="512" on="1"/>
        <pt x="509" y="442" on="1"/>
        <pt x="340" y="442" on="1"/>
        <pt x="340" y="231" on="1"/>
        <pt x="509" y="231" on="1"/>
        <pt x="509" y="161" on="1"/>
        <pt x="340" y="161" on="1"/>
        <pt x="340" y="0" on="1"/>
        <pt x="260" y="0" on="1"/>
        <pt x="260" y="161" on="1"/>
        <pt x="91" y="161" on="1"/>
        <pt x="91" y="231" on="1"/>
        <pt x="260" y="231" on="1"/>
        <pt x="260" y="442" on="1"/>
        <pt x="91" y="442" on="1"/>
        <pt x="91" y="512" on="1"/>
        <pt x="260" y="512" on="1"/>
        <pt x="260" y="677" on="1"/>
        <pt x="340" y="677" on="1"/>
        <pt x="340" y="512" on="1"/>
      </contour>
    </TTGlyph>
    <TTGlyph name="daggerdbl.tosf" xMin="92" yMin="0" xMax="510" yMax="677">
      <component glyphName="daggerdbl" x="0" y="0" flags="0x0"/>
    </TTGlyph>
    <TTGlyph name="dcaron" xMin="39" yMin="-11" xMax="612" yMax="749">
      <component glyphName="d" x="-28" y="0" flags="0x0"/>
      <component glyphName="caron.alt" x="258" y="49" flags="0x0"/>
    </TTGlyph>
    <TTGlyph name="dcroat" xMin="71" yMin="-11" xMax="581" yMax="749">
      <contour>
        <pt x="502" y="598" on="1"/>
        <pt x="502" y="0" on="1"/>
        <pt x="429" y="0" on="1"/>
        <pt x="421" y="69" on="1"/>
        <pt x="392" y="29" on="0"/>
        <pt x="316" y="-11" on="0"/>
        <pt x="272" y="-11" on="1"/>
        <pt x="172" y="-11" on="0"/>
        <pt x="71" y="135" on="0"/>
        <pt x="71" y="262" on="1"/>
        <pt x="71" y="342" on="0"/>
        <pt x="120" y="467" on="0"/>
        <pt x="213" y="538" on="0"/>
        <pt x="277" y="538" on="1"/>
        <pt x="364" y="538" on="0"/>
        <pt x="419" y="475" on="1"/>
        <pt x="419" y="598" on="1"/>
        <pt x="247" y="598" on="1"/>
        <pt x="247" y="664" on="1"/>
        <pt x="419" y="664" on="1"/>
        <pt x="419" y="749" on="1"/>
        <pt x="502" y="739" on="1"/>
        <pt x="502" y="664" on="1"/>
        <pt x="581" y="664" on="1"/>
        <pt x="581" y="598" on="1"/>
      </contour>
      <contour>
        <pt x="397" y="435" on="0"/>
        <pt x="335" y="471" on="0"/>
        <pt x="299" y="471" on="1"/>
        <pt x="232" y="471" on="0"/>
        <pt x="161" y="366" on="0"/>
        <pt x="161" y="263" on="1"/>
        <pt x="161" y="160" on="0"/>
        <pt x="226" y="56" on="0"/>
        <pt x="289" y="56" on="1"/>
        <pt x="363" y="56" on="0"/>
        <pt x="419" y="139" on="1"/>
        <pt x="419" y="403" on="1"/>
      </contour>
    </TTGlyph>
    <TTGlyph name="degree" xMin="65" yMin="436" xMax="389" yMax="749">
      <contour>
        <pt x="270" y="749" on="0"/>
        <pt x="344" y="711" on="0"/>
        <pt x="389" y="640" on="0"/>
        <pt x="389" y="592" on="1"/>
        <pt x="389" y="544" on="0"/>
        <pt x="344" y="473" on="0"/>
        <pt x="270" y="436" on="0"/>
        <pt x="227" y="436" on="1"/>
        <pt x="185" y="436" on="0"/>
        <pt x="111" y="473" on="0"/>
        <pt x="65" y="545" on="0"/>
        <pt x="65" y="593" on="1"/>
        <pt x="65" y="641" on="0"/>
        <pt x="111" y="711" on="0"/>
        <pt x="185" y="749" on="0"/>
        <pt x="227" y="749" on="1"/>
      </contour>
      <contour>
        <pt x="190" y="690" on="0"/>
        <pt x="138" y="640" on="0"/>
        <pt x="138" y="593" on="1"/>
        <pt x="138" y="546" on="0"/>
        <pt x="190" y="495" on="0"/>
        <pt x="227" y="495" on="1"/>
        <pt x="265" y="495" on="0"/>
        <pt x="317" y="545" on="0"/>
        <pt x="317" y="592" on="1"/>
        <pt x="317" y="640" on="0"/>
        <pt x="265" y="690" on="0"/>
        <pt x="227" y="690" on="1"/>
      </contour>
    </TTGlyph>
    <TTGlyph name="degree.tosf" xMin="65" yMin="436" xMax="389" yMax="749">
      <component glyphName="degree" x="0" y="0" flags="0x0"/>
    </TTGlyph>
    <TTGlyph name="deleterightKey" xMin="-80" yMin="28" xMax="740" yMax="673">
      <contour>
        <pt x="400" y="28" on="1"/>
        <pt x="-30" y="28" on="1"/>
        <pt x="-53" y="28" on="0"/>
        <pt x="-80" y="56" on="0"/>
        <pt x="-80" y="78" on="1"/>
        <pt x="-80" y="623" on="1"/>
        <pt x="-80" y="646" on="0"/>
        <pt x="-53" y="673" on="0"/>
        <pt x="-30" y="673" on="1"/>
        <pt x="400" y="673" on="1"/>
        <pt x="740" y="352" on="1"/>
      </contour>
      <contour>
        <pt x="86" y="557" on="1"/>
        <pt x="19" y="488" on="1"/>
        <pt x="153" y="355" on="1"/>
        <pt x="19" y="221" on="1"/>
        <pt x="86" y="154" on="1"/>
        <pt x="220" y="288" on="1"/>
        <pt x="354" y="154" on="1"/>
        <pt x="421" y="221" on="1"/>
        <pt x="287" y="355" on="1"/>
        <pt x="421" y="488" on="1"/>
        <pt x="354" y="557" on="1"/>
        <pt x="220" y="422" on="1"/>
      </contour>
    </TTGlyph>
    <TTGlyph name="delta" xMin="68" yMin="-11" xMax="538" yMax="749">
      <contour>
        <pt x="369" y="749" on="0"/>
        <pt x="447" y="719" on="0"/>
        <pt x="483" y="689" on="1"/>
        <pt x="441" y="640" on="1"/>
        <pt x="408" y="665" on="0"/>
        <pt x="348" y="685" on="0"/>
        <pt x="313" y="685" on="1"/>
        <pt x="268" y="685" on="0"/>
        <pt x="217" y="648" on="0"/>
        <pt x="217" y="614" on="1"/>
        <pt x="217" y="591" on="0"/>
        <pt x="240" y="562" on="0"/>
        <pt x="286" y="538" on="0"/>
        <pt x="336" y="517" on="1"/>
        <pt x="408" y="488" on="0"/>
        <pt x="495" y="419" on="0"/>
        <pt x="538" y="318" on="0"/>
        <pt x="538" y="243" on="1"/>
        <pt x="538" y="175" on="0"/>
        <pt x="481" y="59" on="0"/>
        <pt x="374" y="-11" on="0"/>
        <pt x="303" y="-11" on="1"/>
        <pt x="231" y="-11" on="0"/>
        <pt x="125" y="57" on="0"/>
        <pt x="68" y="173" on="0"/>
        <pt x="68" y="243" on="1"/>
        <pt x="68" y="330" on="0"/>
        <pt x="157" y="454" on="0"/>
        <pt x="228" y="482" on="1"/>
        <pt x="175" y="509" on="0"/>
        <pt x="131" y="570" on="0"/>
        <pt x="131" y="611" on="1"/>
        <pt x="131" y="676" on="0"/>
        <pt x="236" y="749" on="0"/>
        <pt x="318" y="749" on="1"/>
      </contour>
      <contour>
        <pt x="220" y="422" on="0"/>
        <pt x="158" y="320" on="0"/>
        <pt x="158" y="242" on="1"/>
        <pt x="158" y="156" on="0"/>
        <pt x="235" y="57" on="0"/>
        <pt x="303" y="57" on="1"/>
        <pt x="372" y="57" on="0"/>
        <pt x="448" y="153" on="0"/>
        <pt x="448" y="243" on="1"/>
        <pt x="448" y="304" on="0"/>
        <pt x="420" y="377" on="0"/>
        <pt x="354" y="428" on="0"/>
        <pt x="291" y="454" on="1"/>
      </contour>
    </TTGlyph>
    <TTGlyph name="diamond" xMin="104" yMin="-12" xMax="496" yMax="539">
      <contour>
        <pt x="300" y="-12" on="1"/>
        <pt x="104" y="266" on="1"/>
        <pt x="300" y="539" on="1"/>
        <pt x="496" y="266" on="1"/>
      </contour>
    </TTGlyph>
    <TTGlyph name="dieresis" xMin="142" yMin="648" xMax="457" yMax="755">
      <contour>
        <pt x="173" y="648" on="0"/>
        <pt x="142" y="678" on="0"/>
        <pt x="142" y="701" on="1"/>
        <pt x="142" y="724" on="0"/>
        <pt x="173" y="755" on="0"/>
        <pt x="196" y="755" on="1"/>
        <pt x="219" y="755" on="0"/>
        <pt x="250" y="724" on="0"/>
        <pt x="250" y="701" on="1"/>
        <pt x="250" y="679" on="0"/>
        <pt x="219" y="648" on="0"/>
        <pt x="196" y="648" on="1"/>
      </contour>
      <contour>
        <pt x="380" y="648" on="0"/>
        <pt x="349" y="679" on="0"/>
        <pt x="349" y="701" on="1"/>
        <pt x="349" y="724" on="0"/>
        <pt x="379" y="755" on="0"/>
        <pt x="402" y="755" on="1"/>
        <pt x="426" y="755" on="0"/>
        <pt x="457" y="724" on="0"/>
        <pt x="457" y="701" on="1"/>
        <pt x="457" y="678" on="0"/>
        <pt x="426" y="648" on="0"/>
        <pt x="402" y="648" on="1"/>
      </contour>
    </TTGlyph>
    <TTGlyph name="dieresis.case" xMin="141" yMin="768" xMax="456" yMax="874">
      <contour>
        <pt x="173" y="768" on="0"/>
        <pt x="141" y="798" on="0"/>
        <pt x="141" y="820" on="1"/>
        <pt x="141" y="844" on="0"/>
        <pt x="172" y="874" on="0"/>
        <pt x="196" y="874" on="1"/>
        <pt x="219" y="874" on="0"/>
        <pt x="249" y="844" on="0"/>
        <pt x="249" y="820" on="1"/>
        <pt x="249" y="798" on="0"/>
        <pt x="219" y="768" on="0"/>
        <pt x="196" y="768" on="1"/>
      </contour>
      <contour>
        <pt x="379" y="768" on="0"/>
        <pt x="348" y="798" on="0"/>
        <pt x="348" y="820" on="1"/>
        <pt x="348" y="844" on="0"/>
        <pt x="379" y="874" on="0"/>
        <pt x="402" y="874" on="1"/>
        <pt x="425" y="874" on="0"/>
        <pt x="456" y="844" on="0"/>
        <pt x="456" y="820" on="1"/>
        <pt x="456" y="798" on="0"/>
        <pt x="425" y="768" on="0"/>
        <pt x="402" y="768" on="1"/>
      </contour>
    </TTGlyph>
    <TTGlyph name="dieresistonos" xMin="132" yMin="613" xMax="466" yMax="900">
      <contour>
        <pt x="332" y="714" on="1"/>
        <pt x="267" y="724" on="1"/>
        <pt x="296" y="900" on="1"/>
        <pt x="392" y="883" on="1"/>
      </contour>
      <contour>
        <pt x="210" y="720" on="0"/>
        <pt x="241" y="689" on="0"/>
        <pt x="241" y="666" on="1"/>
        <pt x="241" y="643" on="0"/>
        <pt x="210" y="613" on="0"/>
        <pt x="187" y="613" on="1"/>
        <pt x="164" y="613" on="0"/>
        <pt x="132" y="643" on="0"/>
        <pt x="132" y="666" on="1"/>
        <pt x="132" y="689" on="0"/>
        <pt x="164" y="720" on="0"/>
        <pt x="187" y="720" on="1"/>
      </contour>
      <contour>
        <pt x="435" y="720" on="0"/>
        <pt x="466" y="689" on="0"/>
        <pt x="466" y="666" on="1"/>
        <pt x="466" y="643" on="0"/>
        <pt x="435" y="613" on="0"/>
        <pt x="411" y="613" on="1"/>
        <pt x="388" y="613" on="0"/>
        <pt x="357" y="643" on="0"/>
        <pt x="357" y="666" on="1"/>
        <pt x="357" y="689" on="0"/>
        <pt x="388" y="720" on="0"/>
        <pt x="411" y="720" on="1"/>
      </contour>
    </TTGlyph>
    <TTGlyph name="divide" xMin="116" yMin="49" xMax="484" yMax="574">
      <contour>
        <pt x="328" y="574" on="0"/>
        <pt x="367" y="535" on="0"/>
        <pt x="367" y="508" on="1"/>
        <pt x="367" y="480" on="0"/>
        <pt x="328" y="442" on="0"/>
        <pt x="300" y="442" on="1"/>
        <pt x="272" y="442" on="0"/>
        <pt x="233" y="480" on="0"/>
        <pt x="233" y="508" on="1"/>
        <pt x="233" y="535" on="0"/>
        <pt x="272" y="574" on="0"/>
        <pt x="300" y="574" on="1"/>
      </contour>
      <contour>
        <pt x="116" y="276" on="1"/>
        <pt x="116" y="347" on="1"/>
        <pt x="484" y="347" on="1"/>
        <pt x="484" y="276" on="1"/>
      </contour>
      <contour>
        <pt x="328" y="183" on="0"/>
        <pt x="367" y="144" on="0"/>
        <pt x="367" y="116" on="1"/>
        <pt x="367" y="88" on="0"/>
        <pt x="328" y="49" on="0"/>
        <pt x="300" y="49" on="1"/>
        <pt x="272" y="49" on="0"/>
        <pt x="233" y="88" on="0"/>
        <pt x="233" y="116" on="1"/>
        <pt x="233" y="144" on="0"/>
        <pt x="272" y="183" on="0"/>
        <pt x="300" y="183" on="1"/>
      </contour>
    </TTGlyph>
    <TTGlyph name="divide.tosf" xMin="116" yMin="49" xMax="484" yMax="574">
      <component glyphName="divide" x="0" y="0" flags="0x0"/>
    </TTGlyph>
    <TTGlyph name="divisionslash" xMin="-282" yMin="184" xMax="282" yMax="493">
      <component glyphName="fraction" x="0" y="0" flags="0x0"/>
    </TTGlyph>
    <TTGlyph name="dkshade" xMin="0" yMin="-500" xMax="600" yMax="1000">
      <contour>
        <pt x="550" y="925" on="1"/>
        <pt x="550" y="850" on="1"/>
        <pt x="600" y="850" on="1"/>
        <pt x="600" y="775" on="1"/>
        <pt x="550" y="775" on="1"/>
        <pt x="550" y="700" on="1"/>
        <pt x="600" y="700" on="1"/>
        <pt x="600" y="625" on="1"/>
        <pt x="550" y="625" on="1"/>
        <pt x="550" y="550" on="1"/>
        <pt x="600" y="550" on="1"/>
        <pt x="600" y="475" on="1"/>
        <pt x="550" y="475" on="1"/>
        <pt x="550" y="400" on="1"/>
        <pt x="600" y="400" on="1"/>
        <pt x="600" y="325" on="1"/>
        <pt x="550" y="325" on="1"/>
        <pt x="550" y="250" on="1"/>
        <pt x="600" y="250" on="1"/>
        <pt x="600" y="175" on="1"/>
        <pt x="550" y="175" on="1"/>
        <pt x="550" y="100" on="1"/>
        <pt x="600" y="100" on="1"/>
        <pt x="600" y="25" on="1"/>
        <pt x="550" y="25" on="1"/>
        <pt x="550" y="-50" on="1"/>
        <pt x="600" y="-50" on="1"/>
        <pt x="600" y="-125" on="1"/>
        <pt x="550" y="-125" on="1"/>
        <pt x="550" y="-200" on="1"/>
        <pt x="600" y="-200" on="1"/>
        <pt x="600" y="-275" on="1"/>
        <pt x="550" y="-275" on="1"/>
        <pt x="550" y="-350" on="1"/>
        <pt x="600" y="-350" on="1"/>
        <pt x="600" y="-425" on="1"/>
        <pt x="550" y="-425" on="1"/>
        <pt x="550" y="-500" on="1"/>
        <pt x="500" y="-500" on="1"/>
        <pt x="500" y="-425" on="1"/>
        <pt x="450" y="-425" on="1"/>
        <pt x="450" y="-500" on="1"/>
        <pt x="400" y="-500" on="1"/>
        <pt x="400" y="-425" on="1"/>
        <pt x="350" y="-425" on="1"/>
        <pt x="350" y="-500" on="1"/>
        <pt x="300" y="-500" on="1"/>
        <pt x="300" y="-425" on="1"/>
        <pt x="250" y="-425" on="1"/>
        <pt x="250" y="-500" on="1"/>
        <pt x="200" y="-500" on="1"/>
        <pt x="200" y="-425" on="1"/>
        <pt x="150" y="-425" on="1"/>
        <pt x="150" y="-500" on="1"/>
        <pt x="100" y="-500" on="1"/>
        <pt x="100" y="-425" on="1"/>
        <pt x="50" y="-425" on="1"/>
        <pt x="50" y="-500" on="1"/>
        <pt x="0" y="-500" on="1"/>
        <pt x="0" y="1000" on="1"/>
        <pt x="600" y="1000" on="1"/>
        <pt x="600" y="925" on="1"/>
      </contour>
      <contour>
        <pt x="50" y="850" on="1"/>
        <pt x="100" y="850" on="1"/>
        <pt x="100" y="925" on="1"/>
        <pt x="50" y="925" on="1"/>
      </contour>
      <contour>
        <pt x="150" y="850" on="1"/>
        <pt x="200" y="850" on="1"/>
        <pt x="200" y="925" on="1"/>
        <pt x="150" y="925" on="1"/>
      </contour>
      <contour>
        <pt x="250" y="850" on="1"/>
        <pt x="300" y="850" on="1"/>
        <pt x="300" y="925" on="1"/>
        <pt x="250" y="925" on="1"/>
      </contour>
      <contour>
        <pt x="350" y="850" on="1"/>
        <pt x="400" y="850" on="1"/>
        <pt x="400" y="925" on="1"/>
        <pt x="350" y="925" on="1"/>
      </contour>
      <contour>
        <pt x="450" y="850" on="1"/>
        <pt x="500" y="850" on="1"/>
        <pt x="500" y="925" on="1"/>
        <pt x="450" y="925" on="1"/>
      </contour>
      <contour>
        <pt x="50" y="700" on="1"/>
        <pt x="100" y="700" on="1"/>
        <pt x="100" y="775" on="1"/>
        <pt x="50" y="775" on="1"/>
      </contour>
      <contour>
        <pt x="150" y="700" on="1"/>
        <pt x="200" y="700" on="1"/>
        <pt x="200" y="775" on="1"/>
        <pt x="150" y="775" on="1"/>
      </contour>
      <contour>
        <pt x="250" y="700" on="1"/>
        <pt x="300" y="700" on="1"/>
        <pt x="300" y="775" on="1"/>
        <pt x="250" y="775" on="1"/>
      </contour>
      <contour>
        <pt x="350" y="700" on="1"/>
        <pt x="400" y="700" on="1"/>
        <pt x="400" y="775" on="1"/>
        <pt x="350" y="775" on="1"/>
      </contour>
      <contour>
        <pt x="450" y="700" on="1"/>
        <pt x="500" y="700" on="1"/>
        <pt x="500" y="775" on="1"/>
        <pt x="450" y="775" on="1"/>
      </contour>
      <contour>
        <pt x="50" y="550" on="1"/>
        <pt x="100" y="550" on="1"/>
        <pt x="100" y="625" on="1"/>
        <pt x="50" y="625" on="1"/>
      </contour>
      <contour>
        <pt x="150" y="550" on="1"/>
        <pt x="200" y="550" on="1"/>
        <pt x="200" y="625" on="1"/>
        <pt x="150" y="625" on="1"/>
      </contour>
      <contour>
        <pt x="250" y="550" on="1"/>
        <pt x="300" y="550" on="1"/>
        <pt x="300" y="625" on="1"/>
        <pt x="250" y="625" on="1"/>
      </contour>
      <contour>
        <pt x="350" y="550" on="1"/>
        <pt x="400" y="550" on="1"/>
        <pt x="400" y="625" on="1"/>
        <pt x="350" y="625" on="1"/>
      </contour>
      <contour>
        <pt x="450" y="550" on="1"/>
        <pt x="500" y="550" on="1"/>
        <pt x="500" y="625" on="1"/>
        <pt x="450" y="625" on="1"/>
      </contour>
      <contour>
        <pt x="50" y="400" on="1"/>
        <pt x="100" y="400" on="1"/>
        <pt x="100" y="475" on="1"/>
        <pt x="50" y="475" on="1"/>
      </contour>
      <contour>
        <pt x="150" y="400" on="1"/>
        <pt x="200" y="400" on="1"/>
        <pt x="200" y="475" on="1"/>
        <pt x="150" y="475" on="1"/>
      </contour>
      <contour>
        <pt x="250" y="400" on="1"/>
        <pt x="300" y="400" on="1"/>
        <pt x="300" y="475" on="1"/>
        <pt x="250" y="475" on="1"/>
      </contour>
      <contour>
        <pt x="350" y="400" on="1"/>
        <pt x="400" y="400" on="1"/>
        <pt x="400" y="475" on="1"/>
        <pt x="350" y="475" on="1"/>
      </contour>
      <contour>
        <pt x="450" y="400" on="1"/>
        <pt x="500" y="400" on="1"/>
        <pt x="500" y="475" on="1"/>
        <pt x="450" y="475" on="1"/>
      </contour>
      <contour>
        <pt x="50" y="250" on="1"/>
        <pt x="100" y="250" on="1"/>
        <pt x="100" y="325" on="1"/>
        <pt x="50" y="325" on="1"/>
      </contour>
      <contour>
        <pt x="150" y="250" on="1"/>
        <pt x="200" y="250" on="1"/>
        <pt x="200" y="325" on="1"/>
        <pt x="150" y="325" on="1"/>
      </contour>
      <contour>
        <pt x="250" y="250" on="1"/>
        <pt x="300" y="250" on="1"/>
        <pt x="300" y="325" on="1"/>
        <pt x="250" y="325" on="1"/>
      </contour>
      <contour>
        <pt x="350" y="250" on="1"/>
        <pt x="400" y="250" on="1"/>
        <pt x="400" y="325" on="1"/>
        <pt x="350" y="325" on="1"/>
      </contour>
      <contour>
        <pt x="450" y="250" on="1"/>
        <pt x="500" y="250" on="1"/>
        <pt x="500" y="325" on="1"/>
        <pt x="450" y="325" on="1"/>
      </contour>
      <contour>
        <pt x="50" y="100" on="1"/>
        <pt x="100" y="100" on="1"/>
        <pt x="100" y="175" on="1"/>
        <pt x="50" y="175" on="1"/>
      </contour>
      <contour>
        <pt x="150" y="100" on="1"/>
        <pt x="200" y="100" on="1"/>
        <pt x="200" y="175" on="1"/>
        <pt x="150" y="175" on="1"/>
      </contour>
      <contour>
        <pt x="250" y="100" on="1"/>
        <pt x="300" y="100" on="1"/>
        <pt x="300" y="175" on="1"/>
        <pt x="250" y="175" on="1"/>
      </contour>
      <contour>
        <pt x="350" y="100" on="1"/>
        <pt x="400" y="100" on="1"/>
        <pt x="400" y="175" on="1"/>
        <pt x="350" y="175" on="1"/>
      </contour>
      <contour>
        <pt x="450" y="100" on="1"/>
        <pt x="500" y="100" on="1"/>
        <pt x="500" y="175" on="1"/>
        <pt x="450" y="175" on="1"/>
      </contour>
      <contour>
        <pt x="50" y="-50" on="1"/>
        <pt x="100" y="-50" on="1"/>
        <pt x="100" y="25" on="1"/>
        <pt x="50" y="25" on="1"/>
      </contour>
      <contour>
        <pt x="150" y="-50" on="1"/>
        <pt x="200" y="-50" on="1"/>
        <pt x="200" y="25" on="1"/>
        <pt x="150" y="25" on="1"/>
      </contour>
      <contour>
        <pt x="250" y="-50" on="1"/>
        <pt x="300" y="-50" on="1"/>
        <pt x="300" y="25" on="1"/>
        <pt x="250" y="25" on="1"/>
      </contour>
      <contour>
        <pt x="350" y="-50" on="1"/>
        <pt x="400" y="-50" on="1"/>
        <pt x="400" y="25" on="1"/>
        <pt x="350" y="25" on="1"/>
      </contour>
      <contour>
        <pt x="450" y="-50" on="1"/>
        <pt x="500" y="-50" on="1"/>
        <pt x="500" y="25" on="1"/>
        <pt x="450" y="25" on="1"/>
      </contour>
      <contour>
        <pt x="50" y="-200" on="1"/>
        <pt x="100" y="-200" on="1"/>
        <pt x="100" y="-125" on="1"/>
        <pt x="50" y="-125" on="1"/>
      </contour>
      <contour>
        <pt x="150" y="-200" on="1"/>
        <pt x="200" y="-200" on="1"/>
        <pt x="200" y="-125" on="1"/>
        <pt x="150" y="-125" on="1"/>
      </contour>
      <contour>
        <pt x="250" y="-200" on="1"/>
        <pt x="300" y="-200" on="1"/>
        <pt x="300" y="-125" on="1"/>
        <pt x="250" y="-125" on="1"/>
      </contour>
      <contour>
        <pt x="350" y="-200" on="1"/>
        <pt x="400" y="-200" on="1"/>
        <pt x="400" y="-125" on="1"/>
        <pt x="350" y="-125" on="1"/>
      </contour>
      <contour>
        <pt x="450" y="-200" on="1"/>
        <pt x="500" y="-200" on="1"/>
        <pt x="500" y="-125" on="1"/>
        <pt x="450" y="-125" on="1"/>
      </contour>
      <contour>
        <pt x="50" y="-350" on="1"/>
        <pt x="100" y="-350" on="1"/>
        <pt x="100" y="-275" on="1"/>
        <pt x="50" y="-275" on="1"/>
      </contour>
      <contour>
        <pt x="150" y="-350" on="1"/>
        <pt x="200" y="-350" on="1"/>
        <pt x="200" y="-275" on="1"/>
        <pt x="150" y="-275" on="1"/>
      </contour>
      <contour>
        <pt x="250" y="-350" on="1"/>
        <pt x="300" y="-350" on="1"/>
        <pt x="300" y="-275" on="1"/>
        <pt x="250" y="-275" on="1"/>
      </contour>
      <contour>
        <pt x="350" y="-350" on="1"/>
        <pt x="400" y="-350" on="1"/>
        <pt x="400" y="-275" on="1"/>
        <pt x="350" y="-275" on="1"/>
      </contour>
      <contour>
        <pt x="450" y="-350" on="1"/>
        <pt x="500" y="-350" on="1"/>
        <pt x="500" y="-275" on="1"/>
        <pt x="450" y="-275" on="1"/>
      </contour>
    </TTGlyph>
    <TTGlyph name="dnblock" xMin="0" yMin="-500" xMax="600" yMax="250">
      <contour>
        <pt x="0" y="-500" on="1"/>
        <pt x="0" y="250" on="1"/>
        <pt x="600" y="250" on="1"/>
        <pt x="600" y="-500" on="1"/>
      </contour>
    </TTGlyph>
    <TTGlyph name="dollar" xMin="69" yMin="-153" xMax="537" yMax="848">
      <contour>
        <pt x="401" y="692" on="0"/>
        <pt x="495" y="649" on="0"/>
        <pt x="529" y="618" on="1"/>
        <pt x="478" y="565" on="1"/>
        <pt x="422" y="618" on="0"/>
        <pt x="346" y="629" on="1"/>
        <pt x="346" y="400" on="1"/>
        <pt x="433" y="372" on="0"/>
        <pt x="537" y="274" on="0"/>
        <pt x="537" y="189" on="1"/>
        <pt x="537" y="114" on="0"/>
        <pt x="438" y="5" on="0"/>
        <pt x="346" y="-7" on="1"/>
        <pt x="346" y="-153" on="1"/>
        <pt x="278" y="-153" on="1"/>
        <pt x="278" y="-10" on="1"/>
        <pt x="213" y="-6" on="0"/>
        <pt x="108" y="46" on="0"/>
        <pt x="69" y="84" on="1"/>
        <pt x="119" y="139" on="1"/>
        <pt x="190" y="67" on="0"/>
        <pt x="278" y="60" on="1"/>
        <pt x="278" y="338" on="1"/>
        <pt x="188" y="368" on="0"/>
        <pt x="95" y="460" on="0"/>
        <pt x="95" y="528" on="1"/>
        <pt x="95" y="569" on="0"/>
        <pt x="136" y="643" on="0"/>
        <pt x="219" y="692" on="0"/>
        <pt x="278" y="698" on="1"/>
        <pt x="278" y="848" on="1"/>
        <pt x="346" y="848" on="1"/>
        <pt x="346" y="698" on="1"/>
      </contour>
      <contour>
        <pt x="235" y="619" on="0"/>
        <pt x="184" y="570" on="0"/>
        <pt x="184" y="529" on="1"/>
        <pt x="184" y="493" on="0"/>
        <pt x="225" y="444" on="0"/>
        <pt x="278" y="422" on="1"/>
        <pt x="278" y="627" on="1"/>
      </contour>
      <contour>
        <pt x="447" y="85" on="0"/>
        <pt x="447" y="188" on="1"/>
        <pt x="447" y="232" on="0"/>
        <pt x="402" y="292" on="0"/>
        <pt x="346" y="315" on="1"/>
        <pt x="346" y="64" on="1"/>
      </contour>
    </TTGlyph>
    <TTGlyph name="dollar.tosf" xMin="69" yMin="-153" xMax="537" yMax="848">
      <component glyphName="dollar" x="0" y="0" flags="0x0"/>
    </TTGlyph>
    <TTGlyph name="dotaccent" xMin="239" yMin="655" xMax="360" yMax="773">
      <contour>
        <pt x="326" y="773" on="0"/>
        <pt x="360" y="739" on="0"/>
        <pt x="360" y="714" on="1"/>
        <pt x="360" y="688" on="0"/>
        <pt x="326" y="655" on="0"/>
        <pt x="299" y="655" on="1"/>
        <pt x="272" y="655" on="0"/>
        <pt x="239" y="688" on="0"/>
        <pt x="239" y="714" on="1"/>
        <pt x="239" y="739" on="0"/>
        <pt x="272" y="773" on="0"/>
        <pt x="299" y="773" on="1"/>
      </contour>
    </TTGlyph>
    <TTGlyph name="dotaccent.case" xMin="238" yMin="774" xMax="359" yMax="892">
      <contour>
        <pt x="325" y="892" on="0"/>
        <pt x="359" y="859" on="0"/>
        <pt x="359" y="834" on="1"/>
        <pt x="359" y="808" on="0"/>
        <pt x="325" y="774" on="0"/>
        <pt x="298" y="774" on="1"/>
        <pt x="272" y="774" on="0"/>
        <pt x="238" y="808" on="0"/>
        <pt x="238" y="834" on="1"/>
        <pt x="238" y="859" on="0"/>
        <pt x="272" y="892" on="0"/>
        <pt x="298" y="892" on="1"/>
      </contour>
    </TTGlyph>
    <TTGlyph name="dotlessi" xMin="121" yMin="0" xMax="515" yMax="526">
      <contour>
        <pt x="515" y="66" on="1"/>
        <pt x="515" y="0" on="1"/>
        <pt x="121" y="0" on="1"/>
        <pt x="121" y="66" on="1"/>
        <pt x="284" y="66" on="1"/>
        <pt x="284" y="461" on="1"/>
        <pt x="126" y="461" on="1"/>
        <pt x="126" y="526" on="1"/>
        <pt x="367" y="526" on="1"/>
        <pt x="367" y="66" on="1"/>
      </contour>
    </TTGlyph>
    <TTGlyph name="e" xMin="79" yMin="-11" xMax="522" yMax="538">
      <contour>
        <pt x="169" y="146" on="0"/>
        <pt x="255" y="58" on="0"/>
        <pt x="320" y="58" on="1"/>
        <pt x="400" y="58" on="0"/>
        <pt x="461" y="107" on="1"/>
        <pt x="500" y="50" on="1"/>
        <pt x="463" y="21" on="0"/>
        <pt x="368" y="-11" on="0"/>
        <pt x="320" y="-11" on="1"/>
        <pt x="206" y="-11" on="0"/>
        <pt x="79" y="138" on="0"/>
        <pt x="79" y="263" on="1"/>
        <pt x="79" y="342" on="0"/>
        <pt x="135" y="467" on="0"/>
        <pt x="238" y="538" on="0"/>
        <pt x="305" y="538" on="1"/>
        <pt x="407" y="538" on="0"/>
        <pt x="522" y="399" on="0"/>
        <pt x="522" y="279" on="1"/>
        <pt x="522" y="256" on="0"/>
        <pt x="520" y="234" on="1"/>
        <pt x="166" y="234" on="1"/>
      </contour>
      <contour>
        <pt x="247" y="469" on="0"/>
        <pt x="171" y="382" on="0"/>
        <pt x="166" y="298" on="1"/>
        <pt x="442" y="298" on="1"/>
        <pt x="441" y="382" on="0"/>
        <pt x="369" y="469" on="0"/>
        <pt x="306" y="469" on="1"/>
      </contour>
    </TTGlyph>
    <TTGlyph name="eacute" xMin="79" yMin="-11" xMax="522" yMax="785">
      <component glyphName="e" x="0" y="0" flags="0x0"/>
      <component glyphName="acute" x="10" y="0" flags="0x0"/>
    </TTGlyph>
    <TTGlyph name="ebreve" xMin="79" yMin="-11" xMax="522" yMax="778">
      <component glyphName="e" x="0" y="0" flags="0x0"/>
      <component glyphName="breve" x="10" y="0" flags="0x0"/>
    </TTGlyph>
    <TTGlyph name="ecaron" xMin="79" yMin="-11" xMax="522" yMax="789">
      <component glyphName="e" x="0" y="0" flags="0x0"/>
      <component glyphName="caron" x="10" y="0" flags="0x0"/>
    </TTGlyph>
    <TTGlyph name="ecircumflex" xMin="79" yMin="-11" xMax="522" yMax="789">
      <component glyphName="e" x="0" y="0" flags="0x0"/>
      <component glyphName="circumflex" x="10" y="0" flags="0x0"/>
    </TTGlyph>
    <TTGlyph name="edieresis" xMin="79" yMin="-11" xMax="522" yMax="755">
      <component glyphName="e" x="0" y="0" flags="0x0"/>
      <component glyphName="dieresis" x="10" y="0" flags="0x0"/>
    </TTGlyph>
    <TTGlyph name="edotaccent" xMin="79" yMin="-11" xMax="522" yMax="773">
      <component glyphName="e" x="0" y="0" flags="0x0"/>
      <component glyphName="dotaccent" x="10" y="0" flags="0x0"/>
    </TTGlyph>
    <TTGlyph name="egrave" xMin="79" yMin="-11" xMax="522" yMax="787">
      <component glyphName="e" x="0" y="0" flags="0x0"/>
      <component glyphName="grave" x="10" y="0" flags="0x0"/>
    </TTGlyph>
    <TTGlyph name="eight" xMin="66" yMin="-11" xMax="534" yMax="700">
      <contour>
        <pt x="506" y="476" on="0"/>
        <pt x="447" y="402" on="0"/>
        <pt x="387" y="369" on="1"/>
        <pt x="456" y="340" on="0"/>
        <pt x="534" y="246" on="0"/>
        <pt x="534" y="185" on="1"/>
        <pt x="534" y="129" on="0"/>
        <pt x="476" y="39" on="0"/>
        <pt x="369" y="-11" on="0"/>
        <pt x="298" y="-11" on="1"/>
        <pt x="226" y="-11" on="0"/>
        <pt x="121" y="40" on="0"/>
        <pt x="66" y="128" on="0"/>
        <pt x="66" y="183" on="1"/>
        <pt x="66" y="299" on="0"/>
        <pt x="204" y="363" on="1"/>
        <pt x="148" y="389" on="0"/>
        <pt x="94" y="464" on="0"/>
        <pt x="94" y="520" on="1"/>
        <pt x="94" y="579" on="0"/>
        <pt x="157" y="661" on="0"/>
        <pt x="252" y="700" on="0"/>
        <pt x="300" y="700" on="1"/>
        <pt x="353" y="700" on="0"/>
        <pt x="447" y="662" on="0"/>
        <pt x="506" y="583" on="0"/>
        <pt x="506" y="525" on="1"/>
      </contour>
      <contour>
        <pt x="176" y="481" on="0"/>
        <pt x="211" y="435" on="0"/>
        <pt x="270" y="409" on="0"/>
        <pt x="328" y="390" on="1"/>
        <pt x="379" y="419" on="0"/>
        <pt x="424" y="476" on="0"/>
        <pt x="424" y="521" on="1"/>
        <pt x="424" y="574" on="0"/>
        <pt x="359" y="635" on="0"/>
        <pt x="300" y="635" on="1"/>
        <pt x="241" y="635" on="0"/>
        <pt x="176" y="574" on="0"/>
        <pt x="176" y="519" on="1"/>
      </contour>
      <contour>
        <pt x="447" y="227" on="0"/>
        <pt x="402" y="282" on="0"/>
        <pt x="332" y="314" on="0"/>
        <pt x="261" y="339" on="1"/>
        <pt x="212" y="317" on="0"/>
        <pt x="153" y="243" on="0"/>
        <pt x="153" y="183" on="1"/>
        <pt x="153" y="123" on="0"/>
        <pt x="227" y="56" on="0"/>
        <pt x="298" y="56" on="1"/>
        <pt x="368" y="56" on="0"/>
        <pt x="447" y="127" on="0"/>
        <pt x="447" y="183" on="1"/>
      </contour>
    </TTGlyph>
    <TTGlyph name="eight.dnom" xMin="142" yMin="-6" xMax="458" yMax="327">
      <contour>
        <pt x="441" y="212" on="0"/>
        <pt x="403" y="179" on="0"/>
        <pt x="371" y="176" on="1"/>
        <pt x="415" y="163" on="0"/>
        <pt x="458" y="124" on="0"/>
        <pt x="458" y="94" on="1"/>
        <pt x="458" y="49" on="0"/>
        <pt x="372" y="-6" on="0"/>
        <pt x="299" y="-6" on="1"/>
        <pt x="225" y="-6" on="0"/>
        <pt x="142" y="48" on="0"/>
        <pt x="142" y="92" on="1"/>
        <pt x="142" y="120" on="0"/>
        <pt x="183" y="159" on="0"/>
        <pt x="222" y="168" on="1"/>
        <pt x="191" y="177" on="0"/>
        <pt x="160" y="211" on="0"/>
        <pt x="160" y="242" on="1"/>
        <pt x="160" y="279" on="0"/>
        <pt x="239" y="327" on="0"/>
        <pt x="300" y="327" on="1"/>
        <pt x="364" y="327" on="0"/>
        <pt x="441" y="279" on="0"/>
        <pt x="441" y="244" on="1"/>
      </contour>
      <contour>
        <pt x="231" y="225" on="0"/>
        <pt x="268" y="206" on="0"/>
        <pt x="315" y="198" on="1"/>
        <pt x="345" y="207" on="0"/>
        <pt x="370" y="225" on="0"/>
        <pt x="370" y="241" on="1"/>
        <pt x="370" y="254" on="0"/>
        <pt x="334" y="273" on="0"/>
        <pt x="300" y="273" on="1"/>
        <pt x="266" y="273" on="0"/>
        <pt x="231" y="255" on="0"/>
        <pt x="231" y="242" on="1"/>
      </contour>
      <contour>
        <pt x="384" y="115" on="0"/>
        <pt x="332" y="135" on="0"/>
        <pt x="276" y="145" on="1"/>
        <pt x="247" y="137" on="0"/>
        <pt x="216" y="111" on="0"/>
        <pt x="216" y="94" on="1"/>
        <pt x="216" y="75" on="0"/>
        <pt x="258" y="53" on="0"/>
        <pt x="299" y="53" on="1"/>
        <pt x="338" y="53" on="0"/>
        <pt x="384" y="77" on="0"/>
        <pt x="384" y="95" on="1"/>
      </contour>
    </TTGlyph>
    <TTGlyph name="eight.numr" xMin="142" yMin="362" xMax="458" yMax="695">
      <component glyphName="eight.dnom" x="0" y="368" flags="0x0"/>
    </TTGlyph>
    <TTGlyph name="eight.tosf" xMin="66" yMin="-11" xMax="534" yMax="700">
      <contour>
        <pt x="506" y="474" on="0"/>
        <pt x="447" y="400" on="0"/>
        <pt x="387" y="369" on="1"/>
        <pt x="456" y="340" on="0"/>
        <pt x="534" y="246" on="0"/>
        <pt x="534" y="185" on="1"/>
        <pt x="534" y="129" on="0"/>
        <pt x="476" y="39" on="0"/>
        <pt x="369" y="-11" on="0"/>
        <pt x="298" y="-11" on="1"/>
        <pt x="226" y="-11" on="0"/>
        <pt x="121" y="40" on="0"/>
        <pt x="66" y="128" on="0"/>
        <pt x="66" y="183" on="1"/>
        <pt x="66" y="299" on="0"/>
        <pt x="204" y="363" on="1"/>
        <pt x="148" y="391" on="0"/>
        <pt x="94" y="464" on="0"/>
        <pt x="94" y="520" on="1"/>
        <pt x="94" y="579" on="0"/>
        <pt x="157" y="660" on="0"/>
        <pt x="252" y="700" on="0"/>
        <pt x="300" y="700" on="1"/>
        <pt x="353" y="700" on="0"/>
        <pt x="447" y="661" on="0"/>
        <pt x="506" y="582" on="0"/>
        <pt x="506" y="525" on="1"/>
      </contour>
      <contour>
        <pt x="176" y="481" on="0"/>
        <pt x="211" y="435" on="0"/>
        <pt x="270" y="409" on="0"/>
        <pt x="328" y="390" on="1"/>
        <pt x="379" y="419" on="0"/>
        <pt x="424" y="476" on="0"/>
        <pt x="424" y="521" on="1"/>
        <pt x="424" y="574" on="0"/>
        <pt x="359" y="635" on="0"/>
        <pt x="300" y="635" on="1"/>
        <pt x="241" y="635" on="0"/>
        <pt x="176" y="574" on="0"/>
        <pt x="176" y="519" on="1"/>
      </contour>
      <contour>
        <pt x="447" y="227" on="0"/>
        <pt x="402" y="282" on="0"/>
        <pt x="332" y="314" on="0"/>
        <pt x="261" y="339" on="1"/>
        <pt x="212" y="317" on="0"/>
        <pt x="153" y="243" on="0"/>
        <pt x="153" y="183" on="1"/>
        <pt x="153" y="123" on="0"/>
        <pt x="227" y="56" on="0"/>
        <pt x="298" y="56" on="1"/>
        <pt x="368" y="56" on="0"/>
        <pt x="447" y="127" on="0"/>
        <pt x="447" y="183" on="1"/>
      </contour>
    </TTGlyph>
    <TTGlyph name="eightinferior" xMin="142" yMin="-199" xMax="458" yMax="134">
      <component glyphName="eight.dnom" x="0" y="-193" flags="0x0"/>
    </TTGlyph>
    <TTGlyph name="eightsuperior" xMin="142" yMin="309" xMax="458" yMax="642">
      <component glyphName="eight.dnom" x="0" y="315" flags="0x0"/>
    </TTGlyph>
    <TTGlyph name="ellipsis" xMin="32" yMin="-11" xMax="568" yMax="124">
      <contour>
        <pt x="32" y="85" on="0"/>
        <pt x="71" y="124" on="0"/>
        <pt x="99" y="124" on="1"/>
        <pt x="128" y="124" on="0"/>
        <pt x="167" y="85" on="0"/>
        <pt x="167" y="57" on="1"/>
        <pt x="167" y="28" on="0"/>
        <pt x="128" y="-11" on="0"/>
        <pt x="99" y="-11" on="1"/>
        <pt x="71" y="-11" on="0"/>
        <pt x="32" y="28" on="0"/>
        <pt x="32" y="57" on="1"/>
      </contour>
      <contour>
        <pt x="232" y="85" on="0"/>
        <pt x="272" y="124" on="0"/>
        <pt x="300" y="124" on="1"/>
        <pt x="328" y="124" on="0"/>
        <pt x="367" y="85" on="0"/>
        <pt x="367" y="57" on="1"/>
        <pt x="367" y="28" on="0"/>
        <pt x="328" y="-11" on="0"/>
        <pt x="300" y="-11" on="1"/>
        <pt x="272" y="-11" on="0"/>
        <pt x="232" y="29" on="0"/>
        <pt x="232" y="57" on="1"/>
      </contour>
      <contour>
        <pt x="433" y="85" on="0"/>
        <pt x="472" y="124" on="0"/>
        <pt x="500" y="124" on="1"/>
        <pt x="529" y="124" on="0"/>
        <pt x="568" y="85" on="0"/>
        <pt x="568" y="57" on="1"/>
        <pt x="568" y="28" on="0"/>
        <pt x="529" y="-11" on="0"/>
        <pt x="500" y="-11" on="1"/>
        <pt x="472" y="-11" on="0"/>
        <pt x="433" y="28" on="0"/>
        <pt x="433" y="57" on="1"/>
      </contour>
    </TTGlyph>
    <TTGlyph name="emacron" xMin="79" yMin="-11" xMax="522" yMax="740">
      <component glyphName="e" x="0" y="0" flags="0x0"/>
      <component glyphName="macron" x="10" y="0" flags="0x0"/>
    </TTGlyph>
    <TTGlyph name="emdash" xMin="0" yMin="277" xMax="600" yMax="349">
      <contour>
        <pt x="600" y="349" on="1"/>
        <pt x="600" y="277" on="1"/>
        <pt x="0" y="277" on="1"/>
        <pt x="0" y="349" on="1"/>
      </contour>
    </TTGlyph>
    <TTGlyph name="emdash.case" xMin="0" yMin="317" xMax="600" yMax="389">
      <component glyphName="emdash" x="0" y="39" flags="0x0"/>
    </TTGlyph>
    <TTGlyph name="endash" xMin="33" yMin="277" xMax="567" yMax="349">
      <contour>
        <pt x="567" y="349" on="1"/>
        <pt x="567" y="277" on="1"/>
        <pt x="33" y="277" on="1"/>
        <pt x="33" y="349" on="1"/>
      </contour>
    </TTGlyph>
    <TTGlyph name="endash.case" xMin="33" yMin="317" xMax="567" yMax="389">
      <component glyphName="endash" x="0" y="39" flags="0x0"/>
    </TTGlyph>
    <TTGlyph name="eng" xMin="101" yMin="-211" xMax="500" yMax="538">
      <contour>
        <pt x="500" y="-45" on="0"/>
        <pt x="467" y="-132" on="0"/>
        <pt x="403" y="-185" on="0"/>
        <pt x="346" y="-211" on="1"/>
        <pt x="315" y="-150" on="1"/>
        <pt x="354" y="-132" on="0"/>
        <pt x="396" y="-97" on="0"/>
        <pt x="417" y="-33" on="0"/>
        <pt x="417" y="23" on="1"/>
        <pt x="417" y="320" on="1"/>
        <pt x="417" y="380" on="0"/>
        <pt x="405" y="442" on="0"/>
        <pt x="366" y="472" on="0"/>
        <pt x="326" y="472" on="1"/>
        <pt x="284" y="472" on="0"/>
        <pt x="207" y="419" on="0"/>
        <pt x="184" y="384" on="1"/>
        <pt x="184" y="0" on="1"/>
        <pt x="101" y="0" on="1"/>
        <pt x="101" y="526" on="1"/>
        <pt x="172" y="526" on="1"/>
        <pt x="178" y="453" on="1"/>
        <pt x="210" y="493" on="0"/>
        <pt x="304" y="538" on="0"/>
        <pt x="352" y="538" on="1"/>
        <pt x="500" y="538" on="0"/>
        <pt x="500" y="382" on="1"/>
        <pt x="500" y="28" on="1"/>
      </contour>
    </TTGlyph>
    <TTGlyph name="eogonek" xMin="79" yMin="-229" xMax="522" yMax="538">
      <contour>
        <pt x="522" y="256" on="0"/>
        <pt x="520" y="234" on="1"/>
        <pt x="166" y="234" on="1"/>
        <pt x="169" y="146" on="0"/>
        <pt x="255" y="58" on="0"/>
        <pt x="320" y="58" on="1"/>
        <pt x="400" y="58" on="0"/>
        <pt x="461" y="107" on="1"/>
        <pt x="500" y="50" on="1"/>
        <pt x="454" y="15" on="0"/>
        <pt x="399" y="0" on="1"/>
        <pt x="327" y="-32" on="0"/>
        <pt x="275" y="-85" on="0"/>
        <pt x="275" y="-115" on="1"/>
        <pt x="275" y="-138" on="0"/>
        <pt x="301" y="-162" on="0"/>
        <pt x="330" y="-162" on="1"/>
        <pt x="363" y="-162" on="0"/>
        <pt x="392" y="-155" on="1"/>
        <pt x="384" y="-222" on="1"/>
        <pt x="349" y="-229" on="0"/>
        <pt x="320" y="-229" on="1"/>
        <pt x="264" y="-229" on="0"/>
        <pt x="199" y="-173" on="0"/>
        <pt x="199" y="-131" on="1"/>
        <pt x="199" y="-92" on="0"/>
        <pt x="250" y="-31" on="0"/>
        <pt x="301" y="-10" on="1"/>
        <pt x="196" y="-4" on="0"/>
        <pt x="79" y="143" on="0"/>
        <pt x="79" y="263" on="1"/>
        <pt x="79" y="342" on="0"/>
        <pt x="135" y="467" on="0"/>
        <pt x="238" y="538" on="0"/>
        <pt x="305" y="538" on="1"/>
        <pt x="407" y="538" on="0"/>
        <pt x="522" y="399" on="0"/>
        <pt x="522" y="279" on="1"/>
      </contour>
      <contour>
        <pt x="441" y="382" on="0"/>
        <pt x="369" y="469" on="0"/>
        <pt x="306" y="469" on="1"/>
        <pt x="247" y="469" on="0"/>
        <pt x="171" y="382" on="0"/>
        <pt x="166" y="298" on="1"/>
        <pt x="442" y="298" on="1"/>
      </contour>
    </TTGlyph>
    <TTGlyph name="epsilon" xMin="83" yMin="-11" xMax="546" yMax="538">
      <contour>
        <pt x="234" y="241" on="0"/>
        <pt x="173" y="200" on="0"/>
        <pt x="173" y="155" on="1"/>
        <pt x="173" y="110" on="0"/>
        <pt x="249" y="57" on="0"/>
        <pt x="315" y="57" on="1"/>
        <pt x="417" y="57" on="0"/>
        <pt x="501" y="115" on="1"/>
        <pt x="546" y="59" on="1"/>
        <pt x="505" y="28" on="0"/>
        <pt x="382" y="-11" on="0"/>
        <pt x="310" y="-11" on="1"/>
        <pt x="210" y="-11" on="0"/>
        <pt x="83" y="75" on="0"/>
        <pt x="83" y="152" on="1"/>
        <pt x="83" y="211" on="0"/>
        <pt x="150" y="273" on="0"/>
        <pt x="215" y="282" on="1"/>
        <pt x="161" y="293" on="0"/>
        <pt x="105" y="353" on="0"/>
        <pt x="105" y="397" on="1"/>
        <pt x="105" y="464" on="0"/>
        <pt x="225" y="538" on="0"/>
        <pt x="316" y="538" on="1"/>
        <pt x="370" y="538" on="0"/>
        <pt x="478" y="511" on="0"/>
        <pt x="516" y="484" on="1"/>
        <pt x="474" y="432" on="1"/>
        <pt x="410" y="471" on="0"/>
        <pt x="319" y="471" on="1"/>
        <pt x="257" y="471" on="0"/>
        <pt x="191" y="430" on="0"/>
        <pt x="191" y="389" on="1"/>
        <pt x="191" y="352" on="0"/>
        <pt x="253" y="309" on="0"/>
        <pt x="306" y="309" on="1"/>
        <pt x="401" y="309" on="1"/>
        <pt x="391" y="241" on="1"/>
        <pt x="301" y="241" on="1"/>
      </contour>
    </TTGlyph>
    <TTGlyph name="epsilontonos" xMin="83" yMin="-11" xMax="546" yMax="806">
      <component glyphName="epsilon" x="0" y="0" flags="0x0"/>
      <component glyphName="tonos" x="45" y="0" flags="0x0"/>
    </TTGlyph>
    <TTGlyph name="equal" xMin="106" yMin="180" xMax="494" yMax="442">
      <contour>
        <pt x="106" y="370" on="1"/>
        <pt x="106" y="442" on="1"/>
        <pt x="494" y="442" on="1"/>
        <pt x="494" y="370" on="1"/>
      </contour>
      <contour>
        <pt x="106" y="180" on="1"/>
        <pt x="106" y="252" on="1"/>
        <pt x="494" y="252" on="1"/>
        <pt x="494" y="180" on="1"/>
      </contour>
    </TTGlyph>
    <TTGlyph name="equal.dnom" xMin="183" yMin="75" xMax="416" yMax="257">
      <contour>
        <pt x="183" y="195" on="1"/>
        <pt x="183" y="257" on="1"/>
        <pt x="416" y="257" on="1"/>
        <pt x="416" y="195" on="1"/>
      </contour>
      <contour>
        <pt x="183" y="75" on="1"/>
        <pt x="183" y="137" on="1"/>
        <pt x="416" y="137" on="1"/>
        <pt x="416" y="75" on="1"/>
      </contour>
    </TTGlyph>
    <TTGlyph name="equal.numr" xMin="183" yMin="443" xMax="416" yMax="625">
      <component glyphName="equal.dnom" x="0" y="367" flags="0x0"/>
    </TTGlyph>
    <TTGlyph name="equal.tosf" xMin="106" yMin="180" xMax="494" yMax="442">
      <component glyphName="equal" x="0" y="0" flags="0x0"/>
    </TTGlyph>
    <TTGlyph name="equalsuperior" xMin="183" yMin="390" xMax="416" yMax="572">
      <component glyphName="equal.dnom" x="0" y="315" flags="0x0"/>
    </TTGlyph>
    <TTGlyph name="equivalence" xMin="106" yMin="86" xMax="494" yMax="537">
      <contour>
        <pt x="106" y="466" on="1"/>
        <pt x="106" y="537" on="1"/>
        <pt x="494" y="537" on="1"/>
        <pt x="494" y="466" on="1"/>
      </contour>
      <contour>
        <pt x="106" y="276" on="1"/>
        <pt x="106" y="348" on="1"/>
        <pt x="494" y="348" on="1"/>
        <pt x="494" y="276" on="1"/>
      </contour>
      <contour>
        <pt x="106" y="86" on="1"/>
        <pt x="106" y="158" on="1"/>
        <pt x="494" y="158" on="1"/>
        <pt x="494" y="86" on="1"/>
      </contour>
    </TTGlyph>
    <TTGlyph name="estimated" xMin="21" yMin="-12" xMax="583" yMax="701">
      <contour>
        <pt x="429" y="701" on="0"/>
        <pt x="566" y="572" on="0"/>
        <pt x="583" y="468" on="1"/>
        <pt x="583" y="334" on="1"/>
        <pt x="151" y="334" on="1"/>
        <pt x="151" y="73" on="1"/>
        <pt x="208" y="26" on="0"/>
        <pt x="305" y="26" on="1"/>
        <pt x="373" y="26" on="0"/>
        <pt x="472" y="77" on="0"/>
        <pt x="498" y="123" on="1"/>
        <pt x="547" y="123" on="1"/>
        <pt x="515" y="61" on="0"/>
        <pt x="396" y="-12" on="0"/>
        <pt x="304" y="-12" on="1"/>
        <pt x="181" y="-12" on="0"/>
        <pt x="40" y="111" on="0"/>
        <pt x="21" y="214" on="1"/>
        <pt x="21" y="468" on="1"/>
        <pt x="38" y="572" on="0"/>
        <pt x="175" y="701" on="0"/>
        <pt x="302" y="701" on="1"/>
      </contour>
      <contour>
        <pt x="205" y="662" on="0"/>
        <pt x="151" y="620" on="1"/>
        <pt x="151" y="373" on="1"/>
        <pt x="450" y="373" on="1"/>
        <pt x="450" y="619" on="1"/>
        <pt x="426" y="638" on="0"/>
        <pt x="348" y="662" on="0"/>
        <pt x="303" y="662" on="1"/>
      </contour>
    </TTGlyph>
    <TTGlyph name="eta" xMin="73" yMin="-212" xMax="500" yMax="538">
      <contour>
        <pt x="427" y="538" on="0"/>
        <pt x="500" y="457" on="0"/>
        <pt x="500" y="382" on="1"/>
        <pt x="500" y="-202" on="1"/>
        <pt x="417" y="-212" on="1"/>
        <pt x="417" y="320" on="1"/>
        <pt x="417" y="379" on="0"/>
        <pt x="404" y="442" on="0"/>
        <pt x="365" y="472" on="0"/>
        <pt x="325" y="472" on="1"/>
        <pt x="284" y="472" on="0"/>
        <pt x="207" y="419" on="0"/>
        <pt x="183" y="384" on="1"/>
        <pt x="183" y="0" on="1"/>
        <pt x="100" y="0" on="1"/>
        <pt x="100" y="354" on="1"/>
        <pt x="100" y="438" on="0"/>
        <pt x="73" y="527" on="1"/>
        <pt x="151" y="538" on="1"/>
        <pt x="158" y="525" on="0"/>
        <pt x="173" y="470" on="0"/>
        <pt x="175" y="450" on="1"/>
        <pt x="208" y="492" on="0"/>
        <pt x="303" y="538" on="0"/>
        <pt x="351" y="538" on="1"/>
      </contour>
    </TTGlyph>
    <TTGlyph name="etatonos" xMin="73" yMin="-212" xMax="500" yMax="806">
      <component glyphName="eta" x="0" y="0" flags="0x0"/>
      <component glyphName="tonos" x="27" y="0" flags="0x0"/>
    </TTGlyph>
    <TTGlyph name="eth" xMin="67" yMin="-11" xMax="532" yMax="773">
      <contour>
        <pt x="205" y="669" on="0"/>
        <pt x="134" y="683" on="1"/>
        <pt x="152" y="749" on="1"/>
        <pt x="248" y="728" on="0"/>
        <pt x="302" y="699" on="1"/>
        <pt x="371" y="773" on="1"/>
        <pt x="422" y="729" on="1"/>
        <pt x="360" y="665" on="1"/>
        <pt x="448" y="604" on="0"/>
        <pt x="532" y="407" on="0"/>
        <pt x="532" y="263" on="1"/>
        <pt x="532" y="180" on="0"/>
        <pt x="473" y="56" on="0"/>
        <pt x="366" y="-11" on="0"/>
        <pt x="295" y="-11" on="1"/>
        <pt x="231" y="-11" on="0"/>
        <pt x="127" y="47" on="0"/>
        <pt x="67" y="158" on="0"/>
        <pt x="67" y="235" on="1"/>
        <pt x="67" y="307" on="0"/>
        <pt x="125" y="419" on="0"/>
        <pt x="223" y="481" on="0"/>
        <pt x="280" y="481" on="1"/>
        <pt x="378" y="481" on="0"/>
        <pt x="438" y="412" on="1"/>
        <pt x="425" y="474" on="0"/>
        <pt x="357" y="577" on="0"/>
        <pt x="308" y="613" on="1"/>
        <pt x="229" y="532" on="1"/>
        <pt x="170" y="562" on="1"/>
        <pt x="251" y="647" on="1"/>
      </contour>
      <contour>
        <pt x="448" y="302" on="0"/>
        <pt x="445" y="333" on="1"/>
        <pt x="420" y="372" on="0"/>
        <pt x="339" y="414" on="0"/>
        <pt x="290" y="414" on="1"/>
        <pt x="231" y="414" on="0"/>
        <pt x="152" y="325" on="0"/>
        <pt x="152" y="239" on="1"/>
        <pt x="152" y="152" on="0"/>
        <pt x="230" y="56" on="0"/>
        <pt x="294" y="56" on="1"/>
        <pt x="366" y="56" on="0"/>
        <pt x="448" y="165" on="0"/>
        <pt x="448" y="267" on="1"/>
      </contour>
    </TTGlyph>
    <TTGlyph name="exclam" xMin="233" yMin="-11" xMax="366" yMax="688">
      <contour>
        <pt x="261" y="227" on="1"/>
        <pt x="251" y="688" on="1"/>
        <pt x="344" y="688" on="1"/>
        <pt x="336" y="227" on="1"/>
      </contour>
      <contour>
        <pt x="327" y="122" on="0"/>
        <pt x="366" y="83" on="0"/>
        <pt x="366" y="56" on="1"/>
        <pt x="366" y="28" on="0"/>
        <pt x="328" y="-11" on="0"/>
        <pt x="299" y="-11" on="1"/>
        <pt x="271" y="-11" on="0"/>
        <pt x="233" y="27" on="0"/>
        <pt x="233" y="56" on="1"/>
        <pt x="233" y="83" on="0"/>
        <pt x="271" y="122" on="0"/>
        <pt x="299" y="122" on="1"/>
      </contour>
    </TTGlyph>
    <TTGlyph name="exclamdown" xMin="233" yMin="-197" xMax="366" yMax="498">
      <contour>
        <pt x="327" y="498" on="0"/>
        <pt x="366" y="459" on="0"/>
        <pt x="366" y="431" on="1"/>
        <pt x="366" y="404" on="0"/>
        <pt x="327" y="365" on="0"/>
        <pt x="299" y="365" on="1"/>
        <pt x="271" y="365" on="0"/>
        <pt x="233" y="404" on="0"/>
        <pt x="233" y="431" on="1"/>
        <pt x="233" y="460" on="0"/>
        <pt x="271" y="498" on="0"/>
        <pt x="299" y="498" on="1"/>
      </contour>
      <contour>
        <pt x="251" y="-197" on="1"/>
        <pt x="263" y="261" on="1"/>
        <pt x="335" y="261" on="1"/>
        <pt x="347" y="-197" on="1"/>
      </contour>
    </TTGlyph>
    <TTGlyph name="exclamdown.case" xMin="234" yMin="0" xMax="367" yMax="700">
      <contour>
        <pt x="328" y="700" on="0"/>
        <pt x="367" y="661" on="0"/>
        <pt x="367" y="633" on="1"/>
        <pt x="367" y="605" on="0"/>
        <pt x="328" y="566" on="0"/>
        <pt x="300" y="566" on="1"/>
        <pt x="272" y="566" on="0"/>
        <pt x="234" y="605" on="0"/>
        <pt x="234" y="633" on="1"/>
        <pt x="234" y="661" on="0"/>
        <pt x="272" y="700" on="0"/>
        <pt x="300" y="700" on="1"/>
      </contour>
      <contour>
        <pt x="252" y="0" on="1"/>
        <pt x="264" y="458" on="1"/>
        <pt x="336" y="458" on="1"/>
        <pt x="349" y="0" on="1"/>
      </contour>
    </TTGlyph>
    <TTGlyph name="f" xMin="94" yMin="0" xMax="554" yMax="749">
      <contour>
        <pt x="486" y="749" on="0"/>
        <pt x="554" y="720" on="1"/>
        <pt x="527" y="658" on="1"/>
        <pt x="478" y="681" on="0"/>
        <pt x="414" y="681" on="1"/>
        <pt x="303" y="681" on="0"/>
        <pt x="303" y="593" on="1"/>
        <pt x="303" y="486" on="1"/>
        <pt x="482" y="486" on="1"/>
        <pt x="473" y="420" on="1"/>
        <pt x="303" y="420" on="1"/>
        <pt x="303" y="0" on="1"/>
        <pt x="220" y="0" on="1"/>
        <pt x="220" y="420" on="1"/>
        <pt x="94" y="420" on="1"/>
        <pt x="94" y="486" on="1"/>
        <pt x="220" y="486" on="1"/>
        <pt x="220" y="591" on="1"/>
        <pt x="220" y="662" on="0"/>
        <pt x="328" y="749" on="0"/>
        <pt x="411" y="749" on="1"/>
      </contour>
    </TTGlyph>
    <TTGlyph name="female" xMin="139" yMin="0" xMax="460" yMax="539">
      <contour>
        <pt x="343" y="539" on="0"/>
        <pt x="417" y="497" on="0"/>
        <pt x="460" y="425" on="0"/>
        <pt x="460" y="381" on="1"/>
        <pt x="460" y="321" on="0"/>
        <pt x="383" y="236" on="0"/>
        <pt x="324" y="228" on="1"/>
        <pt x="324" y="145" on="1"/>
        <pt x="420" y="145" on="1"/>
        <pt x="420" y="105" on="1"/>
        <pt x="324" y="105" on="1"/>
        <pt x="324" y="0" on="1"/>
        <pt x="276" y="0" on="1"/>
        <pt x="276" y="105" on="1"/>
        <pt x="180" y="105" on="1"/>
        <pt x="180" y="145" on="1"/>
        <pt x="276" y="145" on="1"/>
        <pt x="276" y="227" on="1"/>
        <pt x="217" y="235" on="0"/>
        <pt x="139" y="321" on="0"/>
        <pt x="139" y="381" on="1"/>
        <pt x="139" y="425" on="0"/>
        <pt x="182" y="497" on="0"/>
        <pt x="255" y="539" on="0"/>
        <pt x="299" y="539" on="1"/>
      </contour>
      <contour>
        <pt x="251" y="493" on="0"/>
        <pt x="190" y="429" on="0"/>
        <pt x="190" y="381" on="1"/>
        <pt x="190" y="333" on="0"/>
        <pt x="251" y="270" on="0"/>
        <pt x="299" y="270" on="1"/>
        <pt x="347" y="270" on="0"/>
        <pt x="409" y="333" on="0"/>
        <pt x="409" y="381" on="1"/>
        <pt x="409" y="429" on="0"/>
        <pt x="347" y="493" on="0"/>
        <pt x="299" y="493" on="1"/>
      </contour>
    </TTGlyph>
    <TTGlyph name="fi" xMin="20" yMin="0" xMax="586" yMax="749">
      <contour>
        <pt x="314" y="66" on="1"/>
        <pt x="408" y="66" on="1"/>
        <pt x="408" y="461" on="1"/>
        <pt x="195" y="461" on="1"/>
        <pt x="195" y="0" on="1"/>
        <pt x="111" y="0" on="1"/>
        <pt x="111" y="461" on="1"/>
        <pt x="20" y="461" on="1"/>
        <pt x="20" y="526" on="1"/>
        <pt x="111" y="526" on="1"/>
        <pt x="111" y="591" on="1"/>
        <pt x="111" y="638" on="0"/>
        <pt x="162" y="710" on="0"/>
        <pt x="251" y="749" on="0"/>
        <pt x="305" y="749" on="1"/>
        <pt x="380" y="749" on="0"/>
        <pt x="448" y="720" on="1"/>
        <pt x="420" y="658" on="1"/>
        <pt x="373" y="681" on="0"/>
        <pt x="308" y="681" on="1"/>
        <pt x="195" y="681" on="0"/>
        <pt x="195" y="593" on="1"/>
        <pt x="195" y="526" on="1"/>
        <pt x="492" y="526" on="1"/>
        <pt x="492" y="66" on="1"/>
        <pt x="586" y="66" on="1"/>
        <pt x="586" y="0" on="1"/>
        <pt x="314" y="0" on="1"/>
      </contour>
    </TTGlyph>
    <TTGlyph name="figuredash" xMin="35" yMin="276" xMax="565" yMax="348">
      <contour>
        <pt x="565" y="348" on="1"/>
        <pt x="565" y="276" on="1"/>
        <pt x="35" y="276" on="1"/>
        <pt x="35" y="348" on="1"/>
      </contour>
    </TTGlyph>
    <TTGlyph name="figuredash.tosf" xMin="35" yMin="276" xMax="565" yMax="348">
      <component glyphName="figuredash" x="0" y="0" flags="0x0"/>
    </TTGlyph>
    <TTGlyph name="filledbox" xMin="30" yMin="0" xMax="570" yMax="540">
      <contour>
        <pt x="30" y="0" on="1"/>
        <pt x="30" y="540" on="1"/>
        <pt x="570" y="540" on="1"/>
        <pt x="570" y="0" on="1"/>
      </contour>
    </TTGlyph>
    <TTGlyph name="filledrect" xMin="30" yMin="0" xMax="570" yMax="270">
      <contour>
        <pt x="30" y="0" on="1"/>
        <pt x="30" y="270" on="1"/>
        <pt x="570" y="270" on="1"/>
        <pt x="570" y="0" on="1"/>
      </contour>
    </TTGlyph>
</ttFont>
